G04 #@! TF.GenerationSoftware,KiCad,Pcbnew,(5.1.10)-1*
G04 #@! TF.CreationDate,2021-08-27T01:26:18-04:00*
G04 #@! TF.ProjectId,Water_Valve_Sensor,57617465-725f-4566-916c-76655f53656e,rev?*
G04 #@! TF.SameCoordinates,Original*
G04 #@! TF.FileFunction,Soldermask,Bot*
G04 #@! TF.FilePolarity,Negative*
%FSLAX46Y46*%
G04 Gerber Fmt 4.6, Leading zero omitted, Abs format (unit mm)*
G04 Created by KiCad (PCBNEW (5.1.10)-1) date 2021-08-27 01:26:18*
%MOMM*%
%LPD*%
G01*
G04 APERTURE LIST*
%ADD10O,1.600000X1.600000*%
%ADD11C,1.600000*%
%ADD12C,2.500000*%
%ADD13C,5.000000*%
%ADD14C,2.900000*%
%ADD15O,2.000000X4.500000*%
%ADD16O,4.000000X2.000000*%
%ADD17O,2.000000X4.000000*%
%ADD18O,1.700000X1.700000*%
%ADD19R,1.700000X1.700000*%
%ADD20R,1.600000X1.600000*%
%ADD21R,1.300000X1.300000*%
%ADD22C,1.300000*%
%ADD23C,1.800000*%
%ADD24R,1.800000X1.800000*%
%ADD25O,2.400000X2.400000*%
%ADD26R,2.400000X2.400000*%
G04 APERTURE END LIST*
D10*
X106620000Y-143500000D03*
D11*
X99000000Y-143500000D03*
D12*
X100500000Y-130700000D03*
X100500000Y-138300000D03*
D13*
X104500000Y-125000000D03*
D14*
X104500000Y-125000000D03*
D15*
X43000000Y-136000000D03*
D16*
X39952000Y-140826000D03*
D17*
X36904000Y-136000000D03*
D18*
X68460000Y-147500000D03*
D19*
X71000000Y-147500000D03*
D13*
X76000000Y-142000000D03*
D14*
X76000000Y-142000000D03*
D13*
X40000000Y-146000000D03*
D14*
X40000000Y-146000000D03*
D13*
X40000000Y-126000000D03*
D14*
X40000000Y-126000000D03*
D18*
X99460000Y-147500000D03*
D19*
X102000000Y-147500000D03*
D18*
X62540000Y-145960000D03*
X62540000Y-148500000D03*
X60000000Y-145960000D03*
X60000000Y-148500000D03*
X57460000Y-145960000D03*
X57460000Y-148500000D03*
X54920000Y-145960000D03*
X54920000Y-148500000D03*
X52380000Y-145960000D03*
D19*
X52380000Y-148500000D03*
D11*
X74000000Y-135000000D03*
D20*
X74000000Y-137000000D03*
D10*
X83000000Y-149120000D03*
D11*
X83000000Y-141500000D03*
D10*
X83000000Y-122380000D03*
D11*
X83000000Y-130000000D03*
D10*
X69880000Y-130000000D03*
D11*
X77500000Y-130000000D03*
D10*
X77620000Y-126000000D03*
D11*
X70000000Y-126000000D03*
D10*
X94500000Y-149120000D03*
D11*
X94500000Y-141500000D03*
D10*
X67500000Y-134880000D03*
D11*
X67500000Y-142500000D03*
D10*
X62500000Y-134880000D03*
D11*
X62500000Y-142500000D03*
D10*
X57500000Y-134880000D03*
D11*
X57500000Y-142500000D03*
D10*
X52500000Y-134880000D03*
D11*
X52500000Y-142500000D03*
D10*
X47500000Y-134880000D03*
D11*
X47500000Y-142500000D03*
D10*
X52500000Y-131120000D03*
D11*
X52500000Y-123500000D03*
D10*
X57500000Y-131120000D03*
D11*
X57500000Y-123500000D03*
D21*
X89500000Y-127000000D03*
D22*
X89500000Y-124460000D03*
X88230000Y-125730000D03*
D23*
X79040000Y-148000000D03*
D24*
X76500000Y-148000000D03*
D25*
X90000000Y-141660000D03*
D26*
X90000000Y-131500000D03*
D23*
X90540000Y-148000000D03*
D24*
X88000000Y-148000000D03*
D11*
X47000000Y-127000000D03*
D20*
X47000000Y-129000000D03*
M02*
