G04 #@! TF.GenerationSoftware,KiCad,Pcbnew,(5.1.10)-1*
G04 #@! TF.CreationDate,2021-08-27T01:26:18-04:00*
G04 #@! TF.ProjectId,Water_Valve_Sensor,57617465-725f-4566-916c-76655f53656e,rev?*
G04 #@! TF.SameCoordinates,Original*
G04 #@! TF.FileFunction,Copper,L2,Bot*
G04 #@! TF.FilePolarity,Positive*
%FSLAX46Y46*%
G04 Gerber Fmt 4.6, Leading zero omitted, Abs format (unit mm)*
G04 Created by KiCad (PCBNEW (5.1.10)-1) date 2021-08-27 01:26:18*
%MOMM*%
%LPD*%
G01*
G04 APERTURE LIST*
G04 #@! TA.AperFunction,ComponentPad*
%ADD10O,1.600000X1.600000*%
G04 #@! TD*
G04 #@! TA.AperFunction,ComponentPad*
%ADD11C,1.600000*%
G04 #@! TD*
G04 #@! TA.AperFunction,ComponentPad*
%ADD12C,2.500000*%
G04 #@! TD*
G04 #@! TA.AperFunction,ConnectorPad*
%ADD13C,5.000000*%
G04 #@! TD*
G04 #@! TA.AperFunction,ComponentPad*
%ADD14C,2.900000*%
G04 #@! TD*
G04 #@! TA.AperFunction,ComponentPad*
%ADD15O,2.000000X4.500000*%
G04 #@! TD*
G04 #@! TA.AperFunction,ComponentPad*
%ADD16O,4.000000X2.000000*%
G04 #@! TD*
G04 #@! TA.AperFunction,ComponentPad*
%ADD17O,2.000000X4.000000*%
G04 #@! TD*
G04 #@! TA.AperFunction,ComponentPad*
%ADD18O,1.700000X1.700000*%
G04 #@! TD*
G04 #@! TA.AperFunction,ComponentPad*
%ADD19R,1.700000X1.700000*%
G04 #@! TD*
G04 #@! TA.AperFunction,ComponentPad*
%ADD20R,1.600000X1.600000*%
G04 #@! TD*
G04 #@! TA.AperFunction,ComponentPad*
%ADD21R,1.300000X1.300000*%
G04 #@! TD*
G04 #@! TA.AperFunction,ComponentPad*
%ADD22C,1.300000*%
G04 #@! TD*
G04 #@! TA.AperFunction,ComponentPad*
%ADD23C,1.800000*%
G04 #@! TD*
G04 #@! TA.AperFunction,ComponentPad*
%ADD24R,1.800000X1.800000*%
G04 #@! TD*
G04 #@! TA.AperFunction,ComponentPad*
%ADD25O,2.400000X2.400000*%
G04 #@! TD*
G04 #@! TA.AperFunction,ComponentPad*
%ADD26R,2.400000X2.400000*%
G04 #@! TD*
G04 #@! TA.AperFunction,ViaPad*
%ADD27C,0.800000*%
G04 #@! TD*
G04 #@! TA.AperFunction,Conductor*
%ADD28C,0.700000*%
G04 #@! TD*
G04 #@! TA.AperFunction,Conductor*
%ADD29C,0.400000*%
G04 #@! TD*
G04 #@! TA.AperFunction,Conductor*
%ADD30C,0.254000*%
G04 #@! TD*
G04 #@! TA.AperFunction,Conductor*
%ADD31C,0.100000*%
G04 #@! TD*
G04 APERTURE END LIST*
D10*
X106620000Y-143500000D03*
D11*
X99000000Y-143500000D03*
D12*
X100500000Y-130700000D03*
X100500000Y-138300000D03*
D13*
X104500000Y-125000000D03*
D14*
X104500000Y-125000000D03*
D15*
X43000000Y-136000000D03*
D16*
X39952000Y-140826000D03*
D17*
X36904000Y-136000000D03*
D18*
X68460000Y-147500000D03*
D19*
X71000000Y-147500000D03*
D13*
X76000000Y-142000000D03*
D14*
X76000000Y-142000000D03*
D13*
X40000000Y-146000000D03*
D14*
X40000000Y-146000000D03*
D13*
X40000000Y-126000000D03*
D14*
X40000000Y-126000000D03*
D18*
X99460000Y-147500000D03*
D19*
X102000000Y-147500000D03*
D18*
X62540000Y-145960000D03*
X62540000Y-148500000D03*
X60000000Y-145960000D03*
X60000000Y-148500000D03*
X57460000Y-145960000D03*
X57460000Y-148500000D03*
X54920000Y-145960000D03*
X54920000Y-148500000D03*
X52380000Y-145960000D03*
D19*
X52380000Y-148500000D03*
D11*
X74000000Y-135000000D03*
D20*
X74000000Y-137000000D03*
D10*
X83000000Y-149120000D03*
D11*
X83000000Y-141500000D03*
D10*
X83000000Y-122380000D03*
D11*
X83000000Y-130000000D03*
D10*
X69880000Y-130000000D03*
D11*
X77500000Y-130000000D03*
D10*
X77620000Y-126000000D03*
D11*
X70000000Y-126000000D03*
D10*
X94500000Y-149120000D03*
D11*
X94500000Y-141500000D03*
D10*
X67500000Y-134880000D03*
D11*
X67500000Y-142500000D03*
D10*
X62500000Y-134880000D03*
D11*
X62500000Y-142500000D03*
D10*
X57500000Y-134880000D03*
D11*
X57500000Y-142500000D03*
D10*
X52500000Y-134880000D03*
D11*
X52500000Y-142500000D03*
D10*
X47500000Y-134880000D03*
D11*
X47500000Y-142500000D03*
D10*
X52500000Y-131120000D03*
D11*
X52500000Y-123500000D03*
D10*
X57500000Y-131120000D03*
D11*
X57500000Y-123500000D03*
D21*
X89500000Y-127000000D03*
D22*
X89500000Y-124460000D03*
X88230000Y-125730000D03*
D23*
X79040000Y-148000000D03*
D24*
X76500000Y-148000000D03*
D25*
X90000000Y-141660000D03*
D26*
X90000000Y-131500000D03*
D23*
X90540000Y-148000000D03*
D24*
X88000000Y-148000000D03*
D11*
X47000000Y-127000000D03*
D20*
X47000000Y-129000000D03*
D27*
X62000000Y-131000000D03*
X78500000Y-138000000D03*
X64184002Y-125500000D03*
X64500000Y-129500000D03*
X64500000Y-127000000D03*
X83000000Y-136500000D03*
X71000000Y-134000000D03*
D28*
X63500000Y-132500000D02*
X62000000Y-131000000D01*
X71500000Y-132500000D02*
X63500000Y-132500000D01*
X74000000Y-135000000D02*
X71500000Y-132500000D01*
D29*
X65300001Y-126615999D02*
X64184002Y-125500000D01*
X65300001Y-127196003D02*
X65300001Y-126615999D01*
X69303999Y-131200001D02*
X65300001Y-127196003D01*
X75200001Y-131200001D02*
X69303999Y-131200001D01*
X78500000Y-134500000D02*
X75200001Y-131200001D01*
X78500000Y-138000000D02*
X78500000Y-134500000D01*
X83546002Y-125730000D02*
X88230000Y-125730000D01*
X78076001Y-131200001D02*
X83546002Y-125730000D01*
X75200001Y-131200001D02*
X78076001Y-131200001D01*
X83546002Y-122926002D02*
X83000000Y-122380000D01*
X83546002Y-125730000D02*
X83546002Y-122926002D01*
D28*
X90700001Y-130799999D02*
X90000000Y-131500000D01*
X90700001Y-125660001D02*
X90700001Y-130799999D01*
X89500000Y-124460000D02*
X90700001Y-125660001D01*
D29*
X64500000Y-129500000D02*
X64500000Y-127000000D01*
X84200000Y-135300000D02*
X83000000Y-136500000D01*
X97500000Y-135300000D02*
X84200000Y-135300000D01*
X100500000Y-138300000D02*
X97500000Y-135300000D01*
X77500000Y-126120000D02*
X77620000Y-126000000D01*
X77500000Y-130000000D02*
X77500000Y-126120000D01*
X71000000Y-142500000D02*
X76500000Y-148000000D01*
X71000000Y-134000000D02*
X71000000Y-142500000D01*
D30*
X81728320Y-121700273D02*
X81620147Y-121961426D01*
X81565000Y-122238665D01*
X81565000Y-122521335D01*
X81620147Y-122798574D01*
X81728320Y-123059727D01*
X81885363Y-123294759D01*
X82085241Y-123494637D01*
X82320273Y-123651680D01*
X82581426Y-123759853D01*
X82711003Y-123785628D01*
X82711002Y-125384131D01*
X78772612Y-129322523D01*
X78771680Y-129320273D01*
X78614637Y-129085241D01*
X78414759Y-128885363D01*
X78335000Y-128832070D01*
X78335000Y-127248111D01*
X78534759Y-127114637D01*
X78734637Y-126914759D01*
X78891680Y-126679727D01*
X78999853Y-126418574D01*
X79055000Y-126141335D01*
X79055000Y-125858665D01*
X78999853Y-125581426D01*
X78891680Y-125320273D01*
X78734637Y-125085241D01*
X78534759Y-124885363D01*
X78299727Y-124728320D01*
X78038574Y-124620147D01*
X77761335Y-124565000D01*
X77478665Y-124565000D01*
X77201426Y-124620147D01*
X76940273Y-124728320D01*
X76705241Y-124885363D01*
X76505363Y-125085241D01*
X76348320Y-125320273D01*
X76240147Y-125581426D01*
X76185000Y-125858665D01*
X76185000Y-126141335D01*
X76240147Y-126418574D01*
X76348320Y-126679727D01*
X76505363Y-126914759D01*
X76665001Y-127074397D01*
X76665000Y-128832070D01*
X76585241Y-128885363D01*
X76385363Y-129085241D01*
X76228320Y-129320273D01*
X76120147Y-129581426D01*
X76065000Y-129858665D01*
X76065000Y-130141335D01*
X76109491Y-130365001D01*
X75241019Y-130365001D01*
X75200001Y-130360961D01*
X75158983Y-130365001D01*
X71270509Y-130365001D01*
X71315000Y-130141335D01*
X71315000Y-129858665D01*
X71259853Y-129581426D01*
X71151680Y-129320273D01*
X70994637Y-129085241D01*
X70794759Y-128885363D01*
X70559727Y-128728320D01*
X70298574Y-128620147D01*
X70021335Y-128565000D01*
X69738665Y-128565000D01*
X69461426Y-128620147D01*
X69200273Y-128728320D01*
X68965241Y-128885363D01*
X68765363Y-129085241D01*
X68608320Y-129320273D01*
X68607388Y-129322523D01*
X66135001Y-126850136D01*
X66135001Y-126657017D01*
X66139041Y-126615999D01*
X66122919Y-126452310D01*
X66075173Y-126294912D01*
X65997637Y-126149853D01*
X65919440Y-126054569D01*
X65919438Y-126054567D01*
X65893292Y-126022708D01*
X65861433Y-125996562D01*
X65723536Y-125858665D01*
X68565000Y-125858665D01*
X68565000Y-126141335D01*
X68620147Y-126418574D01*
X68728320Y-126679727D01*
X68885363Y-126914759D01*
X69085241Y-127114637D01*
X69320273Y-127271680D01*
X69581426Y-127379853D01*
X69858665Y-127435000D01*
X70141335Y-127435000D01*
X70418574Y-127379853D01*
X70679727Y-127271680D01*
X70914759Y-127114637D01*
X71114637Y-126914759D01*
X71271680Y-126679727D01*
X71379853Y-126418574D01*
X71435000Y-126141335D01*
X71435000Y-125858665D01*
X71379853Y-125581426D01*
X71271680Y-125320273D01*
X71114637Y-125085241D01*
X70914759Y-124885363D01*
X70679727Y-124728320D01*
X70418574Y-124620147D01*
X70141335Y-124565000D01*
X69858665Y-124565000D01*
X69581426Y-124620147D01*
X69320273Y-124728320D01*
X69085241Y-124885363D01*
X68885363Y-125085241D01*
X68728320Y-125320273D01*
X68620147Y-125581426D01*
X68565000Y-125858665D01*
X65723536Y-125858665D01*
X65208094Y-125343225D01*
X65179228Y-125198102D01*
X65101207Y-125009744D01*
X64987939Y-124840226D01*
X64843776Y-124696063D01*
X64674258Y-124582795D01*
X64485900Y-124504774D01*
X64285941Y-124465000D01*
X64082063Y-124465000D01*
X63882104Y-124504774D01*
X63693746Y-124582795D01*
X63524228Y-124696063D01*
X63380065Y-124840226D01*
X63266797Y-125009744D01*
X63188776Y-125198102D01*
X63149002Y-125398061D01*
X63149002Y-125601939D01*
X63188776Y-125801898D01*
X63266797Y-125990256D01*
X63380065Y-126159774D01*
X63524228Y-126303937D01*
X63659788Y-126394515D01*
X63582795Y-126509744D01*
X63504774Y-126698102D01*
X63465000Y-126898061D01*
X63465000Y-127101939D01*
X63504774Y-127301898D01*
X63582795Y-127490256D01*
X63665001Y-127613286D01*
X63665000Y-128886715D01*
X63582795Y-129009744D01*
X63504774Y-129198102D01*
X63465000Y-129398061D01*
X63465000Y-129601939D01*
X63504774Y-129801898D01*
X63582795Y-129990256D01*
X63696063Y-130159774D01*
X63840226Y-130303937D01*
X64009744Y-130417205D01*
X64198102Y-130495226D01*
X64398061Y-130535000D01*
X64601939Y-130535000D01*
X64801898Y-130495226D01*
X64990256Y-130417205D01*
X65159774Y-130303937D01*
X65303937Y-130159774D01*
X65417205Y-129990256D01*
X65495226Y-129801898D01*
X65535000Y-129601939D01*
X65535000Y-129398061D01*
X65495226Y-129198102D01*
X65417205Y-129009744D01*
X65335000Y-128886715D01*
X65335000Y-128411869D01*
X68684558Y-131761428D01*
X68710708Y-131793292D01*
X68837853Y-131897637D01*
X68982912Y-131975173D01*
X69140310Y-132022919D01*
X69262980Y-132035001D01*
X69262990Y-132035001D01*
X69303998Y-132039040D01*
X69345006Y-132035001D01*
X74854134Y-132035001D01*
X77665001Y-134845869D01*
X77665000Y-137386715D01*
X77582795Y-137509744D01*
X77504774Y-137698102D01*
X77465000Y-137898061D01*
X77465000Y-138101939D01*
X77504774Y-138301898D01*
X77582795Y-138490256D01*
X77696063Y-138659774D01*
X77840226Y-138803937D01*
X78009744Y-138917205D01*
X78198102Y-138995226D01*
X78398061Y-139035000D01*
X78601939Y-139035000D01*
X78801898Y-138995226D01*
X78990256Y-138917205D01*
X79159774Y-138803937D01*
X79303937Y-138659774D01*
X79417205Y-138490256D01*
X79495226Y-138301898D01*
X79535000Y-138101939D01*
X79535000Y-137898061D01*
X79495226Y-137698102D01*
X79417205Y-137509744D01*
X79335000Y-137386715D01*
X79335000Y-136398061D01*
X81965000Y-136398061D01*
X81965000Y-136601939D01*
X82004774Y-136801898D01*
X82082795Y-136990256D01*
X82196063Y-137159774D01*
X82340226Y-137303937D01*
X82509744Y-137417205D01*
X82698102Y-137495226D01*
X82898061Y-137535000D01*
X83101939Y-137535000D01*
X83301898Y-137495226D01*
X83490256Y-137417205D01*
X83659774Y-137303937D01*
X83803937Y-137159774D01*
X83917205Y-136990256D01*
X83995226Y-136801898D01*
X84024093Y-136656775D01*
X84545868Y-136135000D01*
X97154133Y-136135000D01*
X98711415Y-137692283D01*
X98687439Y-137750166D01*
X98615000Y-138114344D01*
X98615000Y-138485656D01*
X98687439Y-138849834D01*
X98829534Y-139192882D01*
X99035825Y-139501618D01*
X99298382Y-139764175D01*
X99607118Y-139970466D01*
X99950166Y-140112561D01*
X100314344Y-140185000D01*
X100685656Y-140185000D01*
X101049834Y-140112561D01*
X101392882Y-139970466D01*
X101701618Y-139764175D01*
X101964175Y-139501618D01*
X102170466Y-139192882D01*
X102312561Y-138849834D01*
X102385000Y-138485656D01*
X102385000Y-138114344D01*
X102312561Y-137750166D01*
X102170466Y-137407118D01*
X101964175Y-137098382D01*
X101701618Y-136835825D01*
X101392882Y-136629534D01*
X101049834Y-136487439D01*
X100685656Y-136415000D01*
X100314344Y-136415000D01*
X99950166Y-136487439D01*
X99892283Y-136511415D01*
X98119446Y-134738579D01*
X98093291Y-134706709D01*
X97966146Y-134602364D01*
X97821087Y-134524828D01*
X97663689Y-134477082D01*
X97541019Y-134465000D01*
X97541018Y-134465000D01*
X97500000Y-134460960D01*
X97458982Y-134465000D01*
X84241007Y-134465000D01*
X84199999Y-134460961D01*
X84158991Y-134465000D01*
X84158981Y-134465000D01*
X84036311Y-134477082D01*
X83878913Y-134524828D01*
X83733854Y-134602364D01*
X83606709Y-134706709D01*
X83580558Y-134738574D01*
X82843225Y-135475907D01*
X82698102Y-135504774D01*
X82509744Y-135582795D01*
X82340226Y-135696063D01*
X82196063Y-135840226D01*
X82082795Y-136009744D01*
X82004774Y-136198102D01*
X81965000Y-136398061D01*
X79335000Y-136398061D01*
X79335000Y-134541007D01*
X79339039Y-134499999D01*
X79335000Y-134458991D01*
X79335000Y-134458981D01*
X79322918Y-134336311D01*
X79275172Y-134178913D01*
X79197636Y-134033854D01*
X79093291Y-133906709D01*
X79061427Y-133880559D01*
X77215868Y-132035001D01*
X78034983Y-132035001D01*
X78076001Y-132039041D01*
X78117019Y-132035001D01*
X78117020Y-132035001D01*
X78239690Y-132022919D01*
X78397088Y-131975173D01*
X78542147Y-131897637D01*
X78669292Y-131793292D01*
X78695447Y-131761422D01*
X80598204Y-129858665D01*
X81565000Y-129858665D01*
X81565000Y-130141335D01*
X81620147Y-130418574D01*
X81728320Y-130679727D01*
X81885363Y-130914759D01*
X82085241Y-131114637D01*
X82320273Y-131271680D01*
X82581426Y-131379853D01*
X82858665Y-131435000D01*
X83141335Y-131435000D01*
X83418574Y-131379853D01*
X83679727Y-131271680D01*
X83914759Y-131114637D01*
X84114637Y-130914759D01*
X84271680Y-130679727D01*
X84379853Y-130418574D01*
X84435000Y-130141335D01*
X84435000Y-129858665D01*
X84379853Y-129581426D01*
X84271680Y-129320273D01*
X84114637Y-129085241D01*
X83914759Y-128885363D01*
X83679727Y-128728320D01*
X83418574Y-128620147D01*
X83141335Y-128565000D01*
X82858665Y-128565000D01*
X82581426Y-128620147D01*
X82320273Y-128728320D01*
X82085241Y-128885363D01*
X81885363Y-129085241D01*
X81728320Y-129320273D01*
X81620147Y-129581426D01*
X81565000Y-129858665D01*
X80598204Y-129858665D01*
X83891871Y-126565000D01*
X87247735Y-126565000D01*
X87410860Y-126728125D01*
X87621324Y-126868753D01*
X87855179Y-126965619D01*
X88103439Y-127015000D01*
X88211928Y-127015000D01*
X88211928Y-127650000D01*
X88224188Y-127774482D01*
X88260498Y-127894180D01*
X88319463Y-128004494D01*
X88398815Y-128101185D01*
X88495506Y-128180537D01*
X88605820Y-128239502D01*
X88725518Y-128275812D01*
X88850000Y-128288072D01*
X89715002Y-128288072D01*
X89715002Y-129661928D01*
X88800000Y-129661928D01*
X88675518Y-129674188D01*
X88555820Y-129710498D01*
X88445506Y-129769463D01*
X88348815Y-129848815D01*
X88269463Y-129945506D01*
X88210498Y-130055820D01*
X88174188Y-130175518D01*
X88161928Y-130300000D01*
X88161928Y-132700000D01*
X88174188Y-132824482D01*
X88210498Y-132944180D01*
X88269463Y-133054494D01*
X88348815Y-133151185D01*
X88445506Y-133230537D01*
X88555820Y-133289502D01*
X88675518Y-133325812D01*
X88800000Y-133338072D01*
X91200000Y-133338072D01*
X91324482Y-133325812D01*
X91444180Y-133289502D01*
X91554494Y-133230537D01*
X91651185Y-133151185D01*
X91730537Y-133054494D01*
X91789502Y-132944180D01*
X91825812Y-132824482D01*
X91838072Y-132700000D01*
X91838072Y-130514344D01*
X98615000Y-130514344D01*
X98615000Y-130885656D01*
X98687439Y-131249834D01*
X98829534Y-131592882D01*
X99035825Y-131901618D01*
X99298382Y-132164175D01*
X99607118Y-132370466D01*
X99950166Y-132512561D01*
X100314344Y-132585000D01*
X100685656Y-132585000D01*
X101049834Y-132512561D01*
X101392882Y-132370466D01*
X101701618Y-132164175D01*
X101964175Y-131901618D01*
X102170466Y-131592882D01*
X102312561Y-131249834D01*
X102385000Y-130885656D01*
X102385000Y-130514344D01*
X102312561Y-130150166D01*
X102170466Y-129807118D01*
X101964175Y-129498382D01*
X101701618Y-129235825D01*
X101392882Y-129029534D01*
X101049834Y-128887439D01*
X100685656Y-128815000D01*
X100314344Y-128815000D01*
X99950166Y-128887439D01*
X99607118Y-129029534D01*
X99298382Y-129235825D01*
X99035825Y-129498382D01*
X98829534Y-129807118D01*
X98687439Y-130150166D01*
X98615000Y-130514344D01*
X91838072Y-130514344D01*
X91838072Y-130300000D01*
X91825812Y-130175518D01*
X91789502Y-130055820D01*
X91730537Y-129945506D01*
X91685001Y-129890020D01*
X91685001Y-125708381D01*
X91689766Y-125660001D01*
X91670748Y-125466907D01*
X91614425Y-125281234D01*
X91522961Y-125110117D01*
X91466291Y-125041064D01*
X91399871Y-124960131D01*
X91362291Y-124929290D01*
X91124230Y-124691229D01*
X101365000Y-124691229D01*
X101365000Y-125308771D01*
X101485476Y-125914446D01*
X101721799Y-126484979D01*
X102064886Y-126998446D01*
X102501554Y-127435114D01*
X103015021Y-127778201D01*
X103585554Y-128014524D01*
X104191229Y-128135000D01*
X104808771Y-128135000D01*
X105414446Y-128014524D01*
X105984979Y-127778201D01*
X106498446Y-127435114D01*
X106935114Y-126998446D01*
X107278201Y-126484979D01*
X107514524Y-125914446D01*
X107635000Y-125308771D01*
X107635000Y-124691229D01*
X107514524Y-124085554D01*
X107278201Y-123515021D01*
X106935114Y-123001554D01*
X106498446Y-122564886D01*
X105984979Y-122221799D01*
X105414446Y-121985476D01*
X104808771Y-121865000D01*
X104191229Y-121865000D01*
X103585554Y-121985476D01*
X103015021Y-122221799D01*
X102501554Y-122564886D01*
X102064886Y-123001554D01*
X101721799Y-123515021D01*
X101485476Y-124085554D01*
X101365000Y-124691229D01*
X91124230Y-124691229D01*
X90785000Y-124352000D01*
X90785000Y-124333439D01*
X90735619Y-124085179D01*
X90638753Y-123851324D01*
X90498125Y-123640860D01*
X90319140Y-123461875D01*
X90108676Y-123321247D01*
X89874821Y-123224381D01*
X89626561Y-123175000D01*
X89373439Y-123175000D01*
X89125179Y-123224381D01*
X88891324Y-123321247D01*
X88680860Y-123461875D01*
X88501875Y-123640860D01*
X88361247Y-123851324D01*
X88264381Y-124085179D01*
X88215000Y-124333439D01*
X88215000Y-124445000D01*
X88103439Y-124445000D01*
X87855179Y-124494381D01*
X87621324Y-124591247D01*
X87410860Y-124731875D01*
X87247735Y-124895000D01*
X84381002Y-124895000D01*
X84381002Y-122967009D01*
X84385041Y-122926001D01*
X84381002Y-122884993D01*
X84381002Y-122884983D01*
X84373906Y-122812932D01*
X84379853Y-122798574D01*
X84435000Y-122521335D01*
X84435000Y-122238665D01*
X84379853Y-121961426D01*
X84271680Y-121700273D01*
X84244771Y-121660000D01*
X104467722Y-121660000D01*
X105148126Y-121726714D01*
X105771572Y-121914943D01*
X106346579Y-122220681D01*
X106851247Y-122632279D01*
X107266362Y-123134067D01*
X107576105Y-123706924D01*
X107768682Y-124329039D01*
X107840001Y-125007594D01*
X107840000Y-142747691D01*
X107683519Y-142536586D01*
X107475131Y-142347615D01*
X107233881Y-142202930D01*
X106969040Y-142108091D01*
X106747000Y-142229376D01*
X106747000Y-143373000D01*
X106767000Y-143373000D01*
X106767000Y-143627000D01*
X106747000Y-143627000D01*
X106747000Y-144770624D01*
X106969040Y-144891909D01*
X107233881Y-144797070D01*
X107475131Y-144652385D01*
X107683519Y-144463414D01*
X107840000Y-144252310D01*
X107840000Y-146967721D01*
X107773286Y-147648126D01*
X107585057Y-148271570D01*
X107279323Y-148846573D01*
X106867721Y-149351248D01*
X106365933Y-149766362D01*
X105793077Y-150076104D01*
X105170961Y-150268682D01*
X104492417Y-150340000D01*
X95257072Y-150340000D01*
X95414759Y-150234637D01*
X95614637Y-150034759D01*
X95771680Y-149799727D01*
X95879853Y-149538574D01*
X95935000Y-149261335D01*
X95935000Y-148978665D01*
X95879853Y-148701426D01*
X95771680Y-148440273D01*
X95614637Y-148205241D01*
X95414759Y-148005363D01*
X95179727Y-147848320D01*
X94918574Y-147740147D01*
X94641335Y-147685000D01*
X94358665Y-147685000D01*
X94081426Y-147740147D01*
X93820273Y-147848320D01*
X93585241Y-148005363D01*
X93385363Y-148205241D01*
X93228320Y-148440273D01*
X93120147Y-148701426D01*
X93065000Y-148978665D01*
X93065000Y-149261335D01*
X93120147Y-149538574D01*
X93228320Y-149799727D01*
X93385363Y-150034759D01*
X93585241Y-150234637D01*
X93742928Y-150340000D01*
X83757072Y-150340000D01*
X83914759Y-150234637D01*
X84114637Y-150034759D01*
X84271680Y-149799727D01*
X84379853Y-149538574D01*
X84435000Y-149261335D01*
X84435000Y-148978665D01*
X84379853Y-148701426D01*
X84271680Y-148440273D01*
X84114637Y-148205241D01*
X83914759Y-148005363D01*
X83679727Y-147848320D01*
X83418574Y-147740147D01*
X83141335Y-147685000D01*
X82858665Y-147685000D01*
X82581426Y-147740147D01*
X82320273Y-147848320D01*
X82085241Y-148005363D01*
X81885363Y-148205241D01*
X81728320Y-148440273D01*
X81620147Y-148701426D01*
X81565000Y-148978665D01*
X81565000Y-149261335D01*
X81620147Y-149538574D01*
X81728320Y-149799727D01*
X81885363Y-150034759D01*
X82085241Y-150234637D01*
X82242928Y-150340000D01*
X40029392Y-150340000D01*
X39231917Y-150268827D01*
X38488110Y-150065344D01*
X37792096Y-149733363D01*
X37258590Y-149350000D01*
X50891928Y-149350000D01*
X50904188Y-149474482D01*
X50940498Y-149594180D01*
X50999463Y-149704494D01*
X51078815Y-149801185D01*
X51175506Y-149880537D01*
X51285820Y-149939502D01*
X51405518Y-149975812D01*
X51530000Y-149988072D01*
X52094250Y-149985000D01*
X52253000Y-149826250D01*
X52253000Y-148627000D01*
X52507000Y-148627000D01*
X52507000Y-149826250D01*
X52665750Y-149985000D01*
X53230000Y-149988072D01*
X53354482Y-149975812D01*
X53474180Y-149939502D01*
X53584494Y-149880537D01*
X53681185Y-149801185D01*
X53760537Y-149704494D01*
X53819502Y-149594180D01*
X53843966Y-149513534D01*
X53919731Y-149597588D01*
X54153080Y-149771641D01*
X54415901Y-149896825D01*
X54563110Y-149941476D01*
X54793000Y-149820155D01*
X54793000Y-148627000D01*
X55047000Y-148627000D01*
X55047000Y-149820155D01*
X55276890Y-149941476D01*
X55424099Y-149896825D01*
X55686920Y-149771641D01*
X55920269Y-149597588D01*
X56115178Y-149381355D01*
X56190000Y-149255745D01*
X56264822Y-149381355D01*
X56459731Y-149597588D01*
X56693080Y-149771641D01*
X56955901Y-149896825D01*
X57103110Y-149941476D01*
X57333000Y-149820155D01*
X57333000Y-148627000D01*
X57587000Y-148627000D01*
X57587000Y-149820155D01*
X57816890Y-149941476D01*
X57964099Y-149896825D01*
X58226920Y-149771641D01*
X58460269Y-149597588D01*
X58655178Y-149381355D01*
X58730000Y-149255745D01*
X58804822Y-149381355D01*
X58999731Y-149597588D01*
X59233080Y-149771641D01*
X59495901Y-149896825D01*
X59643110Y-149941476D01*
X59873000Y-149820155D01*
X59873000Y-148627000D01*
X60127000Y-148627000D01*
X60127000Y-149820155D01*
X60356890Y-149941476D01*
X60504099Y-149896825D01*
X60766920Y-149771641D01*
X61000269Y-149597588D01*
X61195178Y-149381355D01*
X61270000Y-149255745D01*
X61344822Y-149381355D01*
X61539731Y-149597588D01*
X61773080Y-149771641D01*
X62035901Y-149896825D01*
X62183110Y-149941476D01*
X62413000Y-149820155D01*
X62413000Y-148627000D01*
X62667000Y-148627000D01*
X62667000Y-149820155D01*
X62896890Y-149941476D01*
X63044099Y-149896825D01*
X63306920Y-149771641D01*
X63540269Y-149597588D01*
X63735178Y-149381355D01*
X63884157Y-149131252D01*
X63981481Y-148856891D01*
X63860814Y-148627000D01*
X62667000Y-148627000D01*
X62413000Y-148627000D01*
X60127000Y-148627000D01*
X59873000Y-148627000D01*
X57587000Y-148627000D01*
X57333000Y-148627000D01*
X55047000Y-148627000D01*
X54793000Y-148627000D01*
X52507000Y-148627000D01*
X52253000Y-148627000D01*
X51053750Y-148627000D01*
X50895000Y-148785750D01*
X50891928Y-149350000D01*
X37258590Y-149350000D01*
X37165870Y-149283374D01*
X36629223Y-148729597D01*
X36199129Y-148089549D01*
X35889171Y-147383447D01*
X35707935Y-146628543D01*
X35660000Y-145975793D01*
X35660000Y-145691229D01*
X36865000Y-145691229D01*
X36865000Y-146308771D01*
X36985476Y-146914446D01*
X37221799Y-147484979D01*
X37564886Y-147998446D01*
X38001554Y-148435114D01*
X38515021Y-148778201D01*
X39085554Y-149014524D01*
X39691229Y-149135000D01*
X40308771Y-149135000D01*
X40914446Y-149014524D01*
X41484979Y-148778201D01*
X41998446Y-148435114D01*
X42435114Y-147998446D01*
X42667937Y-147650000D01*
X50891928Y-147650000D01*
X50895000Y-148214250D01*
X51053750Y-148373000D01*
X52253000Y-148373000D01*
X52253000Y-148353000D01*
X52507000Y-148353000D01*
X52507000Y-148373000D01*
X54793000Y-148373000D01*
X54793000Y-148353000D01*
X55047000Y-148353000D01*
X55047000Y-148373000D01*
X57333000Y-148373000D01*
X57333000Y-148353000D01*
X57587000Y-148353000D01*
X57587000Y-148373000D01*
X59873000Y-148373000D01*
X59873000Y-148353000D01*
X60127000Y-148353000D01*
X60127000Y-148373000D01*
X62413000Y-148373000D01*
X62413000Y-148353000D01*
X62667000Y-148353000D01*
X62667000Y-148373000D01*
X63860814Y-148373000D01*
X63981481Y-148143109D01*
X63884157Y-147868748D01*
X63735178Y-147618645D01*
X63540269Y-147402412D01*
X63475016Y-147353740D01*
X66975000Y-147353740D01*
X66975000Y-147646260D01*
X67032068Y-147933158D01*
X67144010Y-148203411D01*
X67306525Y-148446632D01*
X67513368Y-148653475D01*
X67756589Y-148815990D01*
X68026842Y-148927932D01*
X68313740Y-148985000D01*
X68606260Y-148985000D01*
X68893158Y-148927932D01*
X69163411Y-148815990D01*
X69406632Y-148653475D01*
X69538487Y-148521620D01*
X69560498Y-148594180D01*
X69619463Y-148704494D01*
X69698815Y-148801185D01*
X69795506Y-148880537D01*
X69905820Y-148939502D01*
X70025518Y-148975812D01*
X70150000Y-148988072D01*
X70714250Y-148985000D01*
X70873000Y-148826250D01*
X70873000Y-147627000D01*
X71127000Y-147627000D01*
X71127000Y-148826250D01*
X71285750Y-148985000D01*
X71850000Y-148988072D01*
X71974482Y-148975812D01*
X72094180Y-148939502D01*
X72204494Y-148880537D01*
X72301185Y-148801185D01*
X72380537Y-148704494D01*
X72439502Y-148594180D01*
X72475812Y-148474482D01*
X72488072Y-148350000D01*
X72485000Y-147785750D01*
X72326250Y-147627000D01*
X71127000Y-147627000D01*
X70873000Y-147627000D01*
X70853000Y-147627000D01*
X70853000Y-147373000D01*
X70873000Y-147373000D01*
X70873000Y-146173750D01*
X71127000Y-146173750D01*
X71127000Y-147373000D01*
X72326250Y-147373000D01*
X72485000Y-147214250D01*
X72488072Y-146650000D01*
X72475812Y-146525518D01*
X72439502Y-146405820D01*
X72380537Y-146295506D01*
X72301185Y-146198815D01*
X72204494Y-146119463D01*
X72094180Y-146060498D01*
X71974482Y-146024188D01*
X71850000Y-146011928D01*
X71285750Y-146015000D01*
X71127000Y-146173750D01*
X70873000Y-146173750D01*
X70714250Y-146015000D01*
X70150000Y-146011928D01*
X70025518Y-146024188D01*
X69905820Y-146060498D01*
X69795506Y-146119463D01*
X69698815Y-146198815D01*
X69619463Y-146295506D01*
X69560498Y-146405820D01*
X69538487Y-146478380D01*
X69406632Y-146346525D01*
X69163411Y-146184010D01*
X68893158Y-146072068D01*
X68606260Y-146015000D01*
X68313740Y-146015000D01*
X68026842Y-146072068D01*
X67756589Y-146184010D01*
X67513368Y-146346525D01*
X67306525Y-146553368D01*
X67144010Y-146796589D01*
X67032068Y-147066842D01*
X66975000Y-147353740D01*
X63475016Y-147353740D01*
X63310594Y-147231100D01*
X63486632Y-147113475D01*
X63693475Y-146906632D01*
X63855990Y-146663411D01*
X63967932Y-146393158D01*
X64025000Y-146106260D01*
X64025000Y-145813740D01*
X63967932Y-145526842D01*
X63855990Y-145256589D01*
X63693475Y-145013368D01*
X63486632Y-144806525D01*
X63243411Y-144644010D01*
X62973158Y-144532068D01*
X62686260Y-144475000D01*
X62393740Y-144475000D01*
X62106842Y-144532068D01*
X61836589Y-144644010D01*
X61593368Y-144806525D01*
X61386525Y-145013368D01*
X61270000Y-145187760D01*
X61153475Y-145013368D01*
X60946632Y-144806525D01*
X60703411Y-144644010D01*
X60433158Y-144532068D01*
X60146260Y-144475000D01*
X59853740Y-144475000D01*
X59566842Y-144532068D01*
X59296589Y-144644010D01*
X59053368Y-144806525D01*
X58846525Y-145013368D01*
X58730000Y-145187760D01*
X58613475Y-145013368D01*
X58406632Y-144806525D01*
X58163411Y-144644010D01*
X57893158Y-144532068D01*
X57606260Y-144475000D01*
X57313740Y-144475000D01*
X57026842Y-144532068D01*
X56756589Y-144644010D01*
X56513368Y-144806525D01*
X56306525Y-145013368D01*
X56190000Y-145187760D01*
X56073475Y-145013368D01*
X55866632Y-144806525D01*
X55623411Y-144644010D01*
X55353158Y-144532068D01*
X55066260Y-144475000D01*
X54773740Y-144475000D01*
X54486842Y-144532068D01*
X54216589Y-144644010D01*
X53973368Y-144806525D01*
X53766525Y-145013368D01*
X53650000Y-145187760D01*
X53533475Y-145013368D01*
X53326632Y-144806525D01*
X53083411Y-144644010D01*
X52813158Y-144532068D01*
X52526260Y-144475000D01*
X52233740Y-144475000D01*
X51946842Y-144532068D01*
X51676589Y-144644010D01*
X51433368Y-144806525D01*
X51226525Y-145013368D01*
X51064010Y-145256589D01*
X50952068Y-145526842D01*
X50895000Y-145813740D01*
X50895000Y-146106260D01*
X50952068Y-146393158D01*
X51064010Y-146663411D01*
X51226525Y-146906632D01*
X51358380Y-147038487D01*
X51285820Y-147060498D01*
X51175506Y-147119463D01*
X51078815Y-147198815D01*
X50999463Y-147295506D01*
X50940498Y-147405820D01*
X50904188Y-147525518D01*
X50891928Y-147650000D01*
X42667937Y-147650000D01*
X42778201Y-147484979D01*
X43014524Y-146914446D01*
X43135000Y-146308771D01*
X43135000Y-145691229D01*
X43014524Y-145085554D01*
X42778201Y-144515021D01*
X42435114Y-144001554D01*
X41998446Y-143564886D01*
X41484979Y-143221799D01*
X40914446Y-142985476D01*
X40308771Y-142865000D01*
X39691229Y-142865000D01*
X39085554Y-142985476D01*
X38515021Y-143221799D01*
X38001554Y-143564886D01*
X37564886Y-144001554D01*
X37221799Y-144515021D01*
X36985476Y-145085554D01*
X36865000Y-145691229D01*
X35660000Y-145691229D01*
X35660000Y-140826000D01*
X37309089Y-140826000D01*
X37340657Y-141146516D01*
X37434148Y-141454715D01*
X37585969Y-141738752D01*
X37790286Y-141987714D01*
X38039248Y-142192031D01*
X38323285Y-142343852D01*
X38631484Y-142437343D01*
X38871678Y-142461000D01*
X41032322Y-142461000D01*
X41272516Y-142437343D01*
X41531883Y-142358665D01*
X46065000Y-142358665D01*
X46065000Y-142641335D01*
X46120147Y-142918574D01*
X46228320Y-143179727D01*
X46385363Y-143414759D01*
X46585241Y-143614637D01*
X46820273Y-143771680D01*
X47081426Y-143879853D01*
X47358665Y-143935000D01*
X47641335Y-143935000D01*
X47918574Y-143879853D01*
X48179727Y-143771680D01*
X48414759Y-143614637D01*
X48614637Y-143414759D01*
X48771680Y-143179727D01*
X48879853Y-142918574D01*
X48935000Y-142641335D01*
X48935000Y-142358665D01*
X51065000Y-142358665D01*
X51065000Y-142641335D01*
X51120147Y-142918574D01*
X51228320Y-143179727D01*
X51385363Y-143414759D01*
X51585241Y-143614637D01*
X51820273Y-143771680D01*
X52081426Y-143879853D01*
X52358665Y-143935000D01*
X52641335Y-143935000D01*
X52918574Y-143879853D01*
X53179727Y-143771680D01*
X53414759Y-143614637D01*
X53614637Y-143414759D01*
X53771680Y-143179727D01*
X53879853Y-142918574D01*
X53935000Y-142641335D01*
X53935000Y-142358665D01*
X56065000Y-142358665D01*
X56065000Y-142641335D01*
X56120147Y-142918574D01*
X56228320Y-143179727D01*
X56385363Y-143414759D01*
X56585241Y-143614637D01*
X56820273Y-143771680D01*
X57081426Y-143879853D01*
X57358665Y-143935000D01*
X57641335Y-143935000D01*
X57918574Y-143879853D01*
X58179727Y-143771680D01*
X58414759Y-143614637D01*
X58614637Y-143414759D01*
X58771680Y-143179727D01*
X58879853Y-142918574D01*
X58935000Y-142641335D01*
X58935000Y-142358665D01*
X61065000Y-142358665D01*
X61065000Y-142641335D01*
X61120147Y-142918574D01*
X61228320Y-143179727D01*
X61385363Y-143414759D01*
X61585241Y-143614637D01*
X61820273Y-143771680D01*
X62081426Y-143879853D01*
X62358665Y-143935000D01*
X62641335Y-143935000D01*
X62918574Y-143879853D01*
X63179727Y-143771680D01*
X63414759Y-143614637D01*
X63614637Y-143414759D01*
X63771680Y-143179727D01*
X63879853Y-142918574D01*
X63935000Y-142641335D01*
X63935000Y-142358665D01*
X66065000Y-142358665D01*
X66065000Y-142641335D01*
X66120147Y-142918574D01*
X66228320Y-143179727D01*
X66385363Y-143414759D01*
X66585241Y-143614637D01*
X66820273Y-143771680D01*
X67081426Y-143879853D01*
X67358665Y-143935000D01*
X67641335Y-143935000D01*
X67918574Y-143879853D01*
X68179727Y-143771680D01*
X68414759Y-143614637D01*
X68614637Y-143414759D01*
X68771680Y-143179727D01*
X68879853Y-142918574D01*
X68935000Y-142641335D01*
X68935000Y-142358665D01*
X68879853Y-142081426D01*
X68771680Y-141820273D01*
X68614637Y-141585241D01*
X68414759Y-141385363D01*
X68179727Y-141228320D01*
X67918574Y-141120147D01*
X67641335Y-141065000D01*
X67358665Y-141065000D01*
X67081426Y-141120147D01*
X66820273Y-141228320D01*
X66585241Y-141385363D01*
X66385363Y-141585241D01*
X66228320Y-141820273D01*
X66120147Y-142081426D01*
X66065000Y-142358665D01*
X63935000Y-142358665D01*
X63879853Y-142081426D01*
X63771680Y-141820273D01*
X63614637Y-141585241D01*
X63414759Y-141385363D01*
X63179727Y-141228320D01*
X62918574Y-141120147D01*
X62641335Y-141065000D01*
X62358665Y-141065000D01*
X62081426Y-141120147D01*
X61820273Y-141228320D01*
X61585241Y-141385363D01*
X61385363Y-141585241D01*
X61228320Y-141820273D01*
X61120147Y-142081426D01*
X61065000Y-142358665D01*
X58935000Y-142358665D01*
X58879853Y-142081426D01*
X58771680Y-141820273D01*
X58614637Y-141585241D01*
X58414759Y-141385363D01*
X58179727Y-141228320D01*
X57918574Y-141120147D01*
X57641335Y-141065000D01*
X57358665Y-141065000D01*
X57081426Y-141120147D01*
X56820273Y-141228320D01*
X56585241Y-141385363D01*
X56385363Y-141585241D01*
X56228320Y-141820273D01*
X56120147Y-142081426D01*
X56065000Y-142358665D01*
X53935000Y-142358665D01*
X53879853Y-142081426D01*
X53771680Y-141820273D01*
X53614637Y-141585241D01*
X53414759Y-141385363D01*
X53179727Y-141228320D01*
X52918574Y-141120147D01*
X52641335Y-141065000D01*
X52358665Y-141065000D01*
X52081426Y-141120147D01*
X51820273Y-141228320D01*
X51585241Y-141385363D01*
X51385363Y-141585241D01*
X51228320Y-141820273D01*
X51120147Y-142081426D01*
X51065000Y-142358665D01*
X48935000Y-142358665D01*
X48879853Y-142081426D01*
X48771680Y-141820273D01*
X48614637Y-141585241D01*
X48414759Y-141385363D01*
X48179727Y-141228320D01*
X47918574Y-141120147D01*
X47641335Y-141065000D01*
X47358665Y-141065000D01*
X47081426Y-141120147D01*
X46820273Y-141228320D01*
X46585241Y-141385363D01*
X46385363Y-141585241D01*
X46228320Y-141820273D01*
X46120147Y-142081426D01*
X46065000Y-142358665D01*
X41531883Y-142358665D01*
X41580715Y-142343852D01*
X41864752Y-142192031D01*
X42113714Y-141987714D01*
X42318031Y-141738752D01*
X42469852Y-141454715D01*
X42563343Y-141146516D01*
X42594911Y-140826000D01*
X42563343Y-140505484D01*
X42469852Y-140197285D01*
X42318031Y-139913248D01*
X42113714Y-139664286D01*
X41864752Y-139459969D01*
X41580715Y-139308148D01*
X41272516Y-139214657D01*
X41032322Y-139191000D01*
X38871678Y-139191000D01*
X38631484Y-139214657D01*
X38323285Y-139308148D01*
X38039248Y-139459969D01*
X37790286Y-139664286D01*
X37585969Y-139913248D01*
X37434148Y-140197285D01*
X37340657Y-140505484D01*
X37309089Y-140826000D01*
X35660000Y-140826000D01*
X35660000Y-138060743D01*
X35837683Y-138245922D01*
X36101239Y-138430010D01*
X36395645Y-138559144D01*
X36523566Y-138590124D01*
X36777000Y-138470777D01*
X36777000Y-136127000D01*
X37031000Y-136127000D01*
X37031000Y-138470777D01*
X37284434Y-138590124D01*
X37412355Y-138559144D01*
X37706761Y-138430010D01*
X37970317Y-138245922D01*
X38192895Y-138013954D01*
X38365942Y-137743020D01*
X38482807Y-137443532D01*
X38502905Y-137330321D01*
X41365000Y-137330321D01*
X41388657Y-137570515D01*
X41482148Y-137878714D01*
X41633969Y-138162751D01*
X41838286Y-138411714D01*
X42087248Y-138616031D01*
X42371285Y-138767852D01*
X42679484Y-138861343D01*
X43000000Y-138892911D01*
X43320515Y-138861343D01*
X43628714Y-138767852D01*
X43912751Y-138616031D01*
X44161714Y-138411714D01*
X44366031Y-138162752D01*
X44517852Y-137878715D01*
X44611343Y-137570516D01*
X44635000Y-137330322D01*
X44635000Y-134738665D01*
X46065000Y-134738665D01*
X46065000Y-135021335D01*
X46120147Y-135298574D01*
X46228320Y-135559727D01*
X46385363Y-135794759D01*
X46585241Y-135994637D01*
X46820273Y-136151680D01*
X47081426Y-136259853D01*
X47358665Y-136315000D01*
X47641335Y-136315000D01*
X47918574Y-136259853D01*
X48179727Y-136151680D01*
X48414759Y-135994637D01*
X48614637Y-135794759D01*
X48771680Y-135559727D01*
X48879853Y-135298574D01*
X48935000Y-135021335D01*
X48935000Y-134738665D01*
X51065000Y-134738665D01*
X51065000Y-135021335D01*
X51120147Y-135298574D01*
X51228320Y-135559727D01*
X51385363Y-135794759D01*
X51585241Y-135994637D01*
X51820273Y-136151680D01*
X52081426Y-136259853D01*
X52358665Y-136315000D01*
X52641335Y-136315000D01*
X52918574Y-136259853D01*
X53179727Y-136151680D01*
X53414759Y-135994637D01*
X53614637Y-135794759D01*
X53771680Y-135559727D01*
X53879853Y-135298574D01*
X53935000Y-135021335D01*
X53935000Y-134738665D01*
X56065000Y-134738665D01*
X56065000Y-135021335D01*
X56120147Y-135298574D01*
X56228320Y-135559727D01*
X56385363Y-135794759D01*
X56585241Y-135994637D01*
X56820273Y-136151680D01*
X57081426Y-136259853D01*
X57358665Y-136315000D01*
X57641335Y-136315000D01*
X57918574Y-136259853D01*
X58179727Y-136151680D01*
X58414759Y-135994637D01*
X58614637Y-135794759D01*
X58771680Y-135559727D01*
X58879853Y-135298574D01*
X58935000Y-135021335D01*
X58935000Y-134738665D01*
X61065000Y-134738665D01*
X61065000Y-135021335D01*
X61120147Y-135298574D01*
X61228320Y-135559727D01*
X61385363Y-135794759D01*
X61585241Y-135994637D01*
X61820273Y-136151680D01*
X62081426Y-136259853D01*
X62358665Y-136315000D01*
X62641335Y-136315000D01*
X62918574Y-136259853D01*
X63179727Y-136151680D01*
X63414759Y-135994637D01*
X63614637Y-135794759D01*
X63771680Y-135559727D01*
X63879853Y-135298574D01*
X63935000Y-135021335D01*
X63935000Y-134738665D01*
X66065000Y-134738665D01*
X66065000Y-135021335D01*
X66120147Y-135298574D01*
X66228320Y-135559727D01*
X66385363Y-135794759D01*
X66585241Y-135994637D01*
X66820273Y-136151680D01*
X67081426Y-136259853D01*
X67358665Y-136315000D01*
X67641335Y-136315000D01*
X67918574Y-136259853D01*
X68179727Y-136151680D01*
X68414759Y-135994637D01*
X68614637Y-135794759D01*
X68771680Y-135559727D01*
X68879853Y-135298574D01*
X68935000Y-135021335D01*
X68935000Y-134738665D01*
X68879853Y-134461426D01*
X68771680Y-134200273D01*
X68614637Y-133965241D01*
X68547457Y-133898061D01*
X69965000Y-133898061D01*
X69965000Y-134101939D01*
X70004774Y-134301898D01*
X70082795Y-134490256D01*
X70165000Y-134613285D01*
X70165001Y-142458971D01*
X70160960Y-142500000D01*
X70177082Y-142663688D01*
X70224828Y-142821086D01*
X70276937Y-142918574D01*
X70302365Y-142966146D01*
X70406710Y-143093291D01*
X70438574Y-143119441D01*
X74961928Y-147642797D01*
X74961928Y-148900000D01*
X74974188Y-149024482D01*
X75010498Y-149144180D01*
X75069463Y-149254494D01*
X75148815Y-149351185D01*
X75245506Y-149430537D01*
X75355820Y-149489502D01*
X75475518Y-149525812D01*
X75600000Y-149538072D01*
X77400000Y-149538072D01*
X77524482Y-149525812D01*
X77644180Y-149489502D01*
X77754494Y-149430537D01*
X77851185Y-149351185D01*
X77930537Y-149254494D01*
X77989502Y-149144180D01*
X77995056Y-149125873D01*
X78061495Y-149192312D01*
X78312905Y-149360299D01*
X78592257Y-149476011D01*
X78888816Y-149535000D01*
X79191184Y-149535000D01*
X79487743Y-149476011D01*
X79767095Y-149360299D01*
X80018505Y-149192312D01*
X80232312Y-148978505D01*
X80400299Y-148727095D01*
X80516011Y-148447743D01*
X80575000Y-148151184D01*
X80575000Y-147848816D01*
X80516011Y-147552257D01*
X80400299Y-147272905D01*
X80284768Y-147100000D01*
X86461928Y-147100000D01*
X86461928Y-148900000D01*
X86474188Y-149024482D01*
X86510498Y-149144180D01*
X86569463Y-149254494D01*
X86648815Y-149351185D01*
X86745506Y-149430537D01*
X86855820Y-149489502D01*
X86975518Y-149525812D01*
X87100000Y-149538072D01*
X88900000Y-149538072D01*
X89024482Y-149525812D01*
X89144180Y-149489502D01*
X89254494Y-149430537D01*
X89351185Y-149351185D01*
X89430537Y-149254494D01*
X89489502Y-149144180D01*
X89495056Y-149125873D01*
X89561495Y-149192312D01*
X89812905Y-149360299D01*
X90092257Y-149476011D01*
X90388816Y-149535000D01*
X90691184Y-149535000D01*
X90987743Y-149476011D01*
X91267095Y-149360299D01*
X91518505Y-149192312D01*
X91732312Y-148978505D01*
X91900299Y-148727095D01*
X92016011Y-148447743D01*
X92075000Y-148151184D01*
X92075000Y-147848816D01*
X92016011Y-147552257D01*
X91933783Y-147353740D01*
X97975000Y-147353740D01*
X97975000Y-147646260D01*
X98032068Y-147933158D01*
X98144010Y-148203411D01*
X98306525Y-148446632D01*
X98513368Y-148653475D01*
X98756589Y-148815990D01*
X99026842Y-148927932D01*
X99313740Y-148985000D01*
X99606260Y-148985000D01*
X99893158Y-148927932D01*
X100163411Y-148815990D01*
X100406632Y-148653475D01*
X100538487Y-148521620D01*
X100560498Y-148594180D01*
X100619463Y-148704494D01*
X100698815Y-148801185D01*
X100795506Y-148880537D01*
X100905820Y-148939502D01*
X101025518Y-148975812D01*
X101150000Y-148988072D01*
X102850000Y-148988072D01*
X102974482Y-148975812D01*
X103094180Y-148939502D01*
X103204494Y-148880537D01*
X103301185Y-148801185D01*
X103380537Y-148704494D01*
X103439502Y-148594180D01*
X103475812Y-148474482D01*
X103488072Y-148350000D01*
X103488072Y-146650000D01*
X103475812Y-146525518D01*
X103439502Y-146405820D01*
X103380537Y-146295506D01*
X103301185Y-146198815D01*
X103204494Y-146119463D01*
X103094180Y-146060498D01*
X102974482Y-146024188D01*
X102850000Y-146011928D01*
X101150000Y-146011928D01*
X101025518Y-146024188D01*
X100905820Y-146060498D01*
X100795506Y-146119463D01*
X100698815Y-146198815D01*
X100619463Y-146295506D01*
X100560498Y-146405820D01*
X100538487Y-146478380D01*
X100406632Y-146346525D01*
X100163411Y-146184010D01*
X99893158Y-146072068D01*
X99606260Y-146015000D01*
X99313740Y-146015000D01*
X99026842Y-146072068D01*
X98756589Y-146184010D01*
X98513368Y-146346525D01*
X98306525Y-146553368D01*
X98144010Y-146796589D01*
X98032068Y-147066842D01*
X97975000Y-147353740D01*
X91933783Y-147353740D01*
X91900299Y-147272905D01*
X91732312Y-147021495D01*
X91518505Y-146807688D01*
X91267095Y-146639701D01*
X90987743Y-146523989D01*
X90691184Y-146465000D01*
X90388816Y-146465000D01*
X90092257Y-146523989D01*
X89812905Y-146639701D01*
X89561495Y-146807688D01*
X89495056Y-146874127D01*
X89489502Y-146855820D01*
X89430537Y-146745506D01*
X89351185Y-146648815D01*
X89254494Y-146569463D01*
X89144180Y-146510498D01*
X89024482Y-146474188D01*
X88900000Y-146461928D01*
X87100000Y-146461928D01*
X86975518Y-146474188D01*
X86855820Y-146510498D01*
X86745506Y-146569463D01*
X86648815Y-146648815D01*
X86569463Y-146745506D01*
X86510498Y-146855820D01*
X86474188Y-146975518D01*
X86461928Y-147100000D01*
X80284768Y-147100000D01*
X80232312Y-147021495D01*
X80018505Y-146807688D01*
X79767095Y-146639701D01*
X79487743Y-146523989D01*
X79191184Y-146465000D01*
X78888816Y-146465000D01*
X78592257Y-146523989D01*
X78312905Y-146639701D01*
X78061495Y-146807688D01*
X77995056Y-146874127D01*
X77989502Y-146855820D01*
X77930537Y-146745506D01*
X77851185Y-146648815D01*
X77754494Y-146569463D01*
X77644180Y-146510498D01*
X77524482Y-146474188D01*
X77400000Y-146461928D01*
X76142797Y-146461928D01*
X74346401Y-144665533D01*
X74515021Y-144778201D01*
X75085554Y-145014524D01*
X75691229Y-145135000D01*
X76308771Y-145135000D01*
X76914446Y-145014524D01*
X77484979Y-144778201D01*
X77998446Y-144435114D01*
X78435114Y-143998446D01*
X78778201Y-143484979D01*
X79014524Y-142914446D01*
X79135000Y-142308771D01*
X79135000Y-141691229D01*
X79068850Y-141358665D01*
X81565000Y-141358665D01*
X81565000Y-141641335D01*
X81620147Y-141918574D01*
X81728320Y-142179727D01*
X81885363Y-142414759D01*
X82085241Y-142614637D01*
X82320273Y-142771680D01*
X82581426Y-142879853D01*
X82858665Y-142935000D01*
X83141335Y-142935000D01*
X83418574Y-142879853D01*
X83679727Y-142771680D01*
X83914759Y-142614637D01*
X84114637Y-142414759D01*
X84271680Y-142179727D01*
X84379853Y-141918574D01*
X84435000Y-141641335D01*
X84435000Y-141479268D01*
X88165000Y-141479268D01*
X88165000Y-141840732D01*
X88235518Y-142195250D01*
X88373844Y-142529199D01*
X88574662Y-142829744D01*
X88830256Y-143085338D01*
X89130801Y-143286156D01*
X89464750Y-143424482D01*
X89819268Y-143495000D01*
X90180732Y-143495000D01*
X90535250Y-143424482D01*
X90694146Y-143358665D01*
X97565000Y-143358665D01*
X97565000Y-143641335D01*
X97620147Y-143918574D01*
X97728320Y-144179727D01*
X97885363Y-144414759D01*
X98085241Y-144614637D01*
X98320273Y-144771680D01*
X98581426Y-144879853D01*
X98858665Y-144935000D01*
X99141335Y-144935000D01*
X99418574Y-144879853D01*
X99679727Y-144771680D01*
X99914759Y-144614637D01*
X100114637Y-144414759D01*
X100271680Y-144179727D01*
X100379853Y-143918574D01*
X100393684Y-143849039D01*
X105228096Y-143849039D01*
X105268754Y-143983087D01*
X105388963Y-144237420D01*
X105556481Y-144463414D01*
X105764869Y-144652385D01*
X106006119Y-144797070D01*
X106270960Y-144891909D01*
X106493000Y-144770624D01*
X106493000Y-143627000D01*
X105350085Y-143627000D01*
X105228096Y-143849039D01*
X100393684Y-143849039D01*
X100435000Y-143641335D01*
X100435000Y-143358665D01*
X100393685Y-143150961D01*
X105228096Y-143150961D01*
X105350085Y-143373000D01*
X106493000Y-143373000D01*
X106493000Y-142229376D01*
X106270960Y-142108091D01*
X106006119Y-142202930D01*
X105764869Y-142347615D01*
X105556481Y-142536586D01*
X105388963Y-142762580D01*
X105268754Y-143016913D01*
X105228096Y-143150961D01*
X100393685Y-143150961D01*
X100379853Y-143081426D01*
X100271680Y-142820273D01*
X100114637Y-142585241D01*
X99914759Y-142385363D01*
X99679727Y-142228320D01*
X99418574Y-142120147D01*
X99141335Y-142065000D01*
X98858665Y-142065000D01*
X98581426Y-142120147D01*
X98320273Y-142228320D01*
X98085241Y-142385363D01*
X97885363Y-142585241D01*
X97728320Y-142820273D01*
X97620147Y-143081426D01*
X97565000Y-143358665D01*
X90694146Y-143358665D01*
X90869199Y-143286156D01*
X91169744Y-143085338D01*
X91425338Y-142829744D01*
X91626156Y-142529199D01*
X91764482Y-142195250D01*
X91835000Y-141840732D01*
X91835000Y-141479268D01*
X91811011Y-141358665D01*
X93065000Y-141358665D01*
X93065000Y-141641335D01*
X93120147Y-141918574D01*
X93228320Y-142179727D01*
X93385363Y-142414759D01*
X93585241Y-142614637D01*
X93820273Y-142771680D01*
X94081426Y-142879853D01*
X94358665Y-142935000D01*
X94641335Y-142935000D01*
X94918574Y-142879853D01*
X95179727Y-142771680D01*
X95414759Y-142614637D01*
X95614637Y-142414759D01*
X95771680Y-142179727D01*
X95879853Y-141918574D01*
X95935000Y-141641335D01*
X95935000Y-141358665D01*
X95879853Y-141081426D01*
X95771680Y-140820273D01*
X95614637Y-140585241D01*
X95414759Y-140385363D01*
X95179727Y-140228320D01*
X94918574Y-140120147D01*
X94641335Y-140065000D01*
X94358665Y-140065000D01*
X94081426Y-140120147D01*
X93820273Y-140228320D01*
X93585241Y-140385363D01*
X93385363Y-140585241D01*
X93228320Y-140820273D01*
X93120147Y-141081426D01*
X93065000Y-141358665D01*
X91811011Y-141358665D01*
X91764482Y-141124750D01*
X91626156Y-140790801D01*
X91425338Y-140490256D01*
X91169744Y-140234662D01*
X90869199Y-140033844D01*
X90535250Y-139895518D01*
X90180732Y-139825000D01*
X89819268Y-139825000D01*
X89464750Y-139895518D01*
X89130801Y-140033844D01*
X88830256Y-140234662D01*
X88574662Y-140490256D01*
X88373844Y-140790801D01*
X88235518Y-141124750D01*
X88165000Y-141479268D01*
X84435000Y-141479268D01*
X84435000Y-141358665D01*
X84379853Y-141081426D01*
X84271680Y-140820273D01*
X84114637Y-140585241D01*
X83914759Y-140385363D01*
X83679727Y-140228320D01*
X83418574Y-140120147D01*
X83141335Y-140065000D01*
X82858665Y-140065000D01*
X82581426Y-140120147D01*
X82320273Y-140228320D01*
X82085241Y-140385363D01*
X81885363Y-140585241D01*
X81728320Y-140820273D01*
X81620147Y-141081426D01*
X81565000Y-141358665D01*
X79068850Y-141358665D01*
X79014524Y-141085554D01*
X78778201Y-140515021D01*
X78435114Y-140001554D01*
X77998446Y-139564886D01*
X77484979Y-139221799D01*
X76914446Y-138985476D01*
X76308771Y-138865000D01*
X75691229Y-138865000D01*
X75085554Y-138985476D01*
X74515021Y-139221799D01*
X74001554Y-139564886D01*
X73564886Y-140001554D01*
X73221799Y-140515021D01*
X72985476Y-141085554D01*
X72865000Y-141691229D01*
X72865000Y-142308771D01*
X72985476Y-142914446D01*
X73221799Y-143484979D01*
X73334468Y-143653600D01*
X71835000Y-142154133D01*
X71835000Y-135070512D01*
X72559783Y-135070512D01*
X72601213Y-135350130D01*
X72696397Y-135616292D01*
X72761616Y-135738309D01*
X72748815Y-135748815D01*
X72669463Y-135845506D01*
X72610498Y-135955820D01*
X72574188Y-136075518D01*
X72561928Y-136200000D01*
X72561928Y-137800000D01*
X72574188Y-137924482D01*
X72610498Y-138044180D01*
X72669463Y-138154494D01*
X72748815Y-138251185D01*
X72845506Y-138330537D01*
X72955820Y-138389502D01*
X73075518Y-138425812D01*
X73200000Y-138438072D01*
X74800000Y-138438072D01*
X74924482Y-138425812D01*
X75044180Y-138389502D01*
X75154494Y-138330537D01*
X75251185Y-138251185D01*
X75330537Y-138154494D01*
X75389502Y-138044180D01*
X75425812Y-137924482D01*
X75438072Y-137800000D01*
X75438072Y-136200000D01*
X75425812Y-136075518D01*
X75389502Y-135955820D01*
X75330537Y-135845506D01*
X75251185Y-135748815D01*
X75238242Y-135738193D01*
X75357571Y-135486004D01*
X75426300Y-135211816D01*
X75440217Y-134929488D01*
X75398787Y-134649870D01*
X75303603Y-134383708D01*
X75236671Y-134258486D01*
X74992702Y-134186903D01*
X74179605Y-135000000D01*
X74193748Y-135014143D01*
X74014143Y-135193748D01*
X74000000Y-135179605D01*
X73985858Y-135193748D01*
X73806253Y-135014143D01*
X73820395Y-135000000D01*
X73007298Y-134186903D01*
X72763329Y-134258486D01*
X72642429Y-134513996D01*
X72573700Y-134788184D01*
X72559783Y-135070512D01*
X71835000Y-135070512D01*
X71835000Y-134613285D01*
X71917205Y-134490256D01*
X71995226Y-134301898D01*
X72035000Y-134101939D01*
X72035000Y-134007298D01*
X73186903Y-134007298D01*
X74000000Y-134820395D01*
X74813097Y-134007298D01*
X74741514Y-133763329D01*
X74486004Y-133642429D01*
X74211816Y-133573700D01*
X73929488Y-133559783D01*
X73649870Y-133601213D01*
X73383708Y-133696397D01*
X73258486Y-133763329D01*
X73186903Y-134007298D01*
X72035000Y-134007298D01*
X72035000Y-133898061D01*
X71995226Y-133698102D01*
X71917205Y-133509744D01*
X71803937Y-133340226D01*
X71659774Y-133196063D01*
X71490256Y-133082795D01*
X71301898Y-133004774D01*
X71101939Y-132965000D01*
X70898061Y-132965000D01*
X70698102Y-133004774D01*
X70509744Y-133082795D01*
X70340226Y-133196063D01*
X70196063Y-133340226D01*
X70082795Y-133509744D01*
X70004774Y-133698102D01*
X69965000Y-133898061D01*
X68547457Y-133898061D01*
X68414759Y-133765363D01*
X68179727Y-133608320D01*
X67918574Y-133500147D01*
X67641335Y-133445000D01*
X67358665Y-133445000D01*
X67081426Y-133500147D01*
X66820273Y-133608320D01*
X66585241Y-133765363D01*
X66385363Y-133965241D01*
X66228320Y-134200273D01*
X66120147Y-134461426D01*
X66065000Y-134738665D01*
X63935000Y-134738665D01*
X63879853Y-134461426D01*
X63771680Y-134200273D01*
X63614637Y-133965241D01*
X63414759Y-133765363D01*
X63179727Y-133608320D01*
X62918574Y-133500147D01*
X62641335Y-133445000D01*
X62358665Y-133445000D01*
X62081426Y-133500147D01*
X61820273Y-133608320D01*
X61585241Y-133765363D01*
X61385363Y-133965241D01*
X61228320Y-134200273D01*
X61120147Y-134461426D01*
X61065000Y-134738665D01*
X58935000Y-134738665D01*
X58879853Y-134461426D01*
X58771680Y-134200273D01*
X58614637Y-133965241D01*
X58414759Y-133765363D01*
X58179727Y-133608320D01*
X57918574Y-133500147D01*
X57641335Y-133445000D01*
X57358665Y-133445000D01*
X57081426Y-133500147D01*
X56820273Y-133608320D01*
X56585241Y-133765363D01*
X56385363Y-133965241D01*
X56228320Y-134200273D01*
X56120147Y-134461426D01*
X56065000Y-134738665D01*
X53935000Y-134738665D01*
X53879853Y-134461426D01*
X53771680Y-134200273D01*
X53614637Y-133965241D01*
X53414759Y-133765363D01*
X53179727Y-133608320D01*
X52918574Y-133500147D01*
X52641335Y-133445000D01*
X52358665Y-133445000D01*
X52081426Y-133500147D01*
X51820273Y-133608320D01*
X51585241Y-133765363D01*
X51385363Y-133965241D01*
X51228320Y-134200273D01*
X51120147Y-134461426D01*
X51065000Y-134738665D01*
X48935000Y-134738665D01*
X48879853Y-134461426D01*
X48771680Y-134200273D01*
X48614637Y-133965241D01*
X48414759Y-133765363D01*
X48179727Y-133608320D01*
X47918574Y-133500147D01*
X47641335Y-133445000D01*
X47358665Y-133445000D01*
X47081426Y-133500147D01*
X46820273Y-133608320D01*
X46585241Y-133765363D01*
X46385363Y-133965241D01*
X46228320Y-134200273D01*
X46120147Y-134461426D01*
X46065000Y-134738665D01*
X44635000Y-134738665D01*
X44635000Y-134669678D01*
X44611343Y-134429484D01*
X44517852Y-134121285D01*
X44366031Y-133837248D01*
X44161714Y-133588286D01*
X43912752Y-133383969D01*
X43628715Y-133232148D01*
X43320516Y-133138657D01*
X43000000Y-133107089D01*
X42679485Y-133138657D01*
X42371286Y-133232148D01*
X42087249Y-133383969D01*
X41838287Y-133588286D01*
X41633970Y-133837248D01*
X41482149Y-134121285D01*
X41388658Y-134429484D01*
X41365001Y-134669678D01*
X41365000Y-137330321D01*
X38502905Y-137330321D01*
X38539000Y-137127000D01*
X38539000Y-136127000D01*
X37031000Y-136127000D01*
X36777000Y-136127000D01*
X36757000Y-136127000D01*
X36757000Y-135873000D01*
X36777000Y-135873000D01*
X36777000Y-133529223D01*
X37031000Y-133529223D01*
X37031000Y-135873000D01*
X38539000Y-135873000D01*
X38539000Y-134873000D01*
X38482807Y-134556468D01*
X38365942Y-134256980D01*
X38192895Y-133986046D01*
X37970317Y-133754078D01*
X37706761Y-133569990D01*
X37412355Y-133440856D01*
X37284434Y-133409876D01*
X37031000Y-133529223D01*
X36777000Y-133529223D01*
X36523566Y-133409876D01*
X36395645Y-133440856D01*
X36101239Y-133569990D01*
X35837683Y-133754078D01*
X35660000Y-133939257D01*
X35660000Y-130978665D01*
X51065000Y-130978665D01*
X51065000Y-131261335D01*
X51120147Y-131538574D01*
X51228320Y-131799727D01*
X51385363Y-132034759D01*
X51585241Y-132234637D01*
X51820273Y-132391680D01*
X52081426Y-132499853D01*
X52358665Y-132555000D01*
X52641335Y-132555000D01*
X52918574Y-132499853D01*
X53179727Y-132391680D01*
X53414759Y-132234637D01*
X53614637Y-132034759D01*
X53771680Y-131799727D01*
X53879853Y-131538574D01*
X53935000Y-131261335D01*
X53935000Y-130978665D01*
X56065000Y-130978665D01*
X56065000Y-131261335D01*
X56120147Y-131538574D01*
X56228320Y-131799727D01*
X56385363Y-132034759D01*
X56585241Y-132234637D01*
X56820273Y-132391680D01*
X57081426Y-132499853D01*
X57358665Y-132555000D01*
X57641335Y-132555000D01*
X57918574Y-132499853D01*
X58179727Y-132391680D01*
X58414759Y-132234637D01*
X58614637Y-132034759D01*
X58771680Y-131799727D01*
X58879853Y-131538574D01*
X58935000Y-131261335D01*
X58935000Y-130978665D01*
X58879853Y-130701426D01*
X58771680Y-130440273D01*
X58614637Y-130205241D01*
X58414759Y-130005363D01*
X58179727Y-129848320D01*
X57918574Y-129740147D01*
X57641335Y-129685000D01*
X57358665Y-129685000D01*
X57081426Y-129740147D01*
X56820273Y-129848320D01*
X56585241Y-130005363D01*
X56385363Y-130205241D01*
X56228320Y-130440273D01*
X56120147Y-130701426D01*
X56065000Y-130978665D01*
X53935000Y-130978665D01*
X53879853Y-130701426D01*
X53771680Y-130440273D01*
X53614637Y-130205241D01*
X53414759Y-130005363D01*
X53179727Y-129848320D01*
X52918574Y-129740147D01*
X52641335Y-129685000D01*
X52358665Y-129685000D01*
X52081426Y-129740147D01*
X51820273Y-129848320D01*
X51585241Y-130005363D01*
X51385363Y-130205241D01*
X51228320Y-130440273D01*
X51120147Y-130701426D01*
X51065000Y-130978665D01*
X35660000Y-130978665D01*
X35660000Y-126029392D01*
X35690180Y-125691229D01*
X36865000Y-125691229D01*
X36865000Y-126308771D01*
X36985476Y-126914446D01*
X37221799Y-127484979D01*
X37564886Y-127998446D01*
X38001554Y-128435114D01*
X38515021Y-128778201D01*
X39085554Y-129014524D01*
X39691229Y-129135000D01*
X40308771Y-129135000D01*
X40914446Y-129014524D01*
X41484979Y-128778201D01*
X41998446Y-128435114D01*
X42435114Y-127998446D01*
X42778201Y-127484979D01*
X42949879Y-127070512D01*
X45559783Y-127070512D01*
X45601213Y-127350130D01*
X45696397Y-127616292D01*
X45761616Y-127738309D01*
X45748815Y-127748815D01*
X45669463Y-127845506D01*
X45610498Y-127955820D01*
X45574188Y-128075518D01*
X45561928Y-128200000D01*
X45561928Y-129800000D01*
X45574188Y-129924482D01*
X45610498Y-130044180D01*
X45669463Y-130154494D01*
X45748815Y-130251185D01*
X45845506Y-130330537D01*
X45955820Y-130389502D01*
X46075518Y-130425812D01*
X46200000Y-130438072D01*
X47800000Y-130438072D01*
X47924482Y-130425812D01*
X48044180Y-130389502D01*
X48154494Y-130330537D01*
X48251185Y-130251185D01*
X48330537Y-130154494D01*
X48389502Y-130044180D01*
X48425812Y-129924482D01*
X48438072Y-129800000D01*
X48438072Y-128200000D01*
X48425812Y-128075518D01*
X48389502Y-127955820D01*
X48330537Y-127845506D01*
X48251185Y-127748815D01*
X48238242Y-127738193D01*
X48357571Y-127486004D01*
X48426300Y-127211816D01*
X48440217Y-126929488D01*
X48398787Y-126649870D01*
X48303603Y-126383708D01*
X48236671Y-126258486D01*
X47992702Y-126186903D01*
X47179605Y-127000000D01*
X47193748Y-127014143D01*
X47014143Y-127193748D01*
X47000000Y-127179605D01*
X46985858Y-127193748D01*
X46806253Y-127014143D01*
X46820395Y-127000000D01*
X46007298Y-126186903D01*
X45763329Y-126258486D01*
X45642429Y-126513996D01*
X45573700Y-126788184D01*
X45559783Y-127070512D01*
X42949879Y-127070512D01*
X43014524Y-126914446D01*
X43135000Y-126308771D01*
X43135000Y-126007298D01*
X46186903Y-126007298D01*
X47000000Y-126820395D01*
X47813097Y-126007298D01*
X47741514Y-125763329D01*
X47486004Y-125642429D01*
X47211816Y-125573700D01*
X46929488Y-125559783D01*
X46649870Y-125601213D01*
X46383708Y-125696397D01*
X46258486Y-125763329D01*
X46186903Y-126007298D01*
X43135000Y-126007298D01*
X43135000Y-125691229D01*
X43014524Y-125085554D01*
X42778201Y-124515021D01*
X42435114Y-124001554D01*
X41998446Y-123564886D01*
X41689814Y-123358665D01*
X51065000Y-123358665D01*
X51065000Y-123641335D01*
X51120147Y-123918574D01*
X51228320Y-124179727D01*
X51385363Y-124414759D01*
X51585241Y-124614637D01*
X51820273Y-124771680D01*
X52081426Y-124879853D01*
X52358665Y-124935000D01*
X52641335Y-124935000D01*
X52918574Y-124879853D01*
X53179727Y-124771680D01*
X53414759Y-124614637D01*
X53614637Y-124414759D01*
X53771680Y-124179727D01*
X53879853Y-123918574D01*
X53935000Y-123641335D01*
X53935000Y-123358665D01*
X56065000Y-123358665D01*
X56065000Y-123641335D01*
X56120147Y-123918574D01*
X56228320Y-124179727D01*
X56385363Y-124414759D01*
X56585241Y-124614637D01*
X56820273Y-124771680D01*
X57081426Y-124879853D01*
X57358665Y-124935000D01*
X57641335Y-124935000D01*
X57918574Y-124879853D01*
X58179727Y-124771680D01*
X58414759Y-124614637D01*
X58614637Y-124414759D01*
X58771680Y-124179727D01*
X58879853Y-123918574D01*
X58935000Y-123641335D01*
X58935000Y-123358665D01*
X58879853Y-123081426D01*
X58771680Y-122820273D01*
X58614637Y-122585241D01*
X58414759Y-122385363D01*
X58179727Y-122228320D01*
X57918574Y-122120147D01*
X57641335Y-122065000D01*
X57358665Y-122065000D01*
X57081426Y-122120147D01*
X56820273Y-122228320D01*
X56585241Y-122385363D01*
X56385363Y-122585241D01*
X56228320Y-122820273D01*
X56120147Y-123081426D01*
X56065000Y-123358665D01*
X53935000Y-123358665D01*
X53879853Y-123081426D01*
X53771680Y-122820273D01*
X53614637Y-122585241D01*
X53414759Y-122385363D01*
X53179727Y-122228320D01*
X52918574Y-122120147D01*
X52641335Y-122065000D01*
X52358665Y-122065000D01*
X52081426Y-122120147D01*
X51820273Y-122228320D01*
X51585241Y-122385363D01*
X51385363Y-122585241D01*
X51228320Y-122820273D01*
X51120147Y-123081426D01*
X51065000Y-123358665D01*
X41689814Y-123358665D01*
X41484979Y-123221799D01*
X40914446Y-122985476D01*
X40308771Y-122865000D01*
X39691229Y-122865000D01*
X39085554Y-122985476D01*
X38515021Y-123221799D01*
X38001554Y-123564886D01*
X37564886Y-124001554D01*
X37221799Y-124515021D01*
X36985476Y-125085554D01*
X36865000Y-125691229D01*
X35690180Y-125691229D01*
X35731173Y-125231917D01*
X35934656Y-124488109D01*
X36266638Y-123792095D01*
X36716626Y-123165870D01*
X37270403Y-122629223D01*
X37910451Y-122199129D01*
X38616553Y-121889171D01*
X39371457Y-121707935D01*
X40024207Y-121660000D01*
X81755229Y-121660000D01*
X81728320Y-121700273D01*
G04 #@! TA.AperFunction,Conductor*
D31*
G36*
X81728320Y-121700273D02*
G01*
X81620147Y-121961426D01*
X81565000Y-122238665D01*
X81565000Y-122521335D01*
X81620147Y-122798574D01*
X81728320Y-123059727D01*
X81885363Y-123294759D01*
X82085241Y-123494637D01*
X82320273Y-123651680D01*
X82581426Y-123759853D01*
X82711003Y-123785628D01*
X82711002Y-125384131D01*
X78772612Y-129322523D01*
X78771680Y-129320273D01*
X78614637Y-129085241D01*
X78414759Y-128885363D01*
X78335000Y-128832070D01*
X78335000Y-127248111D01*
X78534759Y-127114637D01*
X78734637Y-126914759D01*
X78891680Y-126679727D01*
X78999853Y-126418574D01*
X79055000Y-126141335D01*
X79055000Y-125858665D01*
X78999853Y-125581426D01*
X78891680Y-125320273D01*
X78734637Y-125085241D01*
X78534759Y-124885363D01*
X78299727Y-124728320D01*
X78038574Y-124620147D01*
X77761335Y-124565000D01*
X77478665Y-124565000D01*
X77201426Y-124620147D01*
X76940273Y-124728320D01*
X76705241Y-124885363D01*
X76505363Y-125085241D01*
X76348320Y-125320273D01*
X76240147Y-125581426D01*
X76185000Y-125858665D01*
X76185000Y-126141335D01*
X76240147Y-126418574D01*
X76348320Y-126679727D01*
X76505363Y-126914759D01*
X76665001Y-127074397D01*
X76665000Y-128832070D01*
X76585241Y-128885363D01*
X76385363Y-129085241D01*
X76228320Y-129320273D01*
X76120147Y-129581426D01*
X76065000Y-129858665D01*
X76065000Y-130141335D01*
X76109491Y-130365001D01*
X75241019Y-130365001D01*
X75200001Y-130360961D01*
X75158983Y-130365001D01*
X71270509Y-130365001D01*
X71315000Y-130141335D01*
X71315000Y-129858665D01*
X71259853Y-129581426D01*
X71151680Y-129320273D01*
X70994637Y-129085241D01*
X70794759Y-128885363D01*
X70559727Y-128728320D01*
X70298574Y-128620147D01*
X70021335Y-128565000D01*
X69738665Y-128565000D01*
X69461426Y-128620147D01*
X69200273Y-128728320D01*
X68965241Y-128885363D01*
X68765363Y-129085241D01*
X68608320Y-129320273D01*
X68607388Y-129322523D01*
X66135001Y-126850136D01*
X66135001Y-126657017D01*
X66139041Y-126615999D01*
X66122919Y-126452310D01*
X66075173Y-126294912D01*
X65997637Y-126149853D01*
X65919440Y-126054569D01*
X65919438Y-126054567D01*
X65893292Y-126022708D01*
X65861433Y-125996562D01*
X65723536Y-125858665D01*
X68565000Y-125858665D01*
X68565000Y-126141335D01*
X68620147Y-126418574D01*
X68728320Y-126679727D01*
X68885363Y-126914759D01*
X69085241Y-127114637D01*
X69320273Y-127271680D01*
X69581426Y-127379853D01*
X69858665Y-127435000D01*
X70141335Y-127435000D01*
X70418574Y-127379853D01*
X70679727Y-127271680D01*
X70914759Y-127114637D01*
X71114637Y-126914759D01*
X71271680Y-126679727D01*
X71379853Y-126418574D01*
X71435000Y-126141335D01*
X71435000Y-125858665D01*
X71379853Y-125581426D01*
X71271680Y-125320273D01*
X71114637Y-125085241D01*
X70914759Y-124885363D01*
X70679727Y-124728320D01*
X70418574Y-124620147D01*
X70141335Y-124565000D01*
X69858665Y-124565000D01*
X69581426Y-124620147D01*
X69320273Y-124728320D01*
X69085241Y-124885363D01*
X68885363Y-125085241D01*
X68728320Y-125320273D01*
X68620147Y-125581426D01*
X68565000Y-125858665D01*
X65723536Y-125858665D01*
X65208094Y-125343225D01*
X65179228Y-125198102D01*
X65101207Y-125009744D01*
X64987939Y-124840226D01*
X64843776Y-124696063D01*
X64674258Y-124582795D01*
X64485900Y-124504774D01*
X64285941Y-124465000D01*
X64082063Y-124465000D01*
X63882104Y-124504774D01*
X63693746Y-124582795D01*
X63524228Y-124696063D01*
X63380065Y-124840226D01*
X63266797Y-125009744D01*
X63188776Y-125198102D01*
X63149002Y-125398061D01*
X63149002Y-125601939D01*
X63188776Y-125801898D01*
X63266797Y-125990256D01*
X63380065Y-126159774D01*
X63524228Y-126303937D01*
X63659788Y-126394515D01*
X63582795Y-126509744D01*
X63504774Y-126698102D01*
X63465000Y-126898061D01*
X63465000Y-127101939D01*
X63504774Y-127301898D01*
X63582795Y-127490256D01*
X63665001Y-127613286D01*
X63665000Y-128886715D01*
X63582795Y-129009744D01*
X63504774Y-129198102D01*
X63465000Y-129398061D01*
X63465000Y-129601939D01*
X63504774Y-129801898D01*
X63582795Y-129990256D01*
X63696063Y-130159774D01*
X63840226Y-130303937D01*
X64009744Y-130417205D01*
X64198102Y-130495226D01*
X64398061Y-130535000D01*
X64601939Y-130535000D01*
X64801898Y-130495226D01*
X64990256Y-130417205D01*
X65159774Y-130303937D01*
X65303937Y-130159774D01*
X65417205Y-129990256D01*
X65495226Y-129801898D01*
X65535000Y-129601939D01*
X65535000Y-129398061D01*
X65495226Y-129198102D01*
X65417205Y-129009744D01*
X65335000Y-128886715D01*
X65335000Y-128411869D01*
X68684558Y-131761428D01*
X68710708Y-131793292D01*
X68837853Y-131897637D01*
X68982912Y-131975173D01*
X69140310Y-132022919D01*
X69262980Y-132035001D01*
X69262990Y-132035001D01*
X69303998Y-132039040D01*
X69345006Y-132035001D01*
X74854134Y-132035001D01*
X77665001Y-134845869D01*
X77665000Y-137386715D01*
X77582795Y-137509744D01*
X77504774Y-137698102D01*
X77465000Y-137898061D01*
X77465000Y-138101939D01*
X77504774Y-138301898D01*
X77582795Y-138490256D01*
X77696063Y-138659774D01*
X77840226Y-138803937D01*
X78009744Y-138917205D01*
X78198102Y-138995226D01*
X78398061Y-139035000D01*
X78601939Y-139035000D01*
X78801898Y-138995226D01*
X78990256Y-138917205D01*
X79159774Y-138803937D01*
X79303937Y-138659774D01*
X79417205Y-138490256D01*
X79495226Y-138301898D01*
X79535000Y-138101939D01*
X79535000Y-137898061D01*
X79495226Y-137698102D01*
X79417205Y-137509744D01*
X79335000Y-137386715D01*
X79335000Y-136398061D01*
X81965000Y-136398061D01*
X81965000Y-136601939D01*
X82004774Y-136801898D01*
X82082795Y-136990256D01*
X82196063Y-137159774D01*
X82340226Y-137303937D01*
X82509744Y-137417205D01*
X82698102Y-137495226D01*
X82898061Y-137535000D01*
X83101939Y-137535000D01*
X83301898Y-137495226D01*
X83490256Y-137417205D01*
X83659774Y-137303937D01*
X83803937Y-137159774D01*
X83917205Y-136990256D01*
X83995226Y-136801898D01*
X84024093Y-136656775D01*
X84545868Y-136135000D01*
X97154133Y-136135000D01*
X98711415Y-137692283D01*
X98687439Y-137750166D01*
X98615000Y-138114344D01*
X98615000Y-138485656D01*
X98687439Y-138849834D01*
X98829534Y-139192882D01*
X99035825Y-139501618D01*
X99298382Y-139764175D01*
X99607118Y-139970466D01*
X99950166Y-140112561D01*
X100314344Y-140185000D01*
X100685656Y-140185000D01*
X101049834Y-140112561D01*
X101392882Y-139970466D01*
X101701618Y-139764175D01*
X101964175Y-139501618D01*
X102170466Y-139192882D01*
X102312561Y-138849834D01*
X102385000Y-138485656D01*
X102385000Y-138114344D01*
X102312561Y-137750166D01*
X102170466Y-137407118D01*
X101964175Y-137098382D01*
X101701618Y-136835825D01*
X101392882Y-136629534D01*
X101049834Y-136487439D01*
X100685656Y-136415000D01*
X100314344Y-136415000D01*
X99950166Y-136487439D01*
X99892283Y-136511415D01*
X98119446Y-134738579D01*
X98093291Y-134706709D01*
X97966146Y-134602364D01*
X97821087Y-134524828D01*
X97663689Y-134477082D01*
X97541019Y-134465000D01*
X97541018Y-134465000D01*
X97500000Y-134460960D01*
X97458982Y-134465000D01*
X84241007Y-134465000D01*
X84199999Y-134460961D01*
X84158991Y-134465000D01*
X84158981Y-134465000D01*
X84036311Y-134477082D01*
X83878913Y-134524828D01*
X83733854Y-134602364D01*
X83606709Y-134706709D01*
X83580558Y-134738574D01*
X82843225Y-135475907D01*
X82698102Y-135504774D01*
X82509744Y-135582795D01*
X82340226Y-135696063D01*
X82196063Y-135840226D01*
X82082795Y-136009744D01*
X82004774Y-136198102D01*
X81965000Y-136398061D01*
X79335000Y-136398061D01*
X79335000Y-134541007D01*
X79339039Y-134499999D01*
X79335000Y-134458991D01*
X79335000Y-134458981D01*
X79322918Y-134336311D01*
X79275172Y-134178913D01*
X79197636Y-134033854D01*
X79093291Y-133906709D01*
X79061427Y-133880559D01*
X77215868Y-132035001D01*
X78034983Y-132035001D01*
X78076001Y-132039041D01*
X78117019Y-132035001D01*
X78117020Y-132035001D01*
X78239690Y-132022919D01*
X78397088Y-131975173D01*
X78542147Y-131897637D01*
X78669292Y-131793292D01*
X78695447Y-131761422D01*
X80598204Y-129858665D01*
X81565000Y-129858665D01*
X81565000Y-130141335D01*
X81620147Y-130418574D01*
X81728320Y-130679727D01*
X81885363Y-130914759D01*
X82085241Y-131114637D01*
X82320273Y-131271680D01*
X82581426Y-131379853D01*
X82858665Y-131435000D01*
X83141335Y-131435000D01*
X83418574Y-131379853D01*
X83679727Y-131271680D01*
X83914759Y-131114637D01*
X84114637Y-130914759D01*
X84271680Y-130679727D01*
X84379853Y-130418574D01*
X84435000Y-130141335D01*
X84435000Y-129858665D01*
X84379853Y-129581426D01*
X84271680Y-129320273D01*
X84114637Y-129085241D01*
X83914759Y-128885363D01*
X83679727Y-128728320D01*
X83418574Y-128620147D01*
X83141335Y-128565000D01*
X82858665Y-128565000D01*
X82581426Y-128620147D01*
X82320273Y-128728320D01*
X82085241Y-128885363D01*
X81885363Y-129085241D01*
X81728320Y-129320273D01*
X81620147Y-129581426D01*
X81565000Y-129858665D01*
X80598204Y-129858665D01*
X83891871Y-126565000D01*
X87247735Y-126565000D01*
X87410860Y-126728125D01*
X87621324Y-126868753D01*
X87855179Y-126965619D01*
X88103439Y-127015000D01*
X88211928Y-127015000D01*
X88211928Y-127650000D01*
X88224188Y-127774482D01*
X88260498Y-127894180D01*
X88319463Y-128004494D01*
X88398815Y-128101185D01*
X88495506Y-128180537D01*
X88605820Y-128239502D01*
X88725518Y-128275812D01*
X88850000Y-128288072D01*
X89715002Y-128288072D01*
X89715002Y-129661928D01*
X88800000Y-129661928D01*
X88675518Y-129674188D01*
X88555820Y-129710498D01*
X88445506Y-129769463D01*
X88348815Y-129848815D01*
X88269463Y-129945506D01*
X88210498Y-130055820D01*
X88174188Y-130175518D01*
X88161928Y-130300000D01*
X88161928Y-132700000D01*
X88174188Y-132824482D01*
X88210498Y-132944180D01*
X88269463Y-133054494D01*
X88348815Y-133151185D01*
X88445506Y-133230537D01*
X88555820Y-133289502D01*
X88675518Y-133325812D01*
X88800000Y-133338072D01*
X91200000Y-133338072D01*
X91324482Y-133325812D01*
X91444180Y-133289502D01*
X91554494Y-133230537D01*
X91651185Y-133151185D01*
X91730537Y-133054494D01*
X91789502Y-132944180D01*
X91825812Y-132824482D01*
X91838072Y-132700000D01*
X91838072Y-130514344D01*
X98615000Y-130514344D01*
X98615000Y-130885656D01*
X98687439Y-131249834D01*
X98829534Y-131592882D01*
X99035825Y-131901618D01*
X99298382Y-132164175D01*
X99607118Y-132370466D01*
X99950166Y-132512561D01*
X100314344Y-132585000D01*
X100685656Y-132585000D01*
X101049834Y-132512561D01*
X101392882Y-132370466D01*
X101701618Y-132164175D01*
X101964175Y-131901618D01*
X102170466Y-131592882D01*
X102312561Y-131249834D01*
X102385000Y-130885656D01*
X102385000Y-130514344D01*
X102312561Y-130150166D01*
X102170466Y-129807118D01*
X101964175Y-129498382D01*
X101701618Y-129235825D01*
X101392882Y-129029534D01*
X101049834Y-128887439D01*
X100685656Y-128815000D01*
X100314344Y-128815000D01*
X99950166Y-128887439D01*
X99607118Y-129029534D01*
X99298382Y-129235825D01*
X99035825Y-129498382D01*
X98829534Y-129807118D01*
X98687439Y-130150166D01*
X98615000Y-130514344D01*
X91838072Y-130514344D01*
X91838072Y-130300000D01*
X91825812Y-130175518D01*
X91789502Y-130055820D01*
X91730537Y-129945506D01*
X91685001Y-129890020D01*
X91685001Y-125708381D01*
X91689766Y-125660001D01*
X91670748Y-125466907D01*
X91614425Y-125281234D01*
X91522961Y-125110117D01*
X91466291Y-125041064D01*
X91399871Y-124960131D01*
X91362291Y-124929290D01*
X91124230Y-124691229D01*
X101365000Y-124691229D01*
X101365000Y-125308771D01*
X101485476Y-125914446D01*
X101721799Y-126484979D01*
X102064886Y-126998446D01*
X102501554Y-127435114D01*
X103015021Y-127778201D01*
X103585554Y-128014524D01*
X104191229Y-128135000D01*
X104808771Y-128135000D01*
X105414446Y-128014524D01*
X105984979Y-127778201D01*
X106498446Y-127435114D01*
X106935114Y-126998446D01*
X107278201Y-126484979D01*
X107514524Y-125914446D01*
X107635000Y-125308771D01*
X107635000Y-124691229D01*
X107514524Y-124085554D01*
X107278201Y-123515021D01*
X106935114Y-123001554D01*
X106498446Y-122564886D01*
X105984979Y-122221799D01*
X105414446Y-121985476D01*
X104808771Y-121865000D01*
X104191229Y-121865000D01*
X103585554Y-121985476D01*
X103015021Y-122221799D01*
X102501554Y-122564886D01*
X102064886Y-123001554D01*
X101721799Y-123515021D01*
X101485476Y-124085554D01*
X101365000Y-124691229D01*
X91124230Y-124691229D01*
X90785000Y-124352000D01*
X90785000Y-124333439D01*
X90735619Y-124085179D01*
X90638753Y-123851324D01*
X90498125Y-123640860D01*
X90319140Y-123461875D01*
X90108676Y-123321247D01*
X89874821Y-123224381D01*
X89626561Y-123175000D01*
X89373439Y-123175000D01*
X89125179Y-123224381D01*
X88891324Y-123321247D01*
X88680860Y-123461875D01*
X88501875Y-123640860D01*
X88361247Y-123851324D01*
X88264381Y-124085179D01*
X88215000Y-124333439D01*
X88215000Y-124445000D01*
X88103439Y-124445000D01*
X87855179Y-124494381D01*
X87621324Y-124591247D01*
X87410860Y-124731875D01*
X87247735Y-124895000D01*
X84381002Y-124895000D01*
X84381002Y-122967009D01*
X84385041Y-122926001D01*
X84381002Y-122884993D01*
X84381002Y-122884983D01*
X84373906Y-122812932D01*
X84379853Y-122798574D01*
X84435000Y-122521335D01*
X84435000Y-122238665D01*
X84379853Y-121961426D01*
X84271680Y-121700273D01*
X84244771Y-121660000D01*
X104467722Y-121660000D01*
X105148126Y-121726714D01*
X105771572Y-121914943D01*
X106346579Y-122220681D01*
X106851247Y-122632279D01*
X107266362Y-123134067D01*
X107576105Y-123706924D01*
X107768682Y-124329039D01*
X107840001Y-125007594D01*
X107840000Y-142747691D01*
X107683519Y-142536586D01*
X107475131Y-142347615D01*
X107233881Y-142202930D01*
X106969040Y-142108091D01*
X106747000Y-142229376D01*
X106747000Y-143373000D01*
X106767000Y-143373000D01*
X106767000Y-143627000D01*
X106747000Y-143627000D01*
X106747000Y-144770624D01*
X106969040Y-144891909D01*
X107233881Y-144797070D01*
X107475131Y-144652385D01*
X107683519Y-144463414D01*
X107840000Y-144252310D01*
X107840000Y-146967721D01*
X107773286Y-147648126D01*
X107585057Y-148271570D01*
X107279323Y-148846573D01*
X106867721Y-149351248D01*
X106365933Y-149766362D01*
X105793077Y-150076104D01*
X105170961Y-150268682D01*
X104492417Y-150340000D01*
X95257072Y-150340000D01*
X95414759Y-150234637D01*
X95614637Y-150034759D01*
X95771680Y-149799727D01*
X95879853Y-149538574D01*
X95935000Y-149261335D01*
X95935000Y-148978665D01*
X95879853Y-148701426D01*
X95771680Y-148440273D01*
X95614637Y-148205241D01*
X95414759Y-148005363D01*
X95179727Y-147848320D01*
X94918574Y-147740147D01*
X94641335Y-147685000D01*
X94358665Y-147685000D01*
X94081426Y-147740147D01*
X93820273Y-147848320D01*
X93585241Y-148005363D01*
X93385363Y-148205241D01*
X93228320Y-148440273D01*
X93120147Y-148701426D01*
X93065000Y-148978665D01*
X93065000Y-149261335D01*
X93120147Y-149538574D01*
X93228320Y-149799727D01*
X93385363Y-150034759D01*
X93585241Y-150234637D01*
X93742928Y-150340000D01*
X83757072Y-150340000D01*
X83914759Y-150234637D01*
X84114637Y-150034759D01*
X84271680Y-149799727D01*
X84379853Y-149538574D01*
X84435000Y-149261335D01*
X84435000Y-148978665D01*
X84379853Y-148701426D01*
X84271680Y-148440273D01*
X84114637Y-148205241D01*
X83914759Y-148005363D01*
X83679727Y-147848320D01*
X83418574Y-147740147D01*
X83141335Y-147685000D01*
X82858665Y-147685000D01*
X82581426Y-147740147D01*
X82320273Y-147848320D01*
X82085241Y-148005363D01*
X81885363Y-148205241D01*
X81728320Y-148440273D01*
X81620147Y-148701426D01*
X81565000Y-148978665D01*
X81565000Y-149261335D01*
X81620147Y-149538574D01*
X81728320Y-149799727D01*
X81885363Y-150034759D01*
X82085241Y-150234637D01*
X82242928Y-150340000D01*
X40029392Y-150340000D01*
X39231917Y-150268827D01*
X38488110Y-150065344D01*
X37792096Y-149733363D01*
X37258590Y-149350000D01*
X50891928Y-149350000D01*
X50904188Y-149474482D01*
X50940498Y-149594180D01*
X50999463Y-149704494D01*
X51078815Y-149801185D01*
X51175506Y-149880537D01*
X51285820Y-149939502D01*
X51405518Y-149975812D01*
X51530000Y-149988072D01*
X52094250Y-149985000D01*
X52253000Y-149826250D01*
X52253000Y-148627000D01*
X52507000Y-148627000D01*
X52507000Y-149826250D01*
X52665750Y-149985000D01*
X53230000Y-149988072D01*
X53354482Y-149975812D01*
X53474180Y-149939502D01*
X53584494Y-149880537D01*
X53681185Y-149801185D01*
X53760537Y-149704494D01*
X53819502Y-149594180D01*
X53843966Y-149513534D01*
X53919731Y-149597588D01*
X54153080Y-149771641D01*
X54415901Y-149896825D01*
X54563110Y-149941476D01*
X54793000Y-149820155D01*
X54793000Y-148627000D01*
X55047000Y-148627000D01*
X55047000Y-149820155D01*
X55276890Y-149941476D01*
X55424099Y-149896825D01*
X55686920Y-149771641D01*
X55920269Y-149597588D01*
X56115178Y-149381355D01*
X56190000Y-149255745D01*
X56264822Y-149381355D01*
X56459731Y-149597588D01*
X56693080Y-149771641D01*
X56955901Y-149896825D01*
X57103110Y-149941476D01*
X57333000Y-149820155D01*
X57333000Y-148627000D01*
X57587000Y-148627000D01*
X57587000Y-149820155D01*
X57816890Y-149941476D01*
X57964099Y-149896825D01*
X58226920Y-149771641D01*
X58460269Y-149597588D01*
X58655178Y-149381355D01*
X58730000Y-149255745D01*
X58804822Y-149381355D01*
X58999731Y-149597588D01*
X59233080Y-149771641D01*
X59495901Y-149896825D01*
X59643110Y-149941476D01*
X59873000Y-149820155D01*
X59873000Y-148627000D01*
X60127000Y-148627000D01*
X60127000Y-149820155D01*
X60356890Y-149941476D01*
X60504099Y-149896825D01*
X60766920Y-149771641D01*
X61000269Y-149597588D01*
X61195178Y-149381355D01*
X61270000Y-149255745D01*
X61344822Y-149381355D01*
X61539731Y-149597588D01*
X61773080Y-149771641D01*
X62035901Y-149896825D01*
X62183110Y-149941476D01*
X62413000Y-149820155D01*
X62413000Y-148627000D01*
X62667000Y-148627000D01*
X62667000Y-149820155D01*
X62896890Y-149941476D01*
X63044099Y-149896825D01*
X63306920Y-149771641D01*
X63540269Y-149597588D01*
X63735178Y-149381355D01*
X63884157Y-149131252D01*
X63981481Y-148856891D01*
X63860814Y-148627000D01*
X62667000Y-148627000D01*
X62413000Y-148627000D01*
X60127000Y-148627000D01*
X59873000Y-148627000D01*
X57587000Y-148627000D01*
X57333000Y-148627000D01*
X55047000Y-148627000D01*
X54793000Y-148627000D01*
X52507000Y-148627000D01*
X52253000Y-148627000D01*
X51053750Y-148627000D01*
X50895000Y-148785750D01*
X50891928Y-149350000D01*
X37258590Y-149350000D01*
X37165870Y-149283374D01*
X36629223Y-148729597D01*
X36199129Y-148089549D01*
X35889171Y-147383447D01*
X35707935Y-146628543D01*
X35660000Y-145975793D01*
X35660000Y-145691229D01*
X36865000Y-145691229D01*
X36865000Y-146308771D01*
X36985476Y-146914446D01*
X37221799Y-147484979D01*
X37564886Y-147998446D01*
X38001554Y-148435114D01*
X38515021Y-148778201D01*
X39085554Y-149014524D01*
X39691229Y-149135000D01*
X40308771Y-149135000D01*
X40914446Y-149014524D01*
X41484979Y-148778201D01*
X41998446Y-148435114D01*
X42435114Y-147998446D01*
X42667937Y-147650000D01*
X50891928Y-147650000D01*
X50895000Y-148214250D01*
X51053750Y-148373000D01*
X52253000Y-148373000D01*
X52253000Y-148353000D01*
X52507000Y-148353000D01*
X52507000Y-148373000D01*
X54793000Y-148373000D01*
X54793000Y-148353000D01*
X55047000Y-148353000D01*
X55047000Y-148373000D01*
X57333000Y-148373000D01*
X57333000Y-148353000D01*
X57587000Y-148353000D01*
X57587000Y-148373000D01*
X59873000Y-148373000D01*
X59873000Y-148353000D01*
X60127000Y-148353000D01*
X60127000Y-148373000D01*
X62413000Y-148373000D01*
X62413000Y-148353000D01*
X62667000Y-148353000D01*
X62667000Y-148373000D01*
X63860814Y-148373000D01*
X63981481Y-148143109D01*
X63884157Y-147868748D01*
X63735178Y-147618645D01*
X63540269Y-147402412D01*
X63475016Y-147353740D01*
X66975000Y-147353740D01*
X66975000Y-147646260D01*
X67032068Y-147933158D01*
X67144010Y-148203411D01*
X67306525Y-148446632D01*
X67513368Y-148653475D01*
X67756589Y-148815990D01*
X68026842Y-148927932D01*
X68313740Y-148985000D01*
X68606260Y-148985000D01*
X68893158Y-148927932D01*
X69163411Y-148815990D01*
X69406632Y-148653475D01*
X69538487Y-148521620D01*
X69560498Y-148594180D01*
X69619463Y-148704494D01*
X69698815Y-148801185D01*
X69795506Y-148880537D01*
X69905820Y-148939502D01*
X70025518Y-148975812D01*
X70150000Y-148988072D01*
X70714250Y-148985000D01*
X70873000Y-148826250D01*
X70873000Y-147627000D01*
X71127000Y-147627000D01*
X71127000Y-148826250D01*
X71285750Y-148985000D01*
X71850000Y-148988072D01*
X71974482Y-148975812D01*
X72094180Y-148939502D01*
X72204494Y-148880537D01*
X72301185Y-148801185D01*
X72380537Y-148704494D01*
X72439502Y-148594180D01*
X72475812Y-148474482D01*
X72488072Y-148350000D01*
X72485000Y-147785750D01*
X72326250Y-147627000D01*
X71127000Y-147627000D01*
X70873000Y-147627000D01*
X70853000Y-147627000D01*
X70853000Y-147373000D01*
X70873000Y-147373000D01*
X70873000Y-146173750D01*
X71127000Y-146173750D01*
X71127000Y-147373000D01*
X72326250Y-147373000D01*
X72485000Y-147214250D01*
X72488072Y-146650000D01*
X72475812Y-146525518D01*
X72439502Y-146405820D01*
X72380537Y-146295506D01*
X72301185Y-146198815D01*
X72204494Y-146119463D01*
X72094180Y-146060498D01*
X71974482Y-146024188D01*
X71850000Y-146011928D01*
X71285750Y-146015000D01*
X71127000Y-146173750D01*
X70873000Y-146173750D01*
X70714250Y-146015000D01*
X70150000Y-146011928D01*
X70025518Y-146024188D01*
X69905820Y-146060498D01*
X69795506Y-146119463D01*
X69698815Y-146198815D01*
X69619463Y-146295506D01*
X69560498Y-146405820D01*
X69538487Y-146478380D01*
X69406632Y-146346525D01*
X69163411Y-146184010D01*
X68893158Y-146072068D01*
X68606260Y-146015000D01*
X68313740Y-146015000D01*
X68026842Y-146072068D01*
X67756589Y-146184010D01*
X67513368Y-146346525D01*
X67306525Y-146553368D01*
X67144010Y-146796589D01*
X67032068Y-147066842D01*
X66975000Y-147353740D01*
X63475016Y-147353740D01*
X63310594Y-147231100D01*
X63486632Y-147113475D01*
X63693475Y-146906632D01*
X63855990Y-146663411D01*
X63967932Y-146393158D01*
X64025000Y-146106260D01*
X64025000Y-145813740D01*
X63967932Y-145526842D01*
X63855990Y-145256589D01*
X63693475Y-145013368D01*
X63486632Y-144806525D01*
X63243411Y-144644010D01*
X62973158Y-144532068D01*
X62686260Y-144475000D01*
X62393740Y-144475000D01*
X62106842Y-144532068D01*
X61836589Y-144644010D01*
X61593368Y-144806525D01*
X61386525Y-145013368D01*
X61270000Y-145187760D01*
X61153475Y-145013368D01*
X60946632Y-144806525D01*
X60703411Y-144644010D01*
X60433158Y-144532068D01*
X60146260Y-144475000D01*
X59853740Y-144475000D01*
X59566842Y-144532068D01*
X59296589Y-144644010D01*
X59053368Y-144806525D01*
X58846525Y-145013368D01*
X58730000Y-145187760D01*
X58613475Y-145013368D01*
X58406632Y-144806525D01*
X58163411Y-144644010D01*
X57893158Y-144532068D01*
X57606260Y-144475000D01*
X57313740Y-144475000D01*
X57026842Y-144532068D01*
X56756589Y-144644010D01*
X56513368Y-144806525D01*
X56306525Y-145013368D01*
X56190000Y-145187760D01*
X56073475Y-145013368D01*
X55866632Y-144806525D01*
X55623411Y-144644010D01*
X55353158Y-144532068D01*
X55066260Y-144475000D01*
X54773740Y-144475000D01*
X54486842Y-144532068D01*
X54216589Y-144644010D01*
X53973368Y-144806525D01*
X53766525Y-145013368D01*
X53650000Y-145187760D01*
X53533475Y-145013368D01*
X53326632Y-144806525D01*
X53083411Y-144644010D01*
X52813158Y-144532068D01*
X52526260Y-144475000D01*
X52233740Y-144475000D01*
X51946842Y-144532068D01*
X51676589Y-144644010D01*
X51433368Y-144806525D01*
X51226525Y-145013368D01*
X51064010Y-145256589D01*
X50952068Y-145526842D01*
X50895000Y-145813740D01*
X50895000Y-146106260D01*
X50952068Y-146393158D01*
X51064010Y-146663411D01*
X51226525Y-146906632D01*
X51358380Y-147038487D01*
X51285820Y-147060498D01*
X51175506Y-147119463D01*
X51078815Y-147198815D01*
X50999463Y-147295506D01*
X50940498Y-147405820D01*
X50904188Y-147525518D01*
X50891928Y-147650000D01*
X42667937Y-147650000D01*
X42778201Y-147484979D01*
X43014524Y-146914446D01*
X43135000Y-146308771D01*
X43135000Y-145691229D01*
X43014524Y-145085554D01*
X42778201Y-144515021D01*
X42435114Y-144001554D01*
X41998446Y-143564886D01*
X41484979Y-143221799D01*
X40914446Y-142985476D01*
X40308771Y-142865000D01*
X39691229Y-142865000D01*
X39085554Y-142985476D01*
X38515021Y-143221799D01*
X38001554Y-143564886D01*
X37564886Y-144001554D01*
X37221799Y-144515021D01*
X36985476Y-145085554D01*
X36865000Y-145691229D01*
X35660000Y-145691229D01*
X35660000Y-140826000D01*
X37309089Y-140826000D01*
X37340657Y-141146516D01*
X37434148Y-141454715D01*
X37585969Y-141738752D01*
X37790286Y-141987714D01*
X38039248Y-142192031D01*
X38323285Y-142343852D01*
X38631484Y-142437343D01*
X38871678Y-142461000D01*
X41032322Y-142461000D01*
X41272516Y-142437343D01*
X41531883Y-142358665D01*
X46065000Y-142358665D01*
X46065000Y-142641335D01*
X46120147Y-142918574D01*
X46228320Y-143179727D01*
X46385363Y-143414759D01*
X46585241Y-143614637D01*
X46820273Y-143771680D01*
X47081426Y-143879853D01*
X47358665Y-143935000D01*
X47641335Y-143935000D01*
X47918574Y-143879853D01*
X48179727Y-143771680D01*
X48414759Y-143614637D01*
X48614637Y-143414759D01*
X48771680Y-143179727D01*
X48879853Y-142918574D01*
X48935000Y-142641335D01*
X48935000Y-142358665D01*
X51065000Y-142358665D01*
X51065000Y-142641335D01*
X51120147Y-142918574D01*
X51228320Y-143179727D01*
X51385363Y-143414759D01*
X51585241Y-143614637D01*
X51820273Y-143771680D01*
X52081426Y-143879853D01*
X52358665Y-143935000D01*
X52641335Y-143935000D01*
X52918574Y-143879853D01*
X53179727Y-143771680D01*
X53414759Y-143614637D01*
X53614637Y-143414759D01*
X53771680Y-143179727D01*
X53879853Y-142918574D01*
X53935000Y-142641335D01*
X53935000Y-142358665D01*
X56065000Y-142358665D01*
X56065000Y-142641335D01*
X56120147Y-142918574D01*
X56228320Y-143179727D01*
X56385363Y-143414759D01*
X56585241Y-143614637D01*
X56820273Y-143771680D01*
X57081426Y-143879853D01*
X57358665Y-143935000D01*
X57641335Y-143935000D01*
X57918574Y-143879853D01*
X58179727Y-143771680D01*
X58414759Y-143614637D01*
X58614637Y-143414759D01*
X58771680Y-143179727D01*
X58879853Y-142918574D01*
X58935000Y-142641335D01*
X58935000Y-142358665D01*
X61065000Y-142358665D01*
X61065000Y-142641335D01*
X61120147Y-142918574D01*
X61228320Y-143179727D01*
X61385363Y-143414759D01*
X61585241Y-143614637D01*
X61820273Y-143771680D01*
X62081426Y-143879853D01*
X62358665Y-143935000D01*
X62641335Y-143935000D01*
X62918574Y-143879853D01*
X63179727Y-143771680D01*
X63414759Y-143614637D01*
X63614637Y-143414759D01*
X63771680Y-143179727D01*
X63879853Y-142918574D01*
X63935000Y-142641335D01*
X63935000Y-142358665D01*
X66065000Y-142358665D01*
X66065000Y-142641335D01*
X66120147Y-142918574D01*
X66228320Y-143179727D01*
X66385363Y-143414759D01*
X66585241Y-143614637D01*
X66820273Y-143771680D01*
X67081426Y-143879853D01*
X67358665Y-143935000D01*
X67641335Y-143935000D01*
X67918574Y-143879853D01*
X68179727Y-143771680D01*
X68414759Y-143614637D01*
X68614637Y-143414759D01*
X68771680Y-143179727D01*
X68879853Y-142918574D01*
X68935000Y-142641335D01*
X68935000Y-142358665D01*
X68879853Y-142081426D01*
X68771680Y-141820273D01*
X68614637Y-141585241D01*
X68414759Y-141385363D01*
X68179727Y-141228320D01*
X67918574Y-141120147D01*
X67641335Y-141065000D01*
X67358665Y-141065000D01*
X67081426Y-141120147D01*
X66820273Y-141228320D01*
X66585241Y-141385363D01*
X66385363Y-141585241D01*
X66228320Y-141820273D01*
X66120147Y-142081426D01*
X66065000Y-142358665D01*
X63935000Y-142358665D01*
X63879853Y-142081426D01*
X63771680Y-141820273D01*
X63614637Y-141585241D01*
X63414759Y-141385363D01*
X63179727Y-141228320D01*
X62918574Y-141120147D01*
X62641335Y-141065000D01*
X62358665Y-141065000D01*
X62081426Y-141120147D01*
X61820273Y-141228320D01*
X61585241Y-141385363D01*
X61385363Y-141585241D01*
X61228320Y-141820273D01*
X61120147Y-142081426D01*
X61065000Y-142358665D01*
X58935000Y-142358665D01*
X58879853Y-142081426D01*
X58771680Y-141820273D01*
X58614637Y-141585241D01*
X58414759Y-141385363D01*
X58179727Y-141228320D01*
X57918574Y-141120147D01*
X57641335Y-141065000D01*
X57358665Y-141065000D01*
X57081426Y-141120147D01*
X56820273Y-141228320D01*
X56585241Y-141385363D01*
X56385363Y-141585241D01*
X56228320Y-141820273D01*
X56120147Y-142081426D01*
X56065000Y-142358665D01*
X53935000Y-142358665D01*
X53879853Y-142081426D01*
X53771680Y-141820273D01*
X53614637Y-141585241D01*
X53414759Y-141385363D01*
X53179727Y-141228320D01*
X52918574Y-141120147D01*
X52641335Y-141065000D01*
X52358665Y-141065000D01*
X52081426Y-141120147D01*
X51820273Y-141228320D01*
X51585241Y-141385363D01*
X51385363Y-141585241D01*
X51228320Y-141820273D01*
X51120147Y-142081426D01*
X51065000Y-142358665D01*
X48935000Y-142358665D01*
X48879853Y-142081426D01*
X48771680Y-141820273D01*
X48614637Y-141585241D01*
X48414759Y-141385363D01*
X48179727Y-141228320D01*
X47918574Y-141120147D01*
X47641335Y-141065000D01*
X47358665Y-141065000D01*
X47081426Y-141120147D01*
X46820273Y-141228320D01*
X46585241Y-141385363D01*
X46385363Y-141585241D01*
X46228320Y-141820273D01*
X46120147Y-142081426D01*
X46065000Y-142358665D01*
X41531883Y-142358665D01*
X41580715Y-142343852D01*
X41864752Y-142192031D01*
X42113714Y-141987714D01*
X42318031Y-141738752D01*
X42469852Y-141454715D01*
X42563343Y-141146516D01*
X42594911Y-140826000D01*
X42563343Y-140505484D01*
X42469852Y-140197285D01*
X42318031Y-139913248D01*
X42113714Y-139664286D01*
X41864752Y-139459969D01*
X41580715Y-139308148D01*
X41272516Y-139214657D01*
X41032322Y-139191000D01*
X38871678Y-139191000D01*
X38631484Y-139214657D01*
X38323285Y-139308148D01*
X38039248Y-139459969D01*
X37790286Y-139664286D01*
X37585969Y-139913248D01*
X37434148Y-140197285D01*
X37340657Y-140505484D01*
X37309089Y-140826000D01*
X35660000Y-140826000D01*
X35660000Y-138060743D01*
X35837683Y-138245922D01*
X36101239Y-138430010D01*
X36395645Y-138559144D01*
X36523566Y-138590124D01*
X36777000Y-138470777D01*
X36777000Y-136127000D01*
X37031000Y-136127000D01*
X37031000Y-138470777D01*
X37284434Y-138590124D01*
X37412355Y-138559144D01*
X37706761Y-138430010D01*
X37970317Y-138245922D01*
X38192895Y-138013954D01*
X38365942Y-137743020D01*
X38482807Y-137443532D01*
X38502905Y-137330321D01*
X41365000Y-137330321D01*
X41388657Y-137570515D01*
X41482148Y-137878714D01*
X41633969Y-138162751D01*
X41838286Y-138411714D01*
X42087248Y-138616031D01*
X42371285Y-138767852D01*
X42679484Y-138861343D01*
X43000000Y-138892911D01*
X43320515Y-138861343D01*
X43628714Y-138767852D01*
X43912751Y-138616031D01*
X44161714Y-138411714D01*
X44366031Y-138162752D01*
X44517852Y-137878715D01*
X44611343Y-137570516D01*
X44635000Y-137330322D01*
X44635000Y-134738665D01*
X46065000Y-134738665D01*
X46065000Y-135021335D01*
X46120147Y-135298574D01*
X46228320Y-135559727D01*
X46385363Y-135794759D01*
X46585241Y-135994637D01*
X46820273Y-136151680D01*
X47081426Y-136259853D01*
X47358665Y-136315000D01*
X47641335Y-136315000D01*
X47918574Y-136259853D01*
X48179727Y-136151680D01*
X48414759Y-135994637D01*
X48614637Y-135794759D01*
X48771680Y-135559727D01*
X48879853Y-135298574D01*
X48935000Y-135021335D01*
X48935000Y-134738665D01*
X51065000Y-134738665D01*
X51065000Y-135021335D01*
X51120147Y-135298574D01*
X51228320Y-135559727D01*
X51385363Y-135794759D01*
X51585241Y-135994637D01*
X51820273Y-136151680D01*
X52081426Y-136259853D01*
X52358665Y-136315000D01*
X52641335Y-136315000D01*
X52918574Y-136259853D01*
X53179727Y-136151680D01*
X53414759Y-135994637D01*
X53614637Y-135794759D01*
X53771680Y-135559727D01*
X53879853Y-135298574D01*
X53935000Y-135021335D01*
X53935000Y-134738665D01*
X56065000Y-134738665D01*
X56065000Y-135021335D01*
X56120147Y-135298574D01*
X56228320Y-135559727D01*
X56385363Y-135794759D01*
X56585241Y-135994637D01*
X56820273Y-136151680D01*
X57081426Y-136259853D01*
X57358665Y-136315000D01*
X57641335Y-136315000D01*
X57918574Y-136259853D01*
X58179727Y-136151680D01*
X58414759Y-135994637D01*
X58614637Y-135794759D01*
X58771680Y-135559727D01*
X58879853Y-135298574D01*
X58935000Y-135021335D01*
X58935000Y-134738665D01*
X61065000Y-134738665D01*
X61065000Y-135021335D01*
X61120147Y-135298574D01*
X61228320Y-135559727D01*
X61385363Y-135794759D01*
X61585241Y-135994637D01*
X61820273Y-136151680D01*
X62081426Y-136259853D01*
X62358665Y-136315000D01*
X62641335Y-136315000D01*
X62918574Y-136259853D01*
X63179727Y-136151680D01*
X63414759Y-135994637D01*
X63614637Y-135794759D01*
X63771680Y-135559727D01*
X63879853Y-135298574D01*
X63935000Y-135021335D01*
X63935000Y-134738665D01*
X66065000Y-134738665D01*
X66065000Y-135021335D01*
X66120147Y-135298574D01*
X66228320Y-135559727D01*
X66385363Y-135794759D01*
X66585241Y-135994637D01*
X66820273Y-136151680D01*
X67081426Y-136259853D01*
X67358665Y-136315000D01*
X67641335Y-136315000D01*
X67918574Y-136259853D01*
X68179727Y-136151680D01*
X68414759Y-135994637D01*
X68614637Y-135794759D01*
X68771680Y-135559727D01*
X68879853Y-135298574D01*
X68935000Y-135021335D01*
X68935000Y-134738665D01*
X68879853Y-134461426D01*
X68771680Y-134200273D01*
X68614637Y-133965241D01*
X68547457Y-133898061D01*
X69965000Y-133898061D01*
X69965000Y-134101939D01*
X70004774Y-134301898D01*
X70082795Y-134490256D01*
X70165000Y-134613285D01*
X70165001Y-142458971D01*
X70160960Y-142500000D01*
X70177082Y-142663688D01*
X70224828Y-142821086D01*
X70276937Y-142918574D01*
X70302365Y-142966146D01*
X70406710Y-143093291D01*
X70438574Y-143119441D01*
X74961928Y-147642797D01*
X74961928Y-148900000D01*
X74974188Y-149024482D01*
X75010498Y-149144180D01*
X75069463Y-149254494D01*
X75148815Y-149351185D01*
X75245506Y-149430537D01*
X75355820Y-149489502D01*
X75475518Y-149525812D01*
X75600000Y-149538072D01*
X77400000Y-149538072D01*
X77524482Y-149525812D01*
X77644180Y-149489502D01*
X77754494Y-149430537D01*
X77851185Y-149351185D01*
X77930537Y-149254494D01*
X77989502Y-149144180D01*
X77995056Y-149125873D01*
X78061495Y-149192312D01*
X78312905Y-149360299D01*
X78592257Y-149476011D01*
X78888816Y-149535000D01*
X79191184Y-149535000D01*
X79487743Y-149476011D01*
X79767095Y-149360299D01*
X80018505Y-149192312D01*
X80232312Y-148978505D01*
X80400299Y-148727095D01*
X80516011Y-148447743D01*
X80575000Y-148151184D01*
X80575000Y-147848816D01*
X80516011Y-147552257D01*
X80400299Y-147272905D01*
X80284768Y-147100000D01*
X86461928Y-147100000D01*
X86461928Y-148900000D01*
X86474188Y-149024482D01*
X86510498Y-149144180D01*
X86569463Y-149254494D01*
X86648815Y-149351185D01*
X86745506Y-149430537D01*
X86855820Y-149489502D01*
X86975518Y-149525812D01*
X87100000Y-149538072D01*
X88900000Y-149538072D01*
X89024482Y-149525812D01*
X89144180Y-149489502D01*
X89254494Y-149430537D01*
X89351185Y-149351185D01*
X89430537Y-149254494D01*
X89489502Y-149144180D01*
X89495056Y-149125873D01*
X89561495Y-149192312D01*
X89812905Y-149360299D01*
X90092257Y-149476011D01*
X90388816Y-149535000D01*
X90691184Y-149535000D01*
X90987743Y-149476011D01*
X91267095Y-149360299D01*
X91518505Y-149192312D01*
X91732312Y-148978505D01*
X91900299Y-148727095D01*
X92016011Y-148447743D01*
X92075000Y-148151184D01*
X92075000Y-147848816D01*
X92016011Y-147552257D01*
X91933783Y-147353740D01*
X97975000Y-147353740D01*
X97975000Y-147646260D01*
X98032068Y-147933158D01*
X98144010Y-148203411D01*
X98306525Y-148446632D01*
X98513368Y-148653475D01*
X98756589Y-148815990D01*
X99026842Y-148927932D01*
X99313740Y-148985000D01*
X99606260Y-148985000D01*
X99893158Y-148927932D01*
X100163411Y-148815990D01*
X100406632Y-148653475D01*
X100538487Y-148521620D01*
X100560498Y-148594180D01*
X100619463Y-148704494D01*
X100698815Y-148801185D01*
X100795506Y-148880537D01*
X100905820Y-148939502D01*
X101025518Y-148975812D01*
X101150000Y-148988072D01*
X102850000Y-148988072D01*
X102974482Y-148975812D01*
X103094180Y-148939502D01*
X103204494Y-148880537D01*
X103301185Y-148801185D01*
X103380537Y-148704494D01*
X103439502Y-148594180D01*
X103475812Y-148474482D01*
X103488072Y-148350000D01*
X103488072Y-146650000D01*
X103475812Y-146525518D01*
X103439502Y-146405820D01*
X103380537Y-146295506D01*
X103301185Y-146198815D01*
X103204494Y-146119463D01*
X103094180Y-146060498D01*
X102974482Y-146024188D01*
X102850000Y-146011928D01*
X101150000Y-146011928D01*
X101025518Y-146024188D01*
X100905820Y-146060498D01*
X100795506Y-146119463D01*
X100698815Y-146198815D01*
X100619463Y-146295506D01*
X100560498Y-146405820D01*
X100538487Y-146478380D01*
X100406632Y-146346525D01*
X100163411Y-146184010D01*
X99893158Y-146072068D01*
X99606260Y-146015000D01*
X99313740Y-146015000D01*
X99026842Y-146072068D01*
X98756589Y-146184010D01*
X98513368Y-146346525D01*
X98306525Y-146553368D01*
X98144010Y-146796589D01*
X98032068Y-147066842D01*
X97975000Y-147353740D01*
X91933783Y-147353740D01*
X91900299Y-147272905D01*
X91732312Y-147021495D01*
X91518505Y-146807688D01*
X91267095Y-146639701D01*
X90987743Y-146523989D01*
X90691184Y-146465000D01*
X90388816Y-146465000D01*
X90092257Y-146523989D01*
X89812905Y-146639701D01*
X89561495Y-146807688D01*
X89495056Y-146874127D01*
X89489502Y-146855820D01*
X89430537Y-146745506D01*
X89351185Y-146648815D01*
X89254494Y-146569463D01*
X89144180Y-146510498D01*
X89024482Y-146474188D01*
X88900000Y-146461928D01*
X87100000Y-146461928D01*
X86975518Y-146474188D01*
X86855820Y-146510498D01*
X86745506Y-146569463D01*
X86648815Y-146648815D01*
X86569463Y-146745506D01*
X86510498Y-146855820D01*
X86474188Y-146975518D01*
X86461928Y-147100000D01*
X80284768Y-147100000D01*
X80232312Y-147021495D01*
X80018505Y-146807688D01*
X79767095Y-146639701D01*
X79487743Y-146523989D01*
X79191184Y-146465000D01*
X78888816Y-146465000D01*
X78592257Y-146523989D01*
X78312905Y-146639701D01*
X78061495Y-146807688D01*
X77995056Y-146874127D01*
X77989502Y-146855820D01*
X77930537Y-146745506D01*
X77851185Y-146648815D01*
X77754494Y-146569463D01*
X77644180Y-146510498D01*
X77524482Y-146474188D01*
X77400000Y-146461928D01*
X76142797Y-146461928D01*
X74346401Y-144665533D01*
X74515021Y-144778201D01*
X75085554Y-145014524D01*
X75691229Y-145135000D01*
X76308771Y-145135000D01*
X76914446Y-145014524D01*
X77484979Y-144778201D01*
X77998446Y-144435114D01*
X78435114Y-143998446D01*
X78778201Y-143484979D01*
X79014524Y-142914446D01*
X79135000Y-142308771D01*
X79135000Y-141691229D01*
X79068850Y-141358665D01*
X81565000Y-141358665D01*
X81565000Y-141641335D01*
X81620147Y-141918574D01*
X81728320Y-142179727D01*
X81885363Y-142414759D01*
X82085241Y-142614637D01*
X82320273Y-142771680D01*
X82581426Y-142879853D01*
X82858665Y-142935000D01*
X83141335Y-142935000D01*
X83418574Y-142879853D01*
X83679727Y-142771680D01*
X83914759Y-142614637D01*
X84114637Y-142414759D01*
X84271680Y-142179727D01*
X84379853Y-141918574D01*
X84435000Y-141641335D01*
X84435000Y-141479268D01*
X88165000Y-141479268D01*
X88165000Y-141840732D01*
X88235518Y-142195250D01*
X88373844Y-142529199D01*
X88574662Y-142829744D01*
X88830256Y-143085338D01*
X89130801Y-143286156D01*
X89464750Y-143424482D01*
X89819268Y-143495000D01*
X90180732Y-143495000D01*
X90535250Y-143424482D01*
X90694146Y-143358665D01*
X97565000Y-143358665D01*
X97565000Y-143641335D01*
X97620147Y-143918574D01*
X97728320Y-144179727D01*
X97885363Y-144414759D01*
X98085241Y-144614637D01*
X98320273Y-144771680D01*
X98581426Y-144879853D01*
X98858665Y-144935000D01*
X99141335Y-144935000D01*
X99418574Y-144879853D01*
X99679727Y-144771680D01*
X99914759Y-144614637D01*
X100114637Y-144414759D01*
X100271680Y-144179727D01*
X100379853Y-143918574D01*
X100393684Y-143849039D01*
X105228096Y-143849039D01*
X105268754Y-143983087D01*
X105388963Y-144237420D01*
X105556481Y-144463414D01*
X105764869Y-144652385D01*
X106006119Y-144797070D01*
X106270960Y-144891909D01*
X106493000Y-144770624D01*
X106493000Y-143627000D01*
X105350085Y-143627000D01*
X105228096Y-143849039D01*
X100393684Y-143849039D01*
X100435000Y-143641335D01*
X100435000Y-143358665D01*
X100393685Y-143150961D01*
X105228096Y-143150961D01*
X105350085Y-143373000D01*
X106493000Y-143373000D01*
X106493000Y-142229376D01*
X106270960Y-142108091D01*
X106006119Y-142202930D01*
X105764869Y-142347615D01*
X105556481Y-142536586D01*
X105388963Y-142762580D01*
X105268754Y-143016913D01*
X105228096Y-143150961D01*
X100393685Y-143150961D01*
X100379853Y-143081426D01*
X100271680Y-142820273D01*
X100114637Y-142585241D01*
X99914759Y-142385363D01*
X99679727Y-142228320D01*
X99418574Y-142120147D01*
X99141335Y-142065000D01*
X98858665Y-142065000D01*
X98581426Y-142120147D01*
X98320273Y-142228320D01*
X98085241Y-142385363D01*
X97885363Y-142585241D01*
X97728320Y-142820273D01*
X97620147Y-143081426D01*
X97565000Y-143358665D01*
X90694146Y-143358665D01*
X90869199Y-143286156D01*
X91169744Y-143085338D01*
X91425338Y-142829744D01*
X91626156Y-142529199D01*
X91764482Y-142195250D01*
X91835000Y-141840732D01*
X91835000Y-141479268D01*
X91811011Y-141358665D01*
X93065000Y-141358665D01*
X93065000Y-141641335D01*
X93120147Y-141918574D01*
X93228320Y-142179727D01*
X93385363Y-142414759D01*
X93585241Y-142614637D01*
X93820273Y-142771680D01*
X94081426Y-142879853D01*
X94358665Y-142935000D01*
X94641335Y-142935000D01*
X94918574Y-142879853D01*
X95179727Y-142771680D01*
X95414759Y-142614637D01*
X95614637Y-142414759D01*
X95771680Y-142179727D01*
X95879853Y-141918574D01*
X95935000Y-141641335D01*
X95935000Y-141358665D01*
X95879853Y-141081426D01*
X95771680Y-140820273D01*
X95614637Y-140585241D01*
X95414759Y-140385363D01*
X95179727Y-140228320D01*
X94918574Y-140120147D01*
X94641335Y-140065000D01*
X94358665Y-140065000D01*
X94081426Y-140120147D01*
X93820273Y-140228320D01*
X93585241Y-140385363D01*
X93385363Y-140585241D01*
X93228320Y-140820273D01*
X93120147Y-141081426D01*
X93065000Y-141358665D01*
X91811011Y-141358665D01*
X91764482Y-141124750D01*
X91626156Y-140790801D01*
X91425338Y-140490256D01*
X91169744Y-140234662D01*
X90869199Y-140033844D01*
X90535250Y-139895518D01*
X90180732Y-139825000D01*
X89819268Y-139825000D01*
X89464750Y-139895518D01*
X89130801Y-140033844D01*
X88830256Y-140234662D01*
X88574662Y-140490256D01*
X88373844Y-140790801D01*
X88235518Y-141124750D01*
X88165000Y-141479268D01*
X84435000Y-141479268D01*
X84435000Y-141358665D01*
X84379853Y-141081426D01*
X84271680Y-140820273D01*
X84114637Y-140585241D01*
X83914759Y-140385363D01*
X83679727Y-140228320D01*
X83418574Y-140120147D01*
X83141335Y-140065000D01*
X82858665Y-140065000D01*
X82581426Y-140120147D01*
X82320273Y-140228320D01*
X82085241Y-140385363D01*
X81885363Y-140585241D01*
X81728320Y-140820273D01*
X81620147Y-141081426D01*
X81565000Y-141358665D01*
X79068850Y-141358665D01*
X79014524Y-141085554D01*
X78778201Y-140515021D01*
X78435114Y-140001554D01*
X77998446Y-139564886D01*
X77484979Y-139221799D01*
X76914446Y-138985476D01*
X76308771Y-138865000D01*
X75691229Y-138865000D01*
X75085554Y-138985476D01*
X74515021Y-139221799D01*
X74001554Y-139564886D01*
X73564886Y-140001554D01*
X73221799Y-140515021D01*
X72985476Y-141085554D01*
X72865000Y-141691229D01*
X72865000Y-142308771D01*
X72985476Y-142914446D01*
X73221799Y-143484979D01*
X73334468Y-143653600D01*
X71835000Y-142154133D01*
X71835000Y-135070512D01*
X72559783Y-135070512D01*
X72601213Y-135350130D01*
X72696397Y-135616292D01*
X72761616Y-135738309D01*
X72748815Y-135748815D01*
X72669463Y-135845506D01*
X72610498Y-135955820D01*
X72574188Y-136075518D01*
X72561928Y-136200000D01*
X72561928Y-137800000D01*
X72574188Y-137924482D01*
X72610498Y-138044180D01*
X72669463Y-138154494D01*
X72748815Y-138251185D01*
X72845506Y-138330537D01*
X72955820Y-138389502D01*
X73075518Y-138425812D01*
X73200000Y-138438072D01*
X74800000Y-138438072D01*
X74924482Y-138425812D01*
X75044180Y-138389502D01*
X75154494Y-138330537D01*
X75251185Y-138251185D01*
X75330537Y-138154494D01*
X75389502Y-138044180D01*
X75425812Y-137924482D01*
X75438072Y-137800000D01*
X75438072Y-136200000D01*
X75425812Y-136075518D01*
X75389502Y-135955820D01*
X75330537Y-135845506D01*
X75251185Y-135748815D01*
X75238242Y-135738193D01*
X75357571Y-135486004D01*
X75426300Y-135211816D01*
X75440217Y-134929488D01*
X75398787Y-134649870D01*
X75303603Y-134383708D01*
X75236671Y-134258486D01*
X74992702Y-134186903D01*
X74179605Y-135000000D01*
X74193748Y-135014143D01*
X74014143Y-135193748D01*
X74000000Y-135179605D01*
X73985858Y-135193748D01*
X73806253Y-135014143D01*
X73820395Y-135000000D01*
X73007298Y-134186903D01*
X72763329Y-134258486D01*
X72642429Y-134513996D01*
X72573700Y-134788184D01*
X72559783Y-135070512D01*
X71835000Y-135070512D01*
X71835000Y-134613285D01*
X71917205Y-134490256D01*
X71995226Y-134301898D01*
X72035000Y-134101939D01*
X72035000Y-134007298D01*
X73186903Y-134007298D01*
X74000000Y-134820395D01*
X74813097Y-134007298D01*
X74741514Y-133763329D01*
X74486004Y-133642429D01*
X74211816Y-133573700D01*
X73929488Y-133559783D01*
X73649870Y-133601213D01*
X73383708Y-133696397D01*
X73258486Y-133763329D01*
X73186903Y-134007298D01*
X72035000Y-134007298D01*
X72035000Y-133898061D01*
X71995226Y-133698102D01*
X71917205Y-133509744D01*
X71803937Y-133340226D01*
X71659774Y-133196063D01*
X71490256Y-133082795D01*
X71301898Y-133004774D01*
X71101939Y-132965000D01*
X70898061Y-132965000D01*
X70698102Y-133004774D01*
X70509744Y-133082795D01*
X70340226Y-133196063D01*
X70196063Y-133340226D01*
X70082795Y-133509744D01*
X70004774Y-133698102D01*
X69965000Y-133898061D01*
X68547457Y-133898061D01*
X68414759Y-133765363D01*
X68179727Y-133608320D01*
X67918574Y-133500147D01*
X67641335Y-133445000D01*
X67358665Y-133445000D01*
X67081426Y-133500147D01*
X66820273Y-133608320D01*
X66585241Y-133765363D01*
X66385363Y-133965241D01*
X66228320Y-134200273D01*
X66120147Y-134461426D01*
X66065000Y-134738665D01*
X63935000Y-134738665D01*
X63879853Y-134461426D01*
X63771680Y-134200273D01*
X63614637Y-133965241D01*
X63414759Y-133765363D01*
X63179727Y-133608320D01*
X62918574Y-133500147D01*
X62641335Y-133445000D01*
X62358665Y-133445000D01*
X62081426Y-133500147D01*
X61820273Y-133608320D01*
X61585241Y-133765363D01*
X61385363Y-133965241D01*
X61228320Y-134200273D01*
X61120147Y-134461426D01*
X61065000Y-134738665D01*
X58935000Y-134738665D01*
X58879853Y-134461426D01*
X58771680Y-134200273D01*
X58614637Y-133965241D01*
X58414759Y-133765363D01*
X58179727Y-133608320D01*
X57918574Y-133500147D01*
X57641335Y-133445000D01*
X57358665Y-133445000D01*
X57081426Y-133500147D01*
X56820273Y-133608320D01*
X56585241Y-133765363D01*
X56385363Y-133965241D01*
X56228320Y-134200273D01*
X56120147Y-134461426D01*
X56065000Y-134738665D01*
X53935000Y-134738665D01*
X53879853Y-134461426D01*
X53771680Y-134200273D01*
X53614637Y-133965241D01*
X53414759Y-133765363D01*
X53179727Y-133608320D01*
X52918574Y-133500147D01*
X52641335Y-133445000D01*
X52358665Y-133445000D01*
X52081426Y-133500147D01*
X51820273Y-133608320D01*
X51585241Y-133765363D01*
X51385363Y-133965241D01*
X51228320Y-134200273D01*
X51120147Y-134461426D01*
X51065000Y-134738665D01*
X48935000Y-134738665D01*
X48879853Y-134461426D01*
X48771680Y-134200273D01*
X48614637Y-133965241D01*
X48414759Y-133765363D01*
X48179727Y-133608320D01*
X47918574Y-133500147D01*
X47641335Y-133445000D01*
X47358665Y-133445000D01*
X47081426Y-133500147D01*
X46820273Y-133608320D01*
X46585241Y-133765363D01*
X46385363Y-133965241D01*
X46228320Y-134200273D01*
X46120147Y-134461426D01*
X46065000Y-134738665D01*
X44635000Y-134738665D01*
X44635000Y-134669678D01*
X44611343Y-134429484D01*
X44517852Y-134121285D01*
X44366031Y-133837248D01*
X44161714Y-133588286D01*
X43912752Y-133383969D01*
X43628715Y-133232148D01*
X43320516Y-133138657D01*
X43000000Y-133107089D01*
X42679485Y-133138657D01*
X42371286Y-133232148D01*
X42087249Y-133383969D01*
X41838287Y-133588286D01*
X41633970Y-133837248D01*
X41482149Y-134121285D01*
X41388658Y-134429484D01*
X41365001Y-134669678D01*
X41365000Y-137330321D01*
X38502905Y-137330321D01*
X38539000Y-137127000D01*
X38539000Y-136127000D01*
X37031000Y-136127000D01*
X36777000Y-136127000D01*
X36757000Y-136127000D01*
X36757000Y-135873000D01*
X36777000Y-135873000D01*
X36777000Y-133529223D01*
X37031000Y-133529223D01*
X37031000Y-135873000D01*
X38539000Y-135873000D01*
X38539000Y-134873000D01*
X38482807Y-134556468D01*
X38365942Y-134256980D01*
X38192895Y-133986046D01*
X37970317Y-133754078D01*
X37706761Y-133569990D01*
X37412355Y-133440856D01*
X37284434Y-133409876D01*
X37031000Y-133529223D01*
X36777000Y-133529223D01*
X36523566Y-133409876D01*
X36395645Y-133440856D01*
X36101239Y-133569990D01*
X35837683Y-133754078D01*
X35660000Y-133939257D01*
X35660000Y-130978665D01*
X51065000Y-130978665D01*
X51065000Y-131261335D01*
X51120147Y-131538574D01*
X51228320Y-131799727D01*
X51385363Y-132034759D01*
X51585241Y-132234637D01*
X51820273Y-132391680D01*
X52081426Y-132499853D01*
X52358665Y-132555000D01*
X52641335Y-132555000D01*
X52918574Y-132499853D01*
X53179727Y-132391680D01*
X53414759Y-132234637D01*
X53614637Y-132034759D01*
X53771680Y-131799727D01*
X53879853Y-131538574D01*
X53935000Y-131261335D01*
X53935000Y-130978665D01*
X56065000Y-130978665D01*
X56065000Y-131261335D01*
X56120147Y-131538574D01*
X56228320Y-131799727D01*
X56385363Y-132034759D01*
X56585241Y-132234637D01*
X56820273Y-132391680D01*
X57081426Y-132499853D01*
X57358665Y-132555000D01*
X57641335Y-132555000D01*
X57918574Y-132499853D01*
X58179727Y-132391680D01*
X58414759Y-132234637D01*
X58614637Y-132034759D01*
X58771680Y-131799727D01*
X58879853Y-131538574D01*
X58935000Y-131261335D01*
X58935000Y-130978665D01*
X58879853Y-130701426D01*
X58771680Y-130440273D01*
X58614637Y-130205241D01*
X58414759Y-130005363D01*
X58179727Y-129848320D01*
X57918574Y-129740147D01*
X57641335Y-129685000D01*
X57358665Y-129685000D01*
X57081426Y-129740147D01*
X56820273Y-129848320D01*
X56585241Y-130005363D01*
X56385363Y-130205241D01*
X56228320Y-130440273D01*
X56120147Y-130701426D01*
X56065000Y-130978665D01*
X53935000Y-130978665D01*
X53879853Y-130701426D01*
X53771680Y-130440273D01*
X53614637Y-130205241D01*
X53414759Y-130005363D01*
X53179727Y-129848320D01*
X52918574Y-129740147D01*
X52641335Y-129685000D01*
X52358665Y-129685000D01*
X52081426Y-129740147D01*
X51820273Y-129848320D01*
X51585241Y-130005363D01*
X51385363Y-130205241D01*
X51228320Y-130440273D01*
X51120147Y-130701426D01*
X51065000Y-130978665D01*
X35660000Y-130978665D01*
X35660000Y-126029392D01*
X35690180Y-125691229D01*
X36865000Y-125691229D01*
X36865000Y-126308771D01*
X36985476Y-126914446D01*
X37221799Y-127484979D01*
X37564886Y-127998446D01*
X38001554Y-128435114D01*
X38515021Y-128778201D01*
X39085554Y-129014524D01*
X39691229Y-129135000D01*
X40308771Y-129135000D01*
X40914446Y-129014524D01*
X41484979Y-128778201D01*
X41998446Y-128435114D01*
X42435114Y-127998446D01*
X42778201Y-127484979D01*
X42949879Y-127070512D01*
X45559783Y-127070512D01*
X45601213Y-127350130D01*
X45696397Y-127616292D01*
X45761616Y-127738309D01*
X45748815Y-127748815D01*
X45669463Y-127845506D01*
X45610498Y-127955820D01*
X45574188Y-128075518D01*
X45561928Y-128200000D01*
X45561928Y-129800000D01*
X45574188Y-129924482D01*
X45610498Y-130044180D01*
X45669463Y-130154494D01*
X45748815Y-130251185D01*
X45845506Y-130330537D01*
X45955820Y-130389502D01*
X46075518Y-130425812D01*
X46200000Y-130438072D01*
X47800000Y-130438072D01*
X47924482Y-130425812D01*
X48044180Y-130389502D01*
X48154494Y-130330537D01*
X48251185Y-130251185D01*
X48330537Y-130154494D01*
X48389502Y-130044180D01*
X48425812Y-129924482D01*
X48438072Y-129800000D01*
X48438072Y-128200000D01*
X48425812Y-128075518D01*
X48389502Y-127955820D01*
X48330537Y-127845506D01*
X48251185Y-127748815D01*
X48238242Y-127738193D01*
X48357571Y-127486004D01*
X48426300Y-127211816D01*
X48440217Y-126929488D01*
X48398787Y-126649870D01*
X48303603Y-126383708D01*
X48236671Y-126258486D01*
X47992702Y-126186903D01*
X47179605Y-127000000D01*
X47193748Y-127014143D01*
X47014143Y-127193748D01*
X47000000Y-127179605D01*
X46985858Y-127193748D01*
X46806253Y-127014143D01*
X46820395Y-127000000D01*
X46007298Y-126186903D01*
X45763329Y-126258486D01*
X45642429Y-126513996D01*
X45573700Y-126788184D01*
X45559783Y-127070512D01*
X42949879Y-127070512D01*
X43014524Y-126914446D01*
X43135000Y-126308771D01*
X43135000Y-126007298D01*
X46186903Y-126007298D01*
X47000000Y-126820395D01*
X47813097Y-126007298D01*
X47741514Y-125763329D01*
X47486004Y-125642429D01*
X47211816Y-125573700D01*
X46929488Y-125559783D01*
X46649870Y-125601213D01*
X46383708Y-125696397D01*
X46258486Y-125763329D01*
X46186903Y-126007298D01*
X43135000Y-126007298D01*
X43135000Y-125691229D01*
X43014524Y-125085554D01*
X42778201Y-124515021D01*
X42435114Y-124001554D01*
X41998446Y-123564886D01*
X41689814Y-123358665D01*
X51065000Y-123358665D01*
X51065000Y-123641335D01*
X51120147Y-123918574D01*
X51228320Y-124179727D01*
X51385363Y-124414759D01*
X51585241Y-124614637D01*
X51820273Y-124771680D01*
X52081426Y-124879853D01*
X52358665Y-124935000D01*
X52641335Y-124935000D01*
X52918574Y-124879853D01*
X53179727Y-124771680D01*
X53414759Y-124614637D01*
X53614637Y-124414759D01*
X53771680Y-124179727D01*
X53879853Y-123918574D01*
X53935000Y-123641335D01*
X53935000Y-123358665D01*
X56065000Y-123358665D01*
X56065000Y-123641335D01*
X56120147Y-123918574D01*
X56228320Y-124179727D01*
X56385363Y-124414759D01*
X56585241Y-124614637D01*
X56820273Y-124771680D01*
X57081426Y-124879853D01*
X57358665Y-124935000D01*
X57641335Y-124935000D01*
X57918574Y-124879853D01*
X58179727Y-124771680D01*
X58414759Y-124614637D01*
X58614637Y-124414759D01*
X58771680Y-124179727D01*
X58879853Y-123918574D01*
X58935000Y-123641335D01*
X58935000Y-123358665D01*
X58879853Y-123081426D01*
X58771680Y-122820273D01*
X58614637Y-122585241D01*
X58414759Y-122385363D01*
X58179727Y-122228320D01*
X57918574Y-122120147D01*
X57641335Y-122065000D01*
X57358665Y-122065000D01*
X57081426Y-122120147D01*
X56820273Y-122228320D01*
X56585241Y-122385363D01*
X56385363Y-122585241D01*
X56228320Y-122820273D01*
X56120147Y-123081426D01*
X56065000Y-123358665D01*
X53935000Y-123358665D01*
X53879853Y-123081426D01*
X53771680Y-122820273D01*
X53614637Y-122585241D01*
X53414759Y-122385363D01*
X53179727Y-122228320D01*
X52918574Y-122120147D01*
X52641335Y-122065000D01*
X52358665Y-122065000D01*
X52081426Y-122120147D01*
X51820273Y-122228320D01*
X51585241Y-122385363D01*
X51385363Y-122585241D01*
X51228320Y-122820273D01*
X51120147Y-123081426D01*
X51065000Y-123358665D01*
X41689814Y-123358665D01*
X41484979Y-123221799D01*
X40914446Y-122985476D01*
X40308771Y-122865000D01*
X39691229Y-122865000D01*
X39085554Y-122985476D01*
X38515021Y-123221799D01*
X38001554Y-123564886D01*
X37564886Y-124001554D01*
X37221799Y-124515021D01*
X36985476Y-125085554D01*
X36865000Y-125691229D01*
X35690180Y-125691229D01*
X35731173Y-125231917D01*
X35934656Y-124488109D01*
X36266638Y-123792095D01*
X36716626Y-123165870D01*
X37270403Y-122629223D01*
X37910451Y-122199129D01*
X38616553Y-121889171D01*
X39371457Y-121707935D01*
X40024207Y-121660000D01*
X81755229Y-121660000D01*
X81728320Y-121700273D01*
G37*
G04 #@! TD.AperFunction*
M02*
