G04 #@! TF.GenerationSoftware,KiCad,Pcbnew,(5.1.10)-1*
G04 #@! TF.CreationDate,2021-08-27T01:26:18-04:00*
G04 #@! TF.ProjectId,Water_Valve_Sensor,57617465-725f-4566-916c-76655f53656e,rev?*
G04 #@! TF.SameCoordinates,Original*
G04 #@! TF.FileFunction,Copper,L1,Top*
G04 #@! TF.FilePolarity,Positive*
%FSLAX46Y46*%
G04 Gerber Fmt 4.6, Leading zero omitted, Abs format (unit mm)*
G04 Created by KiCad (PCBNEW (5.1.10)-1) date 2021-08-27 01:26:18*
%MOMM*%
%LPD*%
G01*
G04 APERTURE LIST*
G04 #@! TA.AperFunction,ComponentPad*
%ADD10O,1.600000X1.600000*%
G04 #@! TD*
G04 #@! TA.AperFunction,ComponentPad*
%ADD11C,1.600000*%
G04 #@! TD*
G04 #@! TA.AperFunction,ComponentPad*
%ADD12C,2.500000*%
G04 #@! TD*
G04 #@! TA.AperFunction,ConnectorPad*
%ADD13C,5.000000*%
G04 #@! TD*
G04 #@! TA.AperFunction,ComponentPad*
%ADD14C,2.900000*%
G04 #@! TD*
G04 #@! TA.AperFunction,ComponentPad*
%ADD15O,2.000000X4.500000*%
G04 #@! TD*
G04 #@! TA.AperFunction,ComponentPad*
%ADD16O,4.000000X2.000000*%
G04 #@! TD*
G04 #@! TA.AperFunction,ComponentPad*
%ADD17O,2.000000X4.000000*%
G04 #@! TD*
G04 #@! TA.AperFunction,ComponentPad*
%ADD18O,1.700000X1.700000*%
G04 #@! TD*
G04 #@! TA.AperFunction,ComponentPad*
%ADD19R,1.700000X1.700000*%
G04 #@! TD*
G04 #@! TA.AperFunction,ComponentPad*
%ADD20R,1.600000X1.600000*%
G04 #@! TD*
G04 #@! TA.AperFunction,ComponentPad*
%ADD21R,1.300000X1.300000*%
G04 #@! TD*
G04 #@! TA.AperFunction,ComponentPad*
%ADD22C,1.300000*%
G04 #@! TD*
G04 #@! TA.AperFunction,ComponentPad*
%ADD23C,1.800000*%
G04 #@! TD*
G04 #@! TA.AperFunction,ComponentPad*
%ADD24R,1.800000X1.800000*%
G04 #@! TD*
G04 #@! TA.AperFunction,ComponentPad*
%ADD25O,2.400000X2.400000*%
G04 #@! TD*
G04 #@! TA.AperFunction,ComponentPad*
%ADD26R,2.400000X2.400000*%
G04 #@! TD*
G04 #@! TA.AperFunction,ViaPad*
%ADD27C,0.800000*%
G04 #@! TD*
G04 #@! TA.AperFunction,Conductor*
%ADD28C,0.700000*%
G04 #@! TD*
G04 #@! TA.AperFunction,Conductor*
%ADD29C,0.400000*%
G04 #@! TD*
G04 #@! TA.AperFunction,Conductor*
%ADD30C,0.254000*%
G04 #@! TD*
G04 #@! TA.AperFunction,Conductor*
%ADD31C,0.100000*%
G04 #@! TD*
G04 APERTURE END LIST*
D10*
X106620000Y-143500000D03*
D11*
X99000000Y-143500000D03*
D12*
X100500000Y-130700000D03*
X100500000Y-138300000D03*
D13*
X104500000Y-125000000D03*
D14*
X104500000Y-125000000D03*
D15*
X43000000Y-136000000D03*
D16*
X39952000Y-140826000D03*
D17*
X36904000Y-136000000D03*
D18*
X68460000Y-147500000D03*
D19*
X71000000Y-147500000D03*
D13*
X76000000Y-142000000D03*
D14*
X76000000Y-142000000D03*
D13*
X40000000Y-146000000D03*
D14*
X40000000Y-146000000D03*
D13*
X40000000Y-126000000D03*
D14*
X40000000Y-126000000D03*
D18*
X99460000Y-147500000D03*
D19*
X102000000Y-147500000D03*
D18*
X62540000Y-145960000D03*
X62540000Y-148500000D03*
X60000000Y-145960000D03*
X60000000Y-148500000D03*
X57460000Y-145960000D03*
X57460000Y-148500000D03*
X54920000Y-145960000D03*
X54920000Y-148500000D03*
X52380000Y-145960000D03*
D19*
X52380000Y-148500000D03*
D11*
X74000000Y-135000000D03*
D20*
X74000000Y-137000000D03*
G04 #@! TA.AperFunction,SMDPad,CuDef*
G36*
G01*
X66000000Y-125745000D02*
X66000000Y-125445000D01*
G75*
G02*
X66150000Y-125295000I150000J0D01*
G01*
X67800000Y-125295000D01*
G75*
G02*
X67950000Y-125445000I0J-150000D01*
G01*
X67950000Y-125745000D01*
G75*
G02*
X67800000Y-125895000I-150000J0D01*
G01*
X66150000Y-125895000D01*
G75*
G02*
X66000000Y-125745000I0J150000D01*
G01*
G37*
G04 #@! TD.AperFunction*
G04 #@! TA.AperFunction,SMDPad,CuDef*
G36*
G01*
X66000000Y-127015000D02*
X66000000Y-126715000D01*
G75*
G02*
X66150000Y-126565000I150000J0D01*
G01*
X67800000Y-126565000D01*
G75*
G02*
X67950000Y-126715000I0J-150000D01*
G01*
X67950000Y-127015000D01*
G75*
G02*
X67800000Y-127165000I-150000J0D01*
G01*
X66150000Y-127165000D01*
G75*
G02*
X66000000Y-127015000I0J150000D01*
G01*
G37*
G04 #@! TD.AperFunction*
G04 #@! TA.AperFunction,SMDPad,CuDef*
G36*
G01*
X66000000Y-128285000D02*
X66000000Y-127985000D01*
G75*
G02*
X66150000Y-127835000I150000J0D01*
G01*
X67800000Y-127835000D01*
G75*
G02*
X67950000Y-127985000I0J-150000D01*
G01*
X67950000Y-128285000D01*
G75*
G02*
X67800000Y-128435000I-150000J0D01*
G01*
X66150000Y-128435000D01*
G75*
G02*
X66000000Y-128285000I0J150000D01*
G01*
G37*
G04 #@! TD.AperFunction*
G04 #@! TA.AperFunction,SMDPad,CuDef*
G36*
G01*
X66000000Y-129555000D02*
X66000000Y-129255000D01*
G75*
G02*
X66150000Y-129105000I150000J0D01*
G01*
X67800000Y-129105000D01*
G75*
G02*
X67950000Y-129255000I0J-150000D01*
G01*
X67950000Y-129555000D01*
G75*
G02*
X67800000Y-129705000I-150000J0D01*
G01*
X66150000Y-129705000D01*
G75*
G02*
X66000000Y-129555000I0J150000D01*
G01*
G37*
G04 #@! TD.AperFunction*
G04 #@! TA.AperFunction,SMDPad,CuDef*
G36*
G01*
X61050000Y-129555000D02*
X61050000Y-129255000D01*
G75*
G02*
X61200000Y-129105000I150000J0D01*
G01*
X62850000Y-129105000D01*
G75*
G02*
X63000000Y-129255000I0J-150000D01*
G01*
X63000000Y-129555000D01*
G75*
G02*
X62850000Y-129705000I-150000J0D01*
G01*
X61200000Y-129705000D01*
G75*
G02*
X61050000Y-129555000I0J150000D01*
G01*
G37*
G04 #@! TD.AperFunction*
G04 #@! TA.AperFunction,SMDPad,CuDef*
G36*
G01*
X61050000Y-128285000D02*
X61050000Y-127985000D01*
G75*
G02*
X61200000Y-127835000I150000J0D01*
G01*
X62850000Y-127835000D01*
G75*
G02*
X63000000Y-127985000I0J-150000D01*
G01*
X63000000Y-128285000D01*
G75*
G02*
X62850000Y-128435000I-150000J0D01*
G01*
X61200000Y-128435000D01*
G75*
G02*
X61050000Y-128285000I0J150000D01*
G01*
G37*
G04 #@! TD.AperFunction*
G04 #@! TA.AperFunction,SMDPad,CuDef*
G36*
G01*
X61050000Y-127015000D02*
X61050000Y-126715000D01*
G75*
G02*
X61200000Y-126565000I150000J0D01*
G01*
X62850000Y-126565000D01*
G75*
G02*
X63000000Y-126715000I0J-150000D01*
G01*
X63000000Y-127015000D01*
G75*
G02*
X62850000Y-127165000I-150000J0D01*
G01*
X61200000Y-127165000D01*
G75*
G02*
X61050000Y-127015000I0J150000D01*
G01*
G37*
G04 #@! TD.AperFunction*
G04 #@! TA.AperFunction,SMDPad,CuDef*
G36*
G01*
X61050000Y-125745000D02*
X61050000Y-125445000D01*
G75*
G02*
X61200000Y-125295000I150000J0D01*
G01*
X62850000Y-125295000D01*
G75*
G02*
X63000000Y-125445000I0J-150000D01*
G01*
X63000000Y-125745000D01*
G75*
G02*
X62850000Y-125895000I-150000J0D01*
G01*
X61200000Y-125895000D01*
G75*
G02*
X61050000Y-125745000I0J150000D01*
G01*
G37*
G04 #@! TD.AperFunction*
G04 #@! TA.AperFunction,SMDPad,CuDef*
G36*
G01*
X84500000Y-134245000D02*
X84500000Y-133945000D01*
G75*
G02*
X84650000Y-133795000I150000J0D01*
G01*
X86300000Y-133795000D01*
G75*
G02*
X86450000Y-133945000I0J-150000D01*
G01*
X86450000Y-134245000D01*
G75*
G02*
X86300000Y-134395000I-150000J0D01*
G01*
X84650000Y-134395000D01*
G75*
G02*
X84500000Y-134245000I0J150000D01*
G01*
G37*
G04 #@! TD.AperFunction*
G04 #@! TA.AperFunction,SMDPad,CuDef*
G36*
G01*
X84500000Y-135515000D02*
X84500000Y-135215000D01*
G75*
G02*
X84650000Y-135065000I150000J0D01*
G01*
X86300000Y-135065000D01*
G75*
G02*
X86450000Y-135215000I0J-150000D01*
G01*
X86450000Y-135515000D01*
G75*
G02*
X86300000Y-135665000I-150000J0D01*
G01*
X84650000Y-135665000D01*
G75*
G02*
X84500000Y-135515000I0J150000D01*
G01*
G37*
G04 #@! TD.AperFunction*
G04 #@! TA.AperFunction,SMDPad,CuDef*
G36*
G01*
X84500000Y-136785000D02*
X84500000Y-136485000D01*
G75*
G02*
X84650000Y-136335000I150000J0D01*
G01*
X86300000Y-136335000D01*
G75*
G02*
X86450000Y-136485000I0J-150000D01*
G01*
X86450000Y-136785000D01*
G75*
G02*
X86300000Y-136935000I-150000J0D01*
G01*
X84650000Y-136935000D01*
G75*
G02*
X84500000Y-136785000I0J150000D01*
G01*
G37*
G04 #@! TD.AperFunction*
G04 #@! TA.AperFunction,SMDPad,CuDef*
G36*
G01*
X84500000Y-138055000D02*
X84500000Y-137755000D01*
G75*
G02*
X84650000Y-137605000I150000J0D01*
G01*
X86300000Y-137605000D01*
G75*
G02*
X86450000Y-137755000I0J-150000D01*
G01*
X86450000Y-138055000D01*
G75*
G02*
X86300000Y-138205000I-150000J0D01*
G01*
X84650000Y-138205000D01*
G75*
G02*
X84500000Y-138055000I0J150000D01*
G01*
G37*
G04 #@! TD.AperFunction*
G04 #@! TA.AperFunction,SMDPad,CuDef*
G36*
G01*
X79550000Y-138055000D02*
X79550000Y-137755000D01*
G75*
G02*
X79700000Y-137605000I150000J0D01*
G01*
X81350000Y-137605000D01*
G75*
G02*
X81500000Y-137755000I0J-150000D01*
G01*
X81500000Y-138055000D01*
G75*
G02*
X81350000Y-138205000I-150000J0D01*
G01*
X79700000Y-138205000D01*
G75*
G02*
X79550000Y-138055000I0J150000D01*
G01*
G37*
G04 #@! TD.AperFunction*
G04 #@! TA.AperFunction,SMDPad,CuDef*
G36*
G01*
X79550000Y-136785000D02*
X79550000Y-136485000D01*
G75*
G02*
X79700000Y-136335000I150000J0D01*
G01*
X81350000Y-136335000D01*
G75*
G02*
X81500000Y-136485000I0J-150000D01*
G01*
X81500000Y-136785000D01*
G75*
G02*
X81350000Y-136935000I-150000J0D01*
G01*
X79700000Y-136935000D01*
G75*
G02*
X79550000Y-136785000I0J150000D01*
G01*
G37*
G04 #@! TD.AperFunction*
G04 #@! TA.AperFunction,SMDPad,CuDef*
G36*
G01*
X79550000Y-135515000D02*
X79550000Y-135215000D01*
G75*
G02*
X79700000Y-135065000I150000J0D01*
G01*
X81350000Y-135065000D01*
G75*
G02*
X81500000Y-135215000I0J-150000D01*
G01*
X81500000Y-135515000D01*
G75*
G02*
X81350000Y-135665000I-150000J0D01*
G01*
X79700000Y-135665000D01*
G75*
G02*
X79550000Y-135515000I0J150000D01*
G01*
G37*
G04 #@! TD.AperFunction*
G04 #@! TA.AperFunction,SMDPad,CuDef*
G36*
G01*
X79550000Y-134245000D02*
X79550000Y-133945000D01*
G75*
G02*
X79700000Y-133795000I150000J0D01*
G01*
X81350000Y-133795000D01*
G75*
G02*
X81500000Y-133945000I0J-150000D01*
G01*
X81500000Y-134245000D01*
G75*
G02*
X81350000Y-134395000I-150000J0D01*
G01*
X79700000Y-134395000D01*
G75*
G02*
X79550000Y-134245000I0J150000D01*
G01*
G37*
G04 #@! TD.AperFunction*
D10*
X83000000Y-149120000D03*
D11*
X83000000Y-141500000D03*
D10*
X83000000Y-122380000D03*
D11*
X83000000Y-130000000D03*
D10*
X69880000Y-130000000D03*
D11*
X77500000Y-130000000D03*
D10*
X77620000Y-126000000D03*
D11*
X70000000Y-126000000D03*
D10*
X94500000Y-149120000D03*
D11*
X94500000Y-141500000D03*
D10*
X67500000Y-134880000D03*
D11*
X67500000Y-142500000D03*
D10*
X62500000Y-134880000D03*
D11*
X62500000Y-142500000D03*
D10*
X57500000Y-134880000D03*
D11*
X57500000Y-142500000D03*
D10*
X52500000Y-134880000D03*
D11*
X52500000Y-142500000D03*
D10*
X47500000Y-134880000D03*
D11*
X47500000Y-142500000D03*
D10*
X52500000Y-131120000D03*
D11*
X52500000Y-123500000D03*
D10*
X57500000Y-131120000D03*
D11*
X57500000Y-123500000D03*
D21*
X89500000Y-127000000D03*
D22*
X89500000Y-124460000D03*
X88230000Y-125730000D03*
D23*
X79040000Y-148000000D03*
D24*
X76500000Y-148000000D03*
D25*
X90000000Y-141660000D03*
D26*
X90000000Y-131500000D03*
D23*
X90540000Y-148000000D03*
D24*
X88000000Y-148000000D03*
D11*
X47000000Y-127000000D03*
D20*
X47000000Y-129000000D03*
D27*
X62000000Y-131000000D03*
X78500000Y-138000000D03*
X64184002Y-125500000D03*
X64500000Y-129500000D03*
X64500000Y-127000000D03*
X83000000Y-136500000D03*
X71000000Y-134000000D03*
D28*
X62000000Y-129430000D02*
X62025000Y-129405000D01*
X62000000Y-131000000D02*
X62000000Y-129430000D01*
X47000000Y-132130402D02*
X47000000Y-129000000D01*
X43130402Y-136000000D02*
X47000000Y-132130402D01*
X43000000Y-136000000D02*
X43130402Y-136000000D01*
X47000000Y-129000000D02*
X52500000Y-123500000D01*
X52500000Y-123500000D02*
X57500000Y-123500000D01*
X64880000Y-123500000D02*
X66975000Y-125595000D01*
X57500000Y-123500000D02*
X64880000Y-123500000D01*
X69595000Y-125595000D02*
X70000000Y-126000000D01*
X66975000Y-125595000D02*
X69595000Y-125595000D01*
X79621998Y-130000000D02*
X83000000Y-130000000D01*
X75621998Y-126000000D02*
X79621998Y-130000000D01*
X70000000Y-126000000D02*
X75621998Y-126000000D01*
X86500000Y-130000000D02*
X89500000Y-127000000D01*
X83000000Y-130000000D02*
X86500000Y-130000000D01*
X88095000Y-134095000D02*
X85475000Y-134095000D01*
X85475000Y-132475000D02*
X83000000Y-130000000D01*
X85475000Y-134095000D02*
X85475000Y-132475000D01*
X90000000Y-136000000D02*
X88095000Y-134095000D01*
X85500000Y-141500000D02*
X83000000Y-141500000D01*
X90000000Y-137000000D02*
X85500000Y-141500000D01*
X90000000Y-136000000D02*
X90000000Y-137000000D01*
X94500000Y-140500000D02*
X90000000Y-136000000D01*
X94500000Y-141500000D02*
X94500000Y-140500000D01*
X96800000Y-127000000D02*
X100500000Y-130700000D01*
X89500000Y-127000000D02*
X96800000Y-127000000D01*
D29*
X93380000Y-148000000D02*
X94500000Y-149120000D01*
X90540000Y-148000000D02*
X93380000Y-148000000D01*
X78595000Y-137905000D02*
X78500000Y-138000000D01*
X80525000Y-137905000D02*
X78595000Y-137905000D01*
X62120000Y-125500000D02*
X62025000Y-125595000D01*
X64184002Y-125500000D02*
X62120000Y-125500000D01*
X87200000Y-147500000D02*
X80525000Y-140825000D01*
X80525000Y-140825000D02*
X80525000Y-137905000D01*
X88500000Y-147500000D02*
X87200000Y-147500000D01*
D28*
X102000000Y-143500000D02*
X102000000Y-147500000D01*
X90000000Y-131500000D02*
X102000000Y-143500000D01*
D29*
X81880000Y-148000000D02*
X83000000Y-149120000D01*
X79040000Y-148000000D02*
X81880000Y-148000000D01*
X64595000Y-129405000D02*
X64500000Y-129500000D01*
X66975000Y-129405000D02*
X64595000Y-129405000D01*
X62160000Y-127000000D02*
X62025000Y-126865000D01*
X64500000Y-127000000D02*
X62160000Y-127000000D01*
X56755000Y-126865000D02*
X52500000Y-131120000D01*
X62025000Y-126865000D02*
X56755000Y-126865000D01*
X68700001Y-147259999D02*
X68460000Y-147500000D01*
X68700001Y-131130001D02*
X68700001Y-147259999D01*
X66975000Y-129405000D02*
X68700001Y-131130001D01*
X82865000Y-136635000D02*
X83000000Y-136500000D01*
X80525000Y-136635000D02*
X82865000Y-136635000D01*
X58065000Y-131120000D02*
X57500000Y-131120000D01*
X61050000Y-128135000D02*
X58065000Y-131120000D01*
X62025000Y-128135000D02*
X61050000Y-128135000D01*
X57500000Y-131120000D02*
X57500000Y-134880000D01*
X52500000Y-134880000D02*
X57500000Y-134880000D01*
X57500000Y-134880000D02*
X62500000Y-134880000D01*
X62500000Y-134880000D02*
X67500000Y-134880000D01*
X66975000Y-128135000D02*
X62025000Y-128135000D01*
X52500000Y-134880000D02*
X47500000Y-134880000D01*
X48920000Y-142500000D02*
X52380000Y-145960000D01*
X47500000Y-142500000D02*
X48920000Y-142500000D01*
X54920000Y-144920000D02*
X54920000Y-145960000D01*
X52500000Y-142500000D02*
X54920000Y-144920000D01*
X57500000Y-145920000D02*
X57460000Y-145960000D01*
X57500000Y-142500000D02*
X57500000Y-145920000D01*
X60000000Y-145000000D02*
X60000000Y-145960000D01*
X62500000Y-142500000D02*
X60000000Y-145000000D01*
X66000000Y-142500000D02*
X62540000Y-145960000D01*
X67500000Y-142500000D02*
X66000000Y-142500000D01*
X78299999Y-130799999D02*
X77500000Y-130000000D01*
X80005707Y-130799999D02*
X78299999Y-130799999D01*
X84570708Y-135365000D02*
X80005707Y-130799999D01*
X85475000Y-135365000D02*
X84570708Y-135365000D01*
X84992166Y-136635000D02*
X85475000Y-136635000D01*
X83722166Y-135365000D02*
X84992166Y-136635000D01*
X80525000Y-135365000D02*
X83722166Y-135365000D01*
X77500000Y-137000000D02*
X79135000Y-135365000D01*
X71000000Y-137000000D02*
X77500000Y-137000000D01*
X69880000Y-135880000D02*
X71000000Y-137000000D01*
X79135000Y-135365000D02*
X80525000Y-135365000D01*
X69880000Y-130000000D02*
X69880000Y-135880000D01*
X71080001Y-133919999D02*
X71000000Y-134000000D01*
X71080001Y-129423999D02*
X71080001Y-133919999D01*
X68521002Y-126865000D02*
X71080001Y-129423999D01*
X66975000Y-126865000D02*
X68521002Y-126865000D01*
D28*
X91840000Y-143500000D02*
X99000000Y-143500000D01*
X90000000Y-141660000D02*
X91840000Y-143500000D01*
X99000000Y-147040000D02*
X99460000Y-147500000D01*
X99000000Y-143500000D02*
X99000000Y-147040000D01*
D30*
X81728320Y-121700273D02*
X81620147Y-121961426D01*
X81565000Y-122238665D01*
X81565000Y-122521335D01*
X81620147Y-122798574D01*
X81728320Y-123059727D01*
X81885363Y-123294759D01*
X82085241Y-123494637D01*
X82320273Y-123651680D01*
X82581426Y-123759853D01*
X82858665Y-123815000D01*
X83141335Y-123815000D01*
X83418574Y-123759853D01*
X83679727Y-123651680D01*
X83914759Y-123494637D01*
X84114637Y-123294759D01*
X84271680Y-123059727D01*
X84379853Y-122798574D01*
X84435000Y-122521335D01*
X84435000Y-122238665D01*
X84379853Y-121961426D01*
X84271680Y-121700273D01*
X84244771Y-121660000D01*
X104467722Y-121660000D01*
X105148126Y-121726714D01*
X105771572Y-121914943D01*
X106346579Y-122220681D01*
X106851247Y-122632279D01*
X107266362Y-123134067D01*
X107576105Y-123706924D01*
X107768682Y-124329039D01*
X107840001Y-125007594D01*
X107840000Y-142747691D01*
X107683519Y-142536586D01*
X107475131Y-142347615D01*
X107233881Y-142202930D01*
X106969040Y-142108091D01*
X106747000Y-142229376D01*
X106747000Y-143373000D01*
X106767000Y-143373000D01*
X106767000Y-143627000D01*
X106747000Y-143627000D01*
X106747000Y-144770624D01*
X106969040Y-144891909D01*
X107233881Y-144797070D01*
X107475131Y-144652385D01*
X107683519Y-144463414D01*
X107840000Y-144252310D01*
X107840000Y-146967721D01*
X107773286Y-147648126D01*
X107585057Y-148271570D01*
X107279323Y-148846573D01*
X106867721Y-149351248D01*
X106365933Y-149766362D01*
X105793077Y-150076104D01*
X105170961Y-150268682D01*
X104492417Y-150340000D01*
X95257072Y-150340000D01*
X95414759Y-150234637D01*
X95614637Y-150034759D01*
X95771680Y-149799727D01*
X95879853Y-149538574D01*
X95935000Y-149261335D01*
X95935000Y-148978665D01*
X95879853Y-148701426D01*
X95771680Y-148440273D01*
X95614637Y-148205241D01*
X95414759Y-148005363D01*
X95179727Y-147848320D01*
X94918574Y-147740147D01*
X94641335Y-147685000D01*
X94358665Y-147685000D01*
X94264582Y-147703715D01*
X93999446Y-147438579D01*
X93973291Y-147406709D01*
X93846146Y-147302364D01*
X93701087Y-147224828D01*
X93543689Y-147177082D01*
X93421019Y-147165000D01*
X93421018Y-147165000D01*
X93380000Y-147160960D01*
X93338982Y-147165000D01*
X91828199Y-147165000D01*
X91732312Y-147021495D01*
X91518505Y-146807688D01*
X91267095Y-146639701D01*
X90987743Y-146523989D01*
X90691184Y-146465000D01*
X90388816Y-146465000D01*
X90092257Y-146523989D01*
X89812905Y-146639701D01*
X89561495Y-146807688D01*
X89495056Y-146874127D01*
X89489502Y-146855820D01*
X89430537Y-146745506D01*
X89351185Y-146648815D01*
X89254494Y-146569463D01*
X89144180Y-146510498D01*
X89024482Y-146474188D01*
X88900000Y-146461928D01*
X87342797Y-146461928D01*
X83660508Y-142779641D01*
X83679727Y-142771680D01*
X83914759Y-142614637D01*
X84044396Y-142485000D01*
X85451620Y-142485000D01*
X85500000Y-142489765D01*
X85548380Y-142485000D01*
X85693094Y-142470747D01*
X85878767Y-142414424D01*
X86049884Y-142322960D01*
X86199870Y-142199870D01*
X86230716Y-142162284D01*
X90500000Y-137893000D01*
X93308009Y-140701009D01*
X93228320Y-140820273D01*
X93120147Y-141081426D01*
X93065000Y-141358665D01*
X93065000Y-141641335D01*
X93120147Y-141918574D01*
X93228320Y-142179727D01*
X93385363Y-142414759D01*
X93485604Y-142515000D01*
X92248001Y-142515000D01*
X91791653Y-142058652D01*
X91835000Y-141840732D01*
X91835000Y-141479268D01*
X91764482Y-141124750D01*
X91626156Y-140790801D01*
X91425338Y-140490256D01*
X91169744Y-140234662D01*
X90869199Y-140033844D01*
X90535250Y-139895518D01*
X90180732Y-139825000D01*
X89819268Y-139825000D01*
X89464750Y-139895518D01*
X89130801Y-140033844D01*
X88830256Y-140234662D01*
X88574662Y-140490256D01*
X88373844Y-140790801D01*
X88235518Y-141124750D01*
X88165000Y-141479268D01*
X88165000Y-141840732D01*
X88235518Y-142195250D01*
X88373844Y-142529199D01*
X88574662Y-142829744D01*
X88830256Y-143085338D01*
X89130801Y-143286156D01*
X89464750Y-143424482D01*
X89819268Y-143495000D01*
X90180732Y-143495000D01*
X90398652Y-143451653D01*
X91109289Y-144162290D01*
X91140130Y-144199870D01*
X91290116Y-144322960D01*
X91446799Y-144406709D01*
X91461233Y-144414424D01*
X91646906Y-144470747D01*
X91840000Y-144489765D01*
X91888380Y-144485000D01*
X97955604Y-144485000D01*
X98015000Y-144544396D01*
X98015001Y-146991610D01*
X98010235Y-147040000D01*
X98019234Y-147131364D01*
X97975000Y-147353740D01*
X97975000Y-147646260D01*
X98032068Y-147933158D01*
X98144010Y-148203411D01*
X98306525Y-148446632D01*
X98513368Y-148653475D01*
X98756589Y-148815990D01*
X99026842Y-148927932D01*
X99313740Y-148985000D01*
X99606260Y-148985000D01*
X99893158Y-148927932D01*
X100163411Y-148815990D01*
X100406632Y-148653475D01*
X100538487Y-148521620D01*
X100560498Y-148594180D01*
X100619463Y-148704494D01*
X100698815Y-148801185D01*
X100795506Y-148880537D01*
X100905820Y-148939502D01*
X101025518Y-148975812D01*
X101150000Y-148988072D01*
X102850000Y-148988072D01*
X102974482Y-148975812D01*
X103094180Y-148939502D01*
X103204494Y-148880537D01*
X103301185Y-148801185D01*
X103380537Y-148704494D01*
X103439502Y-148594180D01*
X103475812Y-148474482D01*
X103488072Y-148350000D01*
X103488072Y-146650000D01*
X103475812Y-146525518D01*
X103439502Y-146405820D01*
X103380537Y-146295506D01*
X103301185Y-146198815D01*
X103204494Y-146119463D01*
X103094180Y-146060498D01*
X102985000Y-146027379D01*
X102985000Y-143849039D01*
X105228096Y-143849039D01*
X105268754Y-143983087D01*
X105388963Y-144237420D01*
X105556481Y-144463414D01*
X105764869Y-144652385D01*
X106006119Y-144797070D01*
X106270960Y-144891909D01*
X106493000Y-144770624D01*
X106493000Y-143627000D01*
X105350085Y-143627000D01*
X105228096Y-143849039D01*
X102985000Y-143849039D01*
X102985000Y-143548380D01*
X102989765Y-143500000D01*
X102970747Y-143306906D01*
X102923442Y-143150961D01*
X105228096Y-143150961D01*
X105350085Y-143373000D01*
X106493000Y-143373000D01*
X106493000Y-142229376D01*
X106270960Y-142108091D01*
X106006119Y-142202930D01*
X105764869Y-142347615D01*
X105556481Y-142536586D01*
X105388963Y-142762580D01*
X105268754Y-143016913D01*
X105228096Y-143150961D01*
X102923442Y-143150961D01*
X102914424Y-143121233D01*
X102822960Y-142950116D01*
X102730710Y-142837709D01*
X102699870Y-142800130D01*
X102662290Y-142769289D01*
X100019317Y-140126316D01*
X100314344Y-140185000D01*
X100685656Y-140185000D01*
X101049834Y-140112561D01*
X101392882Y-139970466D01*
X101701618Y-139764175D01*
X101964175Y-139501618D01*
X102170466Y-139192882D01*
X102312561Y-138849834D01*
X102385000Y-138485656D01*
X102385000Y-138114344D01*
X102312561Y-137750166D01*
X102170466Y-137407118D01*
X101964175Y-137098382D01*
X101701618Y-136835825D01*
X101392882Y-136629534D01*
X101049834Y-136487439D01*
X100685656Y-136415000D01*
X100314344Y-136415000D01*
X99950166Y-136487439D01*
X99607118Y-136629534D01*
X99298382Y-136835825D01*
X99035825Y-137098382D01*
X98829534Y-137407118D01*
X98687439Y-137750166D01*
X98615000Y-138114344D01*
X98615000Y-138485656D01*
X98673684Y-138780684D01*
X91838072Y-131945072D01*
X91838072Y-130300000D01*
X91825812Y-130175518D01*
X91789502Y-130055820D01*
X91730537Y-129945506D01*
X91651185Y-129848815D01*
X91554494Y-129769463D01*
X91444180Y-129710498D01*
X91324482Y-129674188D01*
X91200000Y-129661928D01*
X88800000Y-129661928D01*
X88675518Y-129674188D01*
X88555820Y-129710498D01*
X88445506Y-129769463D01*
X88348815Y-129848815D01*
X88269463Y-129945506D01*
X88210498Y-130055820D01*
X88174188Y-130175518D01*
X88161928Y-130300000D01*
X88161928Y-132700000D01*
X88174188Y-132824482D01*
X88210498Y-132944180D01*
X88269463Y-133054494D01*
X88339513Y-133139851D01*
X88288094Y-133124253D01*
X88143380Y-133110000D01*
X88095000Y-133105235D01*
X88046620Y-133110000D01*
X86460000Y-133110000D01*
X86460000Y-132523380D01*
X86464765Y-132475000D01*
X86445747Y-132281906D01*
X86389424Y-132096233D01*
X86297960Y-131925116D01*
X86217961Y-131827637D01*
X86174870Y-131775130D01*
X86137290Y-131744289D01*
X85378001Y-130985000D01*
X86451620Y-130985000D01*
X86500000Y-130989765D01*
X86548380Y-130985000D01*
X86693094Y-130970747D01*
X86878767Y-130914424D01*
X87049884Y-130822960D01*
X87199870Y-130699870D01*
X87230716Y-130662284D01*
X89604929Y-128288072D01*
X90150000Y-128288072D01*
X90274482Y-128275812D01*
X90394180Y-128239502D01*
X90504494Y-128180537D01*
X90601185Y-128101185D01*
X90680537Y-128004494D01*
X90690957Y-127985000D01*
X96392000Y-127985000D01*
X98665825Y-130258825D01*
X98615000Y-130514344D01*
X98615000Y-130885656D01*
X98687439Y-131249834D01*
X98829534Y-131592882D01*
X99035825Y-131901618D01*
X99298382Y-132164175D01*
X99607118Y-132370466D01*
X99950166Y-132512561D01*
X100314344Y-132585000D01*
X100685656Y-132585000D01*
X101049834Y-132512561D01*
X101392882Y-132370466D01*
X101701618Y-132164175D01*
X101964175Y-131901618D01*
X102170466Y-131592882D01*
X102312561Y-131249834D01*
X102385000Y-130885656D01*
X102385000Y-130514344D01*
X102312561Y-130150166D01*
X102170466Y-129807118D01*
X101964175Y-129498382D01*
X101701618Y-129235825D01*
X101392882Y-129029534D01*
X101049834Y-128887439D01*
X100685656Y-128815000D01*
X100314344Y-128815000D01*
X100058825Y-128865825D01*
X97530716Y-126337716D01*
X97499870Y-126300130D01*
X97349884Y-126177040D01*
X97178767Y-126085576D01*
X96993094Y-126029253D01*
X96848380Y-126015000D01*
X96800000Y-126010235D01*
X96751620Y-126015000D01*
X90690957Y-126015000D01*
X90680537Y-125995506D01*
X90601185Y-125898815D01*
X90504494Y-125819463D01*
X90394180Y-125760498D01*
X90274482Y-125724188D01*
X90150000Y-125711928D01*
X89792828Y-125711928D01*
X89874821Y-125695619D01*
X90108676Y-125598753D01*
X90319140Y-125458125D01*
X90498125Y-125279140D01*
X90638753Y-125068676D01*
X90735619Y-124834821D01*
X90764180Y-124691229D01*
X101365000Y-124691229D01*
X101365000Y-125308771D01*
X101485476Y-125914446D01*
X101721799Y-126484979D01*
X102064886Y-126998446D01*
X102501554Y-127435114D01*
X103015021Y-127778201D01*
X103585554Y-128014524D01*
X104191229Y-128135000D01*
X104808771Y-128135000D01*
X105414446Y-128014524D01*
X105984979Y-127778201D01*
X106498446Y-127435114D01*
X106935114Y-126998446D01*
X107278201Y-126484979D01*
X107514524Y-125914446D01*
X107635000Y-125308771D01*
X107635000Y-124691229D01*
X107514524Y-124085554D01*
X107278201Y-123515021D01*
X106935114Y-123001554D01*
X106498446Y-122564886D01*
X105984979Y-122221799D01*
X105414446Y-121985476D01*
X104808771Y-121865000D01*
X104191229Y-121865000D01*
X103585554Y-121985476D01*
X103015021Y-122221799D01*
X102501554Y-122564886D01*
X102064886Y-123001554D01*
X101721799Y-123515021D01*
X101485476Y-124085554D01*
X101365000Y-124691229D01*
X90764180Y-124691229D01*
X90785000Y-124586561D01*
X90785000Y-124333439D01*
X90735619Y-124085179D01*
X90638753Y-123851324D01*
X90498125Y-123640860D01*
X90319140Y-123461875D01*
X90108676Y-123321247D01*
X89874821Y-123224381D01*
X89626561Y-123175000D01*
X89373439Y-123175000D01*
X89125179Y-123224381D01*
X88891324Y-123321247D01*
X88680860Y-123461875D01*
X88501875Y-123640860D01*
X88361247Y-123851324D01*
X88264381Y-124085179D01*
X88215000Y-124333439D01*
X88215000Y-124445000D01*
X88103439Y-124445000D01*
X87855179Y-124494381D01*
X87621324Y-124591247D01*
X87410860Y-124731875D01*
X87231875Y-124910860D01*
X87091247Y-125121324D01*
X86994381Y-125355179D01*
X86945000Y-125603439D01*
X86945000Y-125856561D01*
X86994381Y-126104821D01*
X87091247Y-126338676D01*
X87231875Y-126549140D01*
X87410860Y-126728125D01*
X87621324Y-126868753D01*
X87855179Y-126965619D01*
X88093897Y-127013102D01*
X86092000Y-129015000D01*
X84044396Y-129015000D01*
X83914759Y-128885363D01*
X83679727Y-128728320D01*
X83418574Y-128620147D01*
X83141335Y-128565000D01*
X82858665Y-128565000D01*
X82581426Y-128620147D01*
X82320273Y-128728320D01*
X82085241Y-128885363D01*
X81955604Y-129015000D01*
X80029998Y-129015000D01*
X78290500Y-127275502D01*
X78299727Y-127271680D01*
X78534759Y-127114637D01*
X78734637Y-126914759D01*
X78891680Y-126679727D01*
X78999853Y-126418574D01*
X79055000Y-126141335D01*
X79055000Y-125858665D01*
X78999853Y-125581426D01*
X78891680Y-125320273D01*
X78734637Y-125085241D01*
X78534759Y-124885363D01*
X78299727Y-124728320D01*
X78038574Y-124620147D01*
X77761335Y-124565000D01*
X77478665Y-124565000D01*
X77201426Y-124620147D01*
X76940273Y-124728320D01*
X76705241Y-124885363D01*
X76505363Y-125085241D01*
X76348320Y-125320273D01*
X76344992Y-125328307D01*
X76321868Y-125300130D01*
X76171882Y-125177040D01*
X76000765Y-125085576D01*
X75815092Y-125029253D01*
X75670378Y-125015000D01*
X75621998Y-125010235D01*
X75573618Y-125015000D01*
X71044396Y-125015000D01*
X70914759Y-124885363D01*
X70679727Y-124728320D01*
X70418574Y-124620147D01*
X70141335Y-124565000D01*
X69858665Y-124565000D01*
X69636061Y-124609279D01*
X69595000Y-124605235D01*
X69546620Y-124610000D01*
X67383000Y-124610000D01*
X65610716Y-122837716D01*
X65579870Y-122800130D01*
X65429884Y-122677040D01*
X65258767Y-122585576D01*
X65073094Y-122529253D01*
X64928380Y-122515000D01*
X64880000Y-122510235D01*
X64831620Y-122515000D01*
X58544396Y-122515000D01*
X58414759Y-122385363D01*
X58179727Y-122228320D01*
X57918574Y-122120147D01*
X57641335Y-122065000D01*
X57358665Y-122065000D01*
X57081426Y-122120147D01*
X56820273Y-122228320D01*
X56585241Y-122385363D01*
X56455604Y-122515000D01*
X53544396Y-122515000D01*
X53414759Y-122385363D01*
X53179727Y-122228320D01*
X52918574Y-122120147D01*
X52641335Y-122065000D01*
X52358665Y-122065000D01*
X52081426Y-122120147D01*
X51820273Y-122228320D01*
X51585241Y-122385363D01*
X51385363Y-122585241D01*
X51228320Y-122820273D01*
X51120147Y-123081426D01*
X51065000Y-123358665D01*
X51065000Y-123541999D01*
X48275629Y-126331371D01*
X48236671Y-126258486D01*
X47992702Y-126186903D01*
X47179605Y-127000000D01*
X47193748Y-127014143D01*
X47014143Y-127193748D01*
X47000000Y-127179605D01*
X46985858Y-127193748D01*
X46806253Y-127014143D01*
X46820395Y-127000000D01*
X46007298Y-126186903D01*
X45763329Y-126258486D01*
X45642429Y-126513996D01*
X45573700Y-126788184D01*
X45559783Y-127070512D01*
X45601213Y-127350130D01*
X45696397Y-127616292D01*
X45761616Y-127738309D01*
X45748815Y-127748815D01*
X45669463Y-127845506D01*
X45610498Y-127955820D01*
X45574188Y-128075518D01*
X45561928Y-128200000D01*
X45561928Y-129800000D01*
X45574188Y-129924482D01*
X45610498Y-130044180D01*
X45669463Y-130154494D01*
X45748815Y-130251185D01*
X45845506Y-130330537D01*
X45955820Y-130389502D01*
X46015001Y-130407454D01*
X46015000Y-131722401D01*
X44154794Y-133582607D01*
X43912752Y-133383969D01*
X43628715Y-133232148D01*
X43320516Y-133138657D01*
X43000000Y-133107089D01*
X42679485Y-133138657D01*
X42371286Y-133232148D01*
X42087249Y-133383969D01*
X41838287Y-133588286D01*
X41633970Y-133837248D01*
X41482149Y-134121285D01*
X41388658Y-134429484D01*
X41365001Y-134669678D01*
X41365000Y-137330321D01*
X41388657Y-137570515D01*
X41482148Y-137878714D01*
X41633969Y-138162751D01*
X41838286Y-138411714D01*
X42087248Y-138616031D01*
X42371285Y-138767852D01*
X42679484Y-138861343D01*
X43000000Y-138892911D01*
X43320515Y-138861343D01*
X43628714Y-138767852D01*
X43912751Y-138616031D01*
X44161714Y-138411714D01*
X44366031Y-138162752D01*
X44517852Y-137878715D01*
X44611343Y-137570516D01*
X44635000Y-137330322D01*
X44635000Y-135888402D01*
X46161280Y-134362123D01*
X46120147Y-134461426D01*
X46065000Y-134738665D01*
X46065000Y-135021335D01*
X46120147Y-135298574D01*
X46228320Y-135559727D01*
X46385363Y-135794759D01*
X46585241Y-135994637D01*
X46820273Y-136151680D01*
X47081426Y-136259853D01*
X47358665Y-136315000D01*
X47641335Y-136315000D01*
X47918574Y-136259853D01*
X48179727Y-136151680D01*
X48414759Y-135994637D01*
X48614637Y-135794759D01*
X48667930Y-135715000D01*
X51332070Y-135715000D01*
X51385363Y-135794759D01*
X51585241Y-135994637D01*
X51820273Y-136151680D01*
X52081426Y-136259853D01*
X52358665Y-136315000D01*
X52641335Y-136315000D01*
X52918574Y-136259853D01*
X53179727Y-136151680D01*
X53414759Y-135994637D01*
X53614637Y-135794759D01*
X53667930Y-135715000D01*
X56332070Y-135715000D01*
X56385363Y-135794759D01*
X56585241Y-135994637D01*
X56820273Y-136151680D01*
X57081426Y-136259853D01*
X57358665Y-136315000D01*
X57641335Y-136315000D01*
X57918574Y-136259853D01*
X58179727Y-136151680D01*
X58414759Y-135994637D01*
X58614637Y-135794759D01*
X58667930Y-135715000D01*
X61332070Y-135715000D01*
X61385363Y-135794759D01*
X61585241Y-135994637D01*
X61820273Y-136151680D01*
X62081426Y-136259853D01*
X62358665Y-136315000D01*
X62641335Y-136315000D01*
X62918574Y-136259853D01*
X63179727Y-136151680D01*
X63414759Y-135994637D01*
X63614637Y-135794759D01*
X63667930Y-135715000D01*
X66332070Y-135715000D01*
X66385363Y-135794759D01*
X66585241Y-135994637D01*
X66820273Y-136151680D01*
X67081426Y-136259853D01*
X67358665Y-136315000D01*
X67641335Y-136315000D01*
X67865001Y-136270509D01*
X67865002Y-141109491D01*
X67641335Y-141065000D01*
X67358665Y-141065000D01*
X67081426Y-141120147D01*
X66820273Y-141228320D01*
X66585241Y-141385363D01*
X66385363Y-141585241D01*
X66332070Y-141665000D01*
X66041018Y-141665000D01*
X66000000Y-141660960D01*
X65836311Y-141677082D01*
X65678913Y-141724828D01*
X65533854Y-141802364D01*
X65440758Y-141878766D01*
X65406709Y-141906709D01*
X65380563Y-141938568D01*
X62817940Y-144501193D01*
X62686260Y-144475000D01*
X62393740Y-144475000D01*
X62106842Y-144532068D01*
X61836589Y-144644010D01*
X61593368Y-144806525D01*
X61386525Y-145013368D01*
X61270000Y-145187760D01*
X61159092Y-145021775D01*
X62264583Y-143916286D01*
X62358665Y-143935000D01*
X62641335Y-143935000D01*
X62918574Y-143879853D01*
X63179727Y-143771680D01*
X63414759Y-143614637D01*
X63614637Y-143414759D01*
X63771680Y-143179727D01*
X63879853Y-142918574D01*
X63935000Y-142641335D01*
X63935000Y-142358665D01*
X63879853Y-142081426D01*
X63771680Y-141820273D01*
X63614637Y-141585241D01*
X63414759Y-141385363D01*
X63179727Y-141228320D01*
X62918574Y-141120147D01*
X62641335Y-141065000D01*
X62358665Y-141065000D01*
X62081426Y-141120147D01*
X61820273Y-141228320D01*
X61585241Y-141385363D01*
X61385363Y-141585241D01*
X61228320Y-141820273D01*
X61120147Y-142081426D01*
X61065000Y-142358665D01*
X61065000Y-142641335D01*
X61083714Y-142735417D01*
X59438579Y-144380554D01*
X59406709Y-144406709D01*
X59317821Y-144515021D01*
X59302364Y-144533855D01*
X59224828Y-144678914D01*
X59219865Y-144695275D01*
X59053368Y-144806525D01*
X58846525Y-145013368D01*
X58730000Y-145187760D01*
X58613475Y-145013368D01*
X58406632Y-144806525D01*
X58335000Y-144758662D01*
X58335000Y-143667930D01*
X58414759Y-143614637D01*
X58614637Y-143414759D01*
X58771680Y-143179727D01*
X58879853Y-142918574D01*
X58935000Y-142641335D01*
X58935000Y-142358665D01*
X58879853Y-142081426D01*
X58771680Y-141820273D01*
X58614637Y-141585241D01*
X58414759Y-141385363D01*
X58179727Y-141228320D01*
X57918574Y-141120147D01*
X57641335Y-141065000D01*
X57358665Y-141065000D01*
X57081426Y-141120147D01*
X56820273Y-141228320D01*
X56585241Y-141385363D01*
X56385363Y-141585241D01*
X56228320Y-141820273D01*
X56120147Y-142081426D01*
X56065000Y-142358665D01*
X56065000Y-142641335D01*
X56120147Y-142918574D01*
X56228320Y-143179727D01*
X56385363Y-143414759D01*
X56585241Y-143614637D01*
X56665000Y-143667930D01*
X56665001Y-144705207D01*
X56513368Y-144806525D01*
X56306525Y-145013368D01*
X56190000Y-145187760D01*
X56073475Y-145013368D01*
X55866632Y-144806525D01*
X55730572Y-144715613D01*
X55695172Y-144598913D01*
X55617636Y-144453854D01*
X55539439Y-144358570D01*
X55539437Y-144358568D01*
X55513291Y-144326709D01*
X55481433Y-144300564D01*
X53916286Y-142735418D01*
X53935000Y-142641335D01*
X53935000Y-142358665D01*
X53879853Y-142081426D01*
X53771680Y-141820273D01*
X53614637Y-141585241D01*
X53414759Y-141385363D01*
X53179727Y-141228320D01*
X52918574Y-141120147D01*
X52641335Y-141065000D01*
X52358665Y-141065000D01*
X52081426Y-141120147D01*
X51820273Y-141228320D01*
X51585241Y-141385363D01*
X51385363Y-141585241D01*
X51228320Y-141820273D01*
X51120147Y-142081426D01*
X51065000Y-142358665D01*
X51065000Y-142641335D01*
X51120147Y-142918574D01*
X51228320Y-143179727D01*
X51385363Y-143414759D01*
X51585241Y-143614637D01*
X51820273Y-143771680D01*
X52081426Y-143879853D01*
X52358665Y-143935000D01*
X52641335Y-143935000D01*
X52735418Y-143916286D01*
X53799512Y-144980381D01*
X53766525Y-145013368D01*
X53650000Y-145187760D01*
X53533475Y-145013368D01*
X53326632Y-144806525D01*
X53083411Y-144644010D01*
X52813158Y-144532068D01*
X52526260Y-144475000D01*
X52233740Y-144475000D01*
X52102061Y-144501193D01*
X49539446Y-141938579D01*
X49513291Y-141906709D01*
X49386146Y-141802364D01*
X49241087Y-141724828D01*
X49083689Y-141677082D01*
X48961019Y-141665000D01*
X48961018Y-141665000D01*
X48920000Y-141660960D01*
X48878982Y-141665000D01*
X48667930Y-141665000D01*
X48614637Y-141585241D01*
X48414759Y-141385363D01*
X48179727Y-141228320D01*
X47918574Y-141120147D01*
X47641335Y-141065000D01*
X47358665Y-141065000D01*
X47081426Y-141120147D01*
X46820273Y-141228320D01*
X46585241Y-141385363D01*
X46385363Y-141585241D01*
X46228320Y-141820273D01*
X46120147Y-142081426D01*
X46065000Y-142358665D01*
X46065000Y-142641335D01*
X46120147Y-142918574D01*
X46228320Y-143179727D01*
X46385363Y-143414759D01*
X46585241Y-143614637D01*
X46820273Y-143771680D01*
X47081426Y-143879853D01*
X47358665Y-143935000D01*
X47641335Y-143935000D01*
X47918574Y-143879853D01*
X48179727Y-143771680D01*
X48414759Y-143614637D01*
X48614637Y-143414759D01*
X48630360Y-143391227D01*
X50921193Y-145682061D01*
X50895000Y-145813740D01*
X50895000Y-146106260D01*
X50952068Y-146393158D01*
X51064010Y-146663411D01*
X51226525Y-146906632D01*
X51358380Y-147038487D01*
X51285820Y-147060498D01*
X51175506Y-147119463D01*
X51078815Y-147198815D01*
X50999463Y-147295506D01*
X50940498Y-147405820D01*
X50904188Y-147525518D01*
X50891928Y-147650000D01*
X50895000Y-148214250D01*
X51053750Y-148373000D01*
X52253000Y-148373000D01*
X52253000Y-148353000D01*
X52507000Y-148353000D01*
X52507000Y-148373000D01*
X54793000Y-148373000D01*
X54793000Y-148353000D01*
X55047000Y-148353000D01*
X55047000Y-148373000D01*
X57333000Y-148373000D01*
X57333000Y-148353000D01*
X57587000Y-148353000D01*
X57587000Y-148373000D01*
X59873000Y-148373000D01*
X59873000Y-148353000D01*
X60127000Y-148353000D01*
X60127000Y-148373000D01*
X62413000Y-148373000D01*
X62413000Y-148353000D01*
X62667000Y-148353000D01*
X62667000Y-148373000D01*
X63860814Y-148373000D01*
X63981481Y-148143109D01*
X63884157Y-147868748D01*
X63735178Y-147618645D01*
X63540269Y-147402412D01*
X63310594Y-147231100D01*
X63486632Y-147113475D01*
X63693475Y-146906632D01*
X63855990Y-146663411D01*
X63967932Y-146393158D01*
X64025000Y-146106260D01*
X64025000Y-145813740D01*
X63998807Y-145682060D01*
X66337597Y-143343272D01*
X66385363Y-143414759D01*
X66585241Y-143614637D01*
X66820273Y-143771680D01*
X67081426Y-143879853D01*
X67358665Y-143935000D01*
X67641335Y-143935000D01*
X67865002Y-143890509D01*
X67865002Y-146139104D01*
X67756589Y-146184010D01*
X67513368Y-146346525D01*
X67306525Y-146553368D01*
X67144010Y-146796589D01*
X67032068Y-147066842D01*
X66975000Y-147353740D01*
X66975000Y-147646260D01*
X67032068Y-147933158D01*
X67144010Y-148203411D01*
X67306525Y-148446632D01*
X67513368Y-148653475D01*
X67756589Y-148815990D01*
X68026842Y-148927932D01*
X68313740Y-148985000D01*
X68606260Y-148985000D01*
X68893158Y-148927932D01*
X69163411Y-148815990D01*
X69406632Y-148653475D01*
X69538487Y-148521620D01*
X69560498Y-148594180D01*
X69619463Y-148704494D01*
X69698815Y-148801185D01*
X69795506Y-148880537D01*
X69905820Y-148939502D01*
X70025518Y-148975812D01*
X70150000Y-148988072D01*
X70714250Y-148985000D01*
X70873000Y-148826250D01*
X70873000Y-147627000D01*
X71127000Y-147627000D01*
X71127000Y-148826250D01*
X71285750Y-148985000D01*
X71850000Y-148988072D01*
X71974482Y-148975812D01*
X72094180Y-148939502D01*
X72204494Y-148880537D01*
X72301185Y-148801185D01*
X72380537Y-148704494D01*
X72439502Y-148594180D01*
X72475812Y-148474482D01*
X72488072Y-148350000D01*
X72485000Y-147785750D01*
X72326250Y-147627000D01*
X71127000Y-147627000D01*
X70873000Y-147627000D01*
X70853000Y-147627000D01*
X70853000Y-147373000D01*
X70873000Y-147373000D01*
X70873000Y-146173750D01*
X71127000Y-146173750D01*
X71127000Y-147373000D01*
X72326250Y-147373000D01*
X72485000Y-147214250D01*
X72488072Y-146650000D01*
X72475812Y-146525518D01*
X72439502Y-146405820D01*
X72380537Y-146295506D01*
X72301185Y-146198815D01*
X72204494Y-146119463D01*
X72094180Y-146060498D01*
X71974482Y-146024188D01*
X71850000Y-146011928D01*
X71285750Y-146015000D01*
X71127000Y-146173750D01*
X70873000Y-146173750D01*
X70714250Y-146015000D01*
X70150000Y-146011928D01*
X70025518Y-146024188D01*
X69905820Y-146060498D01*
X69795506Y-146119463D01*
X69698815Y-146198815D01*
X69619463Y-146295506D01*
X69560498Y-146405820D01*
X69538487Y-146478380D01*
X69535001Y-146474894D01*
X69535001Y-141691229D01*
X72865000Y-141691229D01*
X72865000Y-142308771D01*
X72985476Y-142914446D01*
X73221799Y-143484979D01*
X73564886Y-143998446D01*
X74001554Y-144435114D01*
X74515021Y-144778201D01*
X75085554Y-145014524D01*
X75691229Y-145135000D01*
X76308771Y-145135000D01*
X76914446Y-145014524D01*
X77484979Y-144778201D01*
X77998446Y-144435114D01*
X78435114Y-143998446D01*
X78778201Y-143484979D01*
X79014524Y-142914446D01*
X79135000Y-142308771D01*
X79135000Y-141691229D01*
X79014524Y-141085554D01*
X78778201Y-140515021D01*
X78435114Y-140001554D01*
X77998446Y-139564886D01*
X77484979Y-139221799D01*
X76914446Y-138985476D01*
X76308771Y-138865000D01*
X75691229Y-138865000D01*
X75085554Y-138985476D01*
X74515021Y-139221799D01*
X74001554Y-139564886D01*
X73564886Y-140001554D01*
X73221799Y-140515021D01*
X72985476Y-141085554D01*
X72865000Y-141691229D01*
X69535001Y-141691229D01*
X69535001Y-136715868D01*
X70380558Y-137561426D01*
X70406709Y-137593291D01*
X70490786Y-137662291D01*
X70533854Y-137697636D01*
X70678913Y-137775172D01*
X70836311Y-137822918D01*
X70999999Y-137839040D01*
X71041018Y-137835000D01*
X72565375Y-137835000D01*
X72574188Y-137924482D01*
X72610498Y-138044180D01*
X72669463Y-138154494D01*
X72748815Y-138251185D01*
X72845506Y-138330537D01*
X72955820Y-138389502D01*
X73075518Y-138425812D01*
X73200000Y-138438072D01*
X74800000Y-138438072D01*
X74924482Y-138425812D01*
X75044180Y-138389502D01*
X75154494Y-138330537D01*
X75251185Y-138251185D01*
X75330537Y-138154494D01*
X75389502Y-138044180D01*
X75425812Y-137924482D01*
X75434625Y-137835000D01*
X77458982Y-137835000D01*
X77477187Y-137836793D01*
X77465000Y-137898061D01*
X77465000Y-138101939D01*
X77504774Y-138301898D01*
X77582795Y-138490256D01*
X77696063Y-138659774D01*
X77840226Y-138803937D01*
X78009744Y-138917205D01*
X78198102Y-138995226D01*
X78398061Y-139035000D01*
X78601939Y-139035000D01*
X78801898Y-138995226D01*
X78990256Y-138917205D01*
X79159774Y-138803937D01*
X79223711Y-138740000D01*
X79317814Y-138740000D01*
X79398418Y-138783084D01*
X79546255Y-138827929D01*
X79690001Y-138842087D01*
X79690000Y-140783981D01*
X79685960Y-140825000D01*
X79690000Y-140866018D01*
X79702082Y-140988688D01*
X79749828Y-141146086D01*
X79827364Y-141291145D01*
X79931709Y-141418291D01*
X79963579Y-141444446D01*
X86461928Y-147942797D01*
X86461928Y-148900000D01*
X86474188Y-149024482D01*
X86510498Y-149144180D01*
X86569463Y-149254494D01*
X86648815Y-149351185D01*
X86745506Y-149430537D01*
X86855820Y-149489502D01*
X86975518Y-149525812D01*
X87100000Y-149538072D01*
X88900000Y-149538072D01*
X89024482Y-149525812D01*
X89144180Y-149489502D01*
X89254494Y-149430537D01*
X89351185Y-149351185D01*
X89430537Y-149254494D01*
X89489502Y-149144180D01*
X89495056Y-149125873D01*
X89561495Y-149192312D01*
X89812905Y-149360299D01*
X90092257Y-149476011D01*
X90388816Y-149535000D01*
X90691184Y-149535000D01*
X90987743Y-149476011D01*
X91267095Y-149360299D01*
X91518505Y-149192312D01*
X91732312Y-148978505D01*
X91828199Y-148835000D01*
X93034133Y-148835000D01*
X93083715Y-148884582D01*
X93065000Y-148978665D01*
X93065000Y-149261335D01*
X93120147Y-149538574D01*
X93228320Y-149799727D01*
X93385363Y-150034759D01*
X93585241Y-150234637D01*
X93742928Y-150340000D01*
X83757072Y-150340000D01*
X83914759Y-150234637D01*
X84114637Y-150034759D01*
X84271680Y-149799727D01*
X84379853Y-149538574D01*
X84435000Y-149261335D01*
X84435000Y-148978665D01*
X84379853Y-148701426D01*
X84271680Y-148440273D01*
X84114637Y-148205241D01*
X83914759Y-148005363D01*
X83679727Y-147848320D01*
X83418574Y-147740147D01*
X83141335Y-147685000D01*
X82858665Y-147685000D01*
X82764582Y-147703715D01*
X82499446Y-147438579D01*
X82473291Y-147406709D01*
X82346146Y-147302364D01*
X82201087Y-147224828D01*
X82043689Y-147177082D01*
X81921019Y-147165000D01*
X81921018Y-147165000D01*
X81880000Y-147160960D01*
X81838982Y-147165000D01*
X80328199Y-147165000D01*
X80232312Y-147021495D01*
X80018505Y-146807688D01*
X79767095Y-146639701D01*
X79487743Y-146523989D01*
X79191184Y-146465000D01*
X78888816Y-146465000D01*
X78592257Y-146523989D01*
X78312905Y-146639701D01*
X78061495Y-146807688D01*
X77995056Y-146874127D01*
X77989502Y-146855820D01*
X77930537Y-146745506D01*
X77851185Y-146648815D01*
X77754494Y-146569463D01*
X77644180Y-146510498D01*
X77524482Y-146474188D01*
X77400000Y-146461928D01*
X75600000Y-146461928D01*
X75475518Y-146474188D01*
X75355820Y-146510498D01*
X75245506Y-146569463D01*
X75148815Y-146648815D01*
X75069463Y-146745506D01*
X75010498Y-146855820D01*
X74974188Y-146975518D01*
X74961928Y-147100000D01*
X74961928Y-148900000D01*
X74974188Y-149024482D01*
X75010498Y-149144180D01*
X75069463Y-149254494D01*
X75148815Y-149351185D01*
X75245506Y-149430537D01*
X75355820Y-149489502D01*
X75475518Y-149525812D01*
X75600000Y-149538072D01*
X77400000Y-149538072D01*
X77524482Y-149525812D01*
X77644180Y-149489502D01*
X77754494Y-149430537D01*
X77851185Y-149351185D01*
X77930537Y-149254494D01*
X77989502Y-149144180D01*
X77995056Y-149125873D01*
X78061495Y-149192312D01*
X78312905Y-149360299D01*
X78592257Y-149476011D01*
X78888816Y-149535000D01*
X79191184Y-149535000D01*
X79487743Y-149476011D01*
X79767095Y-149360299D01*
X80018505Y-149192312D01*
X80232312Y-148978505D01*
X80328199Y-148835000D01*
X81534133Y-148835000D01*
X81583715Y-148884582D01*
X81565000Y-148978665D01*
X81565000Y-149261335D01*
X81620147Y-149538574D01*
X81728320Y-149799727D01*
X81885363Y-150034759D01*
X82085241Y-150234637D01*
X82242928Y-150340000D01*
X40029392Y-150340000D01*
X39231917Y-150268827D01*
X38488110Y-150065344D01*
X37792096Y-149733363D01*
X37258590Y-149350000D01*
X50891928Y-149350000D01*
X50904188Y-149474482D01*
X50940498Y-149594180D01*
X50999463Y-149704494D01*
X51078815Y-149801185D01*
X51175506Y-149880537D01*
X51285820Y-149939502D01*
X51405518Y-149975812D01*
X51530000Y-149988072D01*
X52094250Y-149985000D01*
X52253000Y-149826250D01*
X52253000Y-148627000D01*
X52507000Y-148627000D01*
X52507000Y-149826250D01*
X52665750Y-149985000D01*
X53230000Y-149988072D01*
X53354482Y-149975812D01*
X53474180Y-149939502D01*
X53584494Y-149880537D01*
X53681185Y-149801185D01*
X53760537Y-149704494D01*
X53819502Y-149594180D01*
X53843966Y-149513534D01*
X53919731Y-149597588D01*
X54153080Y-149771641D01*
X54415901Y-149896825D01*
X54563110Y-149941476D01*
X54793000Y-149820155D01*
X54793000Y-148627000D01*
X55047000Y-148627000D01*
X55047000Y-149820155D01*
X55276890Y-149941476D01*
X55424099Y-149896825D01*
X55686920Y-149771641D01*
X55920269Y-149597588D01*
X56115178Y-149381355D01*
X56190000Y-149255745D01*
X56264822Y-149381355D01*
X56459731Y-149597588D01*
X56693080Y-149771641D01*
X56955901Y-149896825D01*
X57103110Y-149941476D01*
X57333000Y-149820155D01*
X57333000Y-148627000D01*
X57587000Y-148627000D01*
X57587000Y-149820155D01*
X57816890Y-149941476D01*
X57964099Y-149896825D01*
X58226920Y-149771641D01*
X58460269Y-149597588D01*
X58655178Y-149381355D01*
X58730000Y-149255745D01*
X58804822Y-149381355D01*
X58999731Y-149597588D01*
X59233080Y-149771641D01*
X59495901Y-149896825D01*
X59643110Y-149941476D01*
X59873000Y-149820155D01*
X59873000Y-148627000D01*
X60127000Y-148627000D01*
X60127000Y-149820155D01*
X60356890Y-149941476D01*
X60504099Y-149896825D01*
X60766920Y-149771641D01*
X61000269Y-149597588D01*
X61195178Y-149381355D01*
X61270000Y-149255745D01*
X61344822Y-149381355D01*
X61539731Y-149597588D01*
X61773080Y-149771641D01*
X62035901Y-149896825D01*
X62183110Y-149941476D01*
X62413000Y-149820155D01*
X62413000Y-148627000D01*
X62667000Y-148627000D01*
X62667000Y-149820155D01*
X62896890Y-149941476D01*
X63044099Y-149896825D01*
X63306920Y-149771641D01*
X63540269Y-149597588D01*
X63735178Y-149381355D01*
X63884157Y-149131252D01*
X63981481Y-148856891D01*
X63860814Y-148627000D01*
X62667000Y-148627000D01*
X62413000Y-148627000D01*
X60127000Y-148627000D01*
X59873000Y-148627000D01*
X57587000Y-148627000D01*
X57333000Y-148627000D01*
X55047000Y-148627000D01*
X54793000Y-148627000D01*
X52507000Y-148627000D01*
X52253000Y-148627000D01*
X51053750Y-148627000D01*
X50895000Y-148785750D01*
X50891928Y-149350000D01*
X37258590Y-149350000D01*
X37165870Y-149283374D01*
X36629223Y-148729597D01*
X36199129Y-148089549D01*
X35889171Y-147383447D01*
X35707935Y-146628543D01*
X35660000Y-145975793D01*
X35660000Y-145691229D01*
X36865000Y-145691229D01*
X36865000Y-146308771D01*
X36985476Y-146914446D01*
X37221799Y-147484979D01*
X37564886Y-147998446D01*
X38001554Y-148435114D01*
X38515021Y-148778201D01*
X39085554Y-149014524D01*
X39691229Y-149135000D01*
X40308771Y-149135000D01*
X40914446Y-149014524D01*
X41484979Y-148778201D01*
X41998446Y-148435114D01*
X42435114Y-147998446D01*
X42778201Y-147484979D01*
X43014524Y-146914446D01*
X43135000Y-146308771D01*
X43135000Y-145691229D01*
X43014524Y-145085554D01*
X42778201Y-144515021D01*
X42435114Y-144001554D01*
X41998446Y-143564886D01*
X41484979Y-143221799D01*
X40914446Y-142985476D01*
X40308771Y-142865000D01*
X39691229Y-142865000D01*
X39085554Y-142985476D01*
X38515021Y-143221799D01*
X38001554Y-143564886D01*
X37564886Y-144001554D01*
X37221799Y-144515021D01*
X36985476Y-145085554D01*
X36865000Y-145691229D01*
X35660000Y-145691229D01*
X35660000Y-140826000D01*
X37309089Y-140826000D01*
X37340657Y-141146516D01*
X37434148Y-141454715D01*
X37585969Y-141738752D01*
X37790286Y-141987714D01*
X38039248Y-142192031D01*
X38323285Y-142343852D01*
X38631484Y-142437343D01*
X38871678Y-142461000D01*
X41032322Y-142461000D01*
X41272516Y-142437343D01*
X41580715Y-142343852D01*
X41864752Y-142192031D01*
X42113714Y-141987714D01*
X42318031Y-141738752D01*
X42469852Y-141454715D01*
X42563343Y-141146516D01*
X42594911Y-140826000D01*
X42563343Y-140505484D01*
X42469852Y-140197285D01*
X42318031Y-139913248D01*
X42113714Y-139664286D01*
X41864752Y-139459969D01*
X41580715Y-139308148D01*
X41272516Y-139214657D01*
X41032322Y-139191000D01*
X38871678Y-139191000D01*
X38631484Y-139214657D01*
X38323285Y-139308148D01*
X38039248Y-139459969D01*
X37790286Y-139664286D01*
X37585969Y-139913248D01*
X37434148Y-140197285D01*
X37340657Y-140505484D01*
X37309089Y-140826000D01*
X35660000Y-140826000D01*
X35660000Y-138060743D01*
X35837683Y-138245922D01*
X36101239Y-138430010D01*
X36395645Y-138559144D01*
X36523566Y-138590124D01*
X36777000Y-138470777D01*
X36777000Y-136127000D01*
X37031000Y-136127000D01*
X37031000Y-138470777D01*
X37284434Y-138590124D01*
X37412355Y-138559144D01*
X37706761Y-138430010D01*
X37970317Y-138245922D01*
X38192895Y-138013954D01*
X38365942Y-137743020D01*
X38482807Y-137443532D01*
X38539000Y-137127000D01*
X38539000Y-136127000D01*
X37031000Y-136127000D01*
X36777000Y-136127000D01*
X36757000Y-136127000D01*
X36757000Y-135873000D01*
X36777000Y-135873000D01*
X36777000Y-133529223D01*
X37031000Y-133529223D01*
X37031000Y-135873000D01*
X38539000Y-135873000D01*
X38539000Y-134873000D01*
X38482807Y-134556468D01*
X38365942Y-134256980D01*
X38192895Y-133986046D01*
X37970317Y-133754078D01*
X37706761Y-133569990D01*
X37412355Y-133440856D01*
X37284434Y-133409876D01*
X37031000Y-133529223D01*
X36777000Y-133529223D01*
X36523566Y-133409876D01*
X36395645Y-133440856D01*
X36101239Y-133569990D01*
X35837683Y-133754078D01*
X35660000Y-133939257D01*
X35660000Y-126029392D01*
X35690180Y-125691229D01*
X36865000Y-125691229D01*
X36865000Y-126308771D01*
X36985476Y-126914446D01*
X37221799Y-127484979D01*
X37564886Y-127998446D01*
X38001554Y-128435114D01*
X38515021Y-128778201D01*
X39085554Y-129014524D01*
X39691229Y-129135000D01*
X40308771Y-129135000D01*
X40914446Y-129014524D01*
X41484979Y-128778201D01*
X41998446Y-128435114D01*
X42435114Y-127998446D01*
X42778201Y-127484979D01*
X43014524Y-126914446D01*
X43135000Y-126308771D01*
X43135000Y-126007298D01*
X46186903Y-126007298D01*
X47000000Y-126820395D01*
X47813097Y-126007298D01*
X47741514Y-125763329D01*
X47486004Y-125642429D01*
X47211816Y-125573700D01*
X46929488Y-125559783D01*
X46649870Y-125601213D01*
X46383708Y-125696397D01*
X46258486Y-125763329D01*
X46186903Y-126007298D01*
X43135000Y-126007298D01*
X43135000Y-125691229D01*
X43014524Y-125085554D01*
X42778201Y-124515021D01*
X42435114Y-124001554D01*
X41998446Y-123564886D01*
X41484979Y-123221799D01*
X40914446Y-122985476D01*
X40308771Y-122865000D01*
X39691229Y-122865000D01*
X39085554Y-122985476D01*
X38515021Y-123221799D01*
X38001554Y-123564886D01*
X37564886Y-124001554D01*
X37221799Y-124515021D01*
X36985476Y-125085554D01*
X36865000Y-125691229D01*
X35690180Y-125691229D01*
X35731173Y-125231917D01*
X35934656Y-124488109D01*
X36266638Y-123792095D01*
X36716626Y-123165870D01*
X37270403Y-122629223D01*
X37910451Y-122199129D01*
X38616553Y-121889171D01*
X39371457Y-121707935D01*
X40024207Y-121660000D01*
X81755229Y-121660000D01*
X81728320Y-121700273D01*
G04 #@! TA.AperFunction,Conductor*
D31*
G36*
X81728320Y-121700273D02*
G01*
X81620147Y-121961426D01*
X81565000Y-122238665D01*
X81565000Y-122521335D01*
X81620147Y-122798574D01*
X81728320Y-123059727D01*
X81885363Y-123294759D01*
X82085241Y-123494637D01*
X82320273Y-123651680D01*
X82581426Y-123759853D01*
X82858665Y-123815000D01*
X83141335Y-123815000D01*
X83418574Y-123759853D01*
X83679727Y-123651680D01*
X83914759Y-123494637D01*
X84114637Y-123294759D01*
X84271680Y-123059727D01*
X84379853Y-122798574D01*
X84435000Y-122521335D01*
X84435000Y-122238665D01*
X84379853Y-121961426D01*
X84271680Y-121700273D01*
X84244771Y-121660000D01*
X104467722Y-121660000D01*
X105148126Y-121726714D01*
X105771572Y-121914943D01*
X106346579Y-122220681D01*
X106851247Y-122632279D01*
X107266362Y-123134067D01*
X107576105Y-123706924D01*
X107768682Y-124329039D01*
X107840001Y-125007594D01*
X107840000Y-142747691D01*
X107683519Y-142536586D01*
X107475131Y-142347615D01*
X107233881Y-142202930D01*
X106969040Y-142108091D01*
X106747000Y-142229376D01*
X106747000Y-143373000D01*
X106767000Y-143373000D01*
X106767000Y-143627000D01*
X106747000Y-143627000D01*
X106747000Y-144770624D01*
X106969040Y-144891909D01*
X107233881Y-144797070D01*
X107475131Y-144652385D01*
X107683519Y-144463414D01*
X107840000Y-144252310D01*
X107840000Y-146967721D01*
X107773286Y-147648126D01*
X107585057Y-148271570D01*
X107279323Y-148846573D01*
X106867721Y-149351248D01*
X106365933Y-149766362D01*
X105793077Y-150076104D01*
X105170961Y-150268682D01*
X104492417Y-150340000D01*
X95257072Y-150340000D01*
X95414759Y-150234637D01*
X95614637Y-150034759D01*
X95771680Y-149799727D01*
X95879853Y-149538574D01*
X95935000Y-149261335D01*
X95935000Y-148978665D01*
X95879853Y-148701426D01*
X95771680Y-148440273D01*
X95614637Y-148205241D01*
X95414759Y-148005363D01*
X95179727Y-147848320D01*
X94918574Y-147740147D01*
X94641335Y-147685000D01*
X94358665Y-147685000D01*
X94264582Y-147703715D01*
X93999446Y-147438579D01*
X93973291Y-147406709D01*
X93846146Y-147302364D01*
X93701087Y-147224828D01*
X93543689Y-147177082D01*
X93421019Y-147165000D01*
X93421018Y-147165000D01*
X93380000Y-147160960D01*
X93338982Y-147165000D01*
X91828199Y-147165000D01*
X91732312Y-147021495D01*
X91518505Y-146807688D01*
X91267095Y-146639701D01*
X90987743Y-146523989D01*
X90691184Y-146465000D01*
X90388816Y-146465000D01*
X90092257Y-146523989D01*
X89812905Y-146639701D01*
X89561495Y-146807688D01*
X89495056Y-146874127D01*
X89489502Y-146855820D01*
X89430537Y-146745506D01*
X89351185Y-146648815D01*
X89254494Y-146569463D01*
X89144180Y-146510498D01*
X89024482Y-146474188D01*
X88900000Y-146461928D01*
X87342797Y-146461928D01*
X83660508Y-142779641D01*
X83679727Y-142771680D01*
X83914759Y-142614637D01*
X84044396Y-142485000D01*
X85451620Y-142485000D01*
X85500000Y-142489765D01*
X85548380Y-142485000D01*
X85693094Y-142470747D01*
X85878767Y-142414424D01*
X86049884Y-142322960D01*
X86199870Y-142199870D01*
X86230716Y-142162284D01*
X90500000Y-137893000D01*
X93308009Y-140701009D01*
X93228320Y-140820273D01*
X93120147Y-141081426D01*
X93065000Y-141358665D01*
X93065000Y-141641335D01*
X93120147Y-141918574D01*
X93228320Y-142179727D01*
X93385363Y-142414759D01*
X93485604Y-142515000D01*
X92248001Y-142515000D01*
X91791653Y-142058652D01*
X91835000Y-141840732D01*
X91835000Y-141479268D01*
X91764482Y-141124750D01*
X91626156Y-140790801D01*
X91425338Y-140490256D01*
X91169744Y-140234662D01*
X90869199Y-140033844D01*
X90535250Y-139895518D01*
X90180732Y-139825000D01*
X89819268Y-139825000D01*
X89464750Y-139895518D01*
X89130801Y-140033844D01*
X88830256Y-140234662D01*
X88574662Y-140490256D01*
X88373844Y-140790801D01*
X88235518Y-141124750D01*
X88165000Y-141479268D01*
X88165000Y-141840732D01*
X88235518Y-142195250D01*
X88373844Y-142529199D01*
X88574662Y-142829744D01*
X88830256Y-143085338D01*
X89130801Y-143286156D01*
X89464750Y-143424482D01*
X89819268Y-143495000D01*
X90180732Y-143495000D01*
X90398652Y-143451653D01*
X91109289Y-144162290D01*
X91140130Y-144199870D01*
X91290116Y-144322960D01*
X91446799Y-144406709D01*
X91461233Y-144414424D01*
X91646906Y-144470747D01*
X91840000Y-144489765D01*
X91888380Y-144485000D01*
X97955604Y-144485000D01*
X98015000Y-144544396D01*
X98015001Y-146991610D01*
X98010235Y-147040000D01*
X98019234Y-147131364D01*
X97975000Y-147353740D01*
X97975000Y-147646260D01*
X98032068Y-147933158D01*
X98144010Y-148203411D01*
X98306525Y-148446632D01*
X98513368Y-148653475D01*
X98756589Y-148815990D01*
X99026842Y-148927932D01*
X99313740Y-148985000D01*
X99606260Y-148985000D01*
X99893158Y-148927932D01*
X100163411Y-148815990D01*
X100406632Y-148653475D01*
X100538487Y-148521620D01*
X100560498Y-148594180D01*
X100619463Y-148704494D01*
X100698815Y-148801185D01*
X100795506Y-148880537D01*
X100905820Y-148939502D01*
X101025518Y-148975812D01*
X101150000Y-148988072D01*
X102850000Y-148988072D01*
X102974482Y-148975812D01*
X103094180Y-148939502D01*
X103204494Y-148880537D01*
X103301185Y-148801185D01*
X103380537Y-148704494D01*
X103439502Y-148594180D01*
X103475812Y-148474482D01*
X103488072Y-148350000D01*
X103488072Y-146650000D01*
X103475812Y-146525518D01*
X103439502Y-146405820D01*
X103380537Y-146295506D01*
X103301185Y-146198815D01*
X103204494Y-146119463D01*
X103094180Y-146060498D01*
X102985000Y-146027379D01*
X102985000Y-143849039D01*
X105228096Y-143849039D01*
X105268754Y-143983087D01*
X105388963Y-144237420D01*
X105556481Y-144463414D01*
X105764869Y-144652385D01*
X106006119Y-144797070D01*
X106270960Y-144891909D01*
X106493000Y-144770624D01*
X106493000Y-143627000D01*
X105350085Y-143627000D01*
X105228096Y-143849039D01*
X102985000Y-143849039D01*
X102985000Y-143548380D01*
X102989765Y-143500000D01*
X102970747Y-143306906D01*
X102923442Y-143150961D01*
X105228096Y-143150961D01*
X105350085Y-143373000D01*
X106493000Y-143373000D01*
X106493000Y-142229376D01*
X106270960Y-142108091D01*
X106006119Y-142202930D01*
X105764869Y-142347615D01*
X105556481Y-142536586D01*
X105388963Y-142762580D01*
X105268754Y-143016913D01*
X105228096Y-143150961D01*
X102923442Y-143150961D01*
X102914424Y-143121233D01*
X102822960Y-142950116D01*
X102730710Y-142837709D01*
X102699870Y-142800130D01*
X102662290Y-142769289D01*
X100019317Y-140126316D01*
X100314344Y-140185000D01*
X100685656Y-140185000D01*
X101049834Y-140112561D01*
X101392882Y-139970466D01*
X101701618Y-139764175D01*
X101964175Y-139501618D01*
X102170466Y-139192882D01*
X102312561Y-138849834D01*
X102385000Y-138485656D01*
X102385000Y-138114344D01*
X102312561Y-137750166D01*
X102170466Y-137407118D01*
X101964175Y-137098382D01*
X101701618Y-136835825D01*
X101392882Y-136629534D01*
X101049834Y-136487439D01*
X100685656Y-136415000D01*
X100314344Y-136415000D01*
X99950166Y-136487439D01*
X99607118Y-136629534D01*
X99298382Y-136835825D01*
X99035825Y-137098382D01*
X98829534Y-137407118D01*
X98687439Y-137750166D01*
X98615000Y-138114344D01*
X98615000Y-138485656D01*
X98673684Y-138780684D01*
X91838072Y-131945072D01*
X91838072Y-130300000D01*
X91825812Y-130175518D01*
X91789502Y-130055820D01*
X91730537Y-129945506D01*
X91651185Y-129848815D01*
X91554494Y-129769463D01*
X91444180Y-129710498D01*
X91324482Y-129674188D01*
X91200000Y-129661928D01*
X88800000Y-129661928D01*
X88675518Y-129674188D01*
X88555820Y-129710498D01*
X88445506Y-129769463D01*
X88348815Y-129848815D01*
X88269463Y-129945506D01*
X88210498Y-130055820D01*
X88174188Y-130175518D01*
X88161928Y-130300000D01*
X88161928Y-132700000D01*
X88174188Y-132824482D01*
X88210498Y-132944180D01*
X88269463Y-133054494D01*
X88339513Y-133139851D01*
X88288094Y-133124253D01*
X88143380Y-133110000D01*
X88095000Y-133105235D01*
X88046620Y-133110000D01*
X86460000Y-133110000D01*
X86460000Y-132523380D01*
X86464765Y-132475000D01*
X86445747Y-132281906D01*
X86389424Y-132096233D01*
X86297960Y-131925116D01*
X86217961Y-131827637D01*
X86174870Y-131775130D01*
X86137290Y-131744289D01*
X85378001Y-130985000D01*
X86451620Y-130985000D01*
X86500000Y-130989765D01*
X86548380Y-130985000D01*
X86693094Y-130970747D01*
X86878767Y-130914424D01*
X87049884Y-130822960D01*
X87199870Y-130699870D01*
X87230716Y-130662284D01*
X89604929Y-128288072D01*
X90150000Y-128288072D01*
X90274482Y-128275812D01*
X90394180Y-128239502D01*
X90504494Y-128180537D01*
X90601185Y-128101185D01*
X90680537Y-128004494D01*
X90690957Y-127985000D01*
X96392000Y-127985000D01*
X98665825Y-130258825D01*
X98615000Y-130514344D01*
X98615000Y-130885656D01*
X98687439Y-131249834D01*
X98829534Y-131592882D01*
X99035825Y-131901618D01*
X99298382Y-132164175D01*
X99607118Y-132370466D01*
X99950166Y-132512561D01*
X100314344Y-132585000D01*
X100685656Y-132585000D01*
X101049834Y-132512561D01*
X101392882Y-132370466D01*
X101701618Y-132164175D01*
X101964175Y-131901618D01*
X102170466Y-131592882D01*
X102312561Y-131249834D01*
X102385000Y-130885656D01*
X102385000Y-130514344D01*
X102312561Y-130150166D01*
X102170466Y-129807118D01*
X101964175Y-129498382D01*
X101701618Y-129235825D01*
X101392882Y-129029534D01*
X101049834Y-128887439D01*
X100685656Y-128815000D01*
X100314344Y-128815000D01*
X100058825Y-128865825D01*
X97530716Y-126337716D01*
X97499870Y-126300130D01*
X97349884Y-126177040D01*
X97178767Y-126085576D01*
X96993094Y-126029253D01*
X96848380Y-126015000D01*
X96800000Y-126010235D01*
X96751620Y-126015000D01*
X90690957Y-126015000D01*
X90680537Y-125995506D01*
X90601185Y-125898815D01*
X90504494Y-125819463D01*
X90394180Y-125760498D01*
X90274482Y-125724188D01*
X90150000Y-125711928D01*
X89792828Y-125711928D01*
X89874821Y-125695619D01*
X90108676Y-125598753D01*
X90319140Y-125458125D01*
X90498125Y-125279140D01*
X90638753Y-125068676D01*
X90735619Y-124834821D01*
X90764180Y-124691229D01*
X101365000Y-124691229D01*
X101365000Y-125308771D01*
X101485476Y-125914446D01*
X101721799Y-126484979D01*
X102064886Y-126998446D01*
X102501554Y-127435114D01*
X103015021Y-127778201D01*
X103585554Y-128014524D01*
X104191229Y-128135000D01*
X104808771Y-128135000D01*
X105414446Y-128014524D01*
X105984979Y-127778201D01*
X106498446Y-127435114D01*
X106935114Y-126998446D01*
X107278201Y-126484979D01*
X107514524Y-125914446D01*
X107635000Y-125308771D01*
X107635000Y-124691229D01*
X107514524Y-124085554D01*
X107278201Y-123515021D01*
X106935114Y-123001554D01*
X106498446Y-122564886D01*
X105984979Y-122221799D01*
X105414446Y-121985476D01*
X104808771Y-121865000D01*
X104191229Y-121865000D01*
X103585554Y-121985476D01*
X103015021Y-122221799D01*
X102501554Y-122564886D01*
X102064886Y-123001554D01*
X101721799Y-123515021D01*
X101485476Y-124085554D01*
X101365000Y-124691229D01*
X90764180Y-124691229D01*
X90785000Y-124586561D01*
X90785000Y-124333439D01*
X90735619Y-124085179D01*
X90638753Y-123851324D01*
X90498125Y-123640860D01*
X90319140Y-123461875D01*
X90108676Y-123321247D01*
X89874821Y-123224381D01*
X89626561Y-123175000D01*
X89373439Y-123175000D01*
X89125179Y-123224381D01*
X88891324Y-123321247D01*
X88680860Y-123461875D01*
X88501875Y-123640860D01*
X88361247Y-123851324D01*
X88264381Y-124085179D01*
X88215000Y-124333439D01*
X88215000Y-124445000D01*
X88103439Y-124445000D01*
X87855179Y-124494381D01*
X87621324Y-124591247D01*
X87410860Y-124731875D01*
X87231875Y-124910860D01*
X87091247Y-125121324D01*
X86994381Y-125355179D01*
X86945000Y-125603439D01*
X86945000Y-125856561D01*
X86994381Y-126104821D01*
X87091247Y-126338676D01*
X87231875Y-126549140D01*
X87410860Y-126728125D01*
X87621324Y-126868753D01*
X87855179Y-126965619D01*
X88093897Y-127013102D01*
X86092000Y-129015000D01*
X84044396Y-129015000D01*
X83914759Y-128885363D01*
X83679727Y-128728320D01*
X83418574Y-128620147D01*
X83141335Y-128565000D01*
X82858665Y-128565000D01*
X82581426Y-128620147D01*
X82320273Y-128728320D01*
X82085241Y-128885363D01*
X81955604Y-129015000D01*
X80029998Y-129015000D01*
X78290500Y-127275502D01*
X78299727Y-127271680D01*
X78534759Y-127114637D01*
X78734637Y-126914759D01*
X78891680Y-126679727D01*
X78999853Y-126418574D01*
X79055000Y-126141335D01*
X79055000Y-125858665D01*
X78999853Y-125581426D01*
X78891680Y-125320273D01*
X78734637Y-125085241D01*
X78534759Y-124885363D01*
X78299727Y-124728320D01*
X78038574Y-124620147D01*
X77761335Y-124565000D01*
X77478665Y-124565000D01*
X77201426Y-124620147D01*
X76940273Y-124728320D01*
X76705241Y-124885363D01*
X76505363Y-125085241D01*
X76348320Y-125320273D01*
X76344992Y-125328307D01*
X76321868Y-125300130D01*
X76171882Y-125177040D01*
X76000765Y-125085576D01*
X75815092Y-125029253D01*
X75670378Y-125015000D01*
X75621998Y-125010235D01*
X75573618Y-125015000D01*
X71044396Y-125015000D01*
X70914759Y-124885363D01*
X70679727Y-124728320D01*
X70418574Y-124620147D01*
X70141335Y-124565000D01*
X69858665Y-124565000D01*
X69636061Y-124609279D01*
X69595000Y-124605235D01*
X69546620Y-124610000D01*
X67383000Y-124610000D01*
X65610716Y-122837716D01*
X65579870Y-122800130D01*
X65429884Y-122677040D01*
X65258767Y-122585576D01*
X65073094Y-122529253D01*
X64928380Y-122515000D01*
X64880000Y-122510235D01*
X64831620Y-122515000D01*
X58544396Y-122515000D01*
X58414759Y-122385363D01*
X58179727Y-122228320D01*
X57918574Y-122120147D01*
X57641335Y-122065000D01*
X57358665Y-122065000D01*
X57081426Y-122120147D01*
X56820273Y-122228320D01*
X56585241Y-122385363D01*
X56455604Y-122515000D01*
X53544396Y-122515000D01*
X53414759Y-122385363D01*
X53179727Y-122228320D01*
X52918574Y-122120147D01*
X52641335Y-122065000D01*
X52358665Y-122065000D01*
X52081426Y-122120147D01*
X51820273Y-122228320D01*
X51585241Y-122385363D01*
X51385363Y-122585241D01*
X51228320Y-122820273D01*
X51120147Y-123081426D01*
X51065000Y-123358665D01*
X51065000Y-123541999D01*
X48275629Y-126331371D01*
X48236671Y-126258486D01*
X47992702Y-126186903D01*
X47179605Y-127000000D01*
X47193748Y-127014143D01*
X47014143Y-127193748D01*
X47000000Y-127179605D01*
X46985858Y-127193748D01*
X46806253Y-127014143D01*
X46820395Y-127000000D01*
X46007298Y-126186903D01*
X45763329Y-126258486D01*
X45642429Y-126513996D01*
X45573700Y-126788184D01*
X45559783Y-127070512D01*
X45601213Y-127350130D01*
X45696397Y-127616292D01*
X45761616Y-127738309D01*
X45748815Y-127748815D01*
X45669463Y-127845506D01*
X45610498Y-127955820D01*
X45574188Y-128075518D01*
X45561928Y-128200000D01*
X45561928Y-129800000D01*
X45574188Y-129924482D01*
X45610498Y-130044180D01*
X45669463Y-130154494D01*
X45748815Y-130251185D01*
X45845506Y-130330537D01*
X45955820Y-130389502D01*
X46015001Y-130407454D01*
X46015000Y-131722401D01*
X44154794Y-133582607D01*
X43912752Y-133383969D01*
X43628715Y-133232148D01*
X43320516Y-133138657D01*
X43000000Y-133107089D01*
X42679485Y-133138657D01*
X42371286Y-133232148D01*
X42087249Y-133383969D01*
X41838287Y-133588286D01*
X41633970Y-133837248D01*
X41482149Y-134121285D01*
X41388658Y-134429484D01*
X41365001Y-134669678D01*
X41365000Y-137330321D01*
X41388657Y-137570515D01*
X41482148Y-137878714D01*
X41633969Y-138162751D01*
X41838286Y-138411714D01*
X42087248Y-138616031D01*
X42371285Y-138767852D01*
X42679484Y-138861343D01*
X43000000Y-138892911D01*
X43320515Y-138861343D01*
X43628714Y-138767852D01*
X43912751Y-138616031D01*
X44161714Y-138411714D01*
X44366031Y-138162752D01*
X44517852Y-137878715D01*
X44611343Y-137570516D01*
X44635000Y-137330322D01*
X44635000Y-135888402D01*
X46161280Y-134362123D01*
X46120147Y-134461426D01*
X46065000Y-134738665D01*
X46065000Y-135021335D01*
X46120147Y-135298574D01*
X46228320Y-135559727D01*
X46385363Y-135794759D01*
X46585241Y-135994637D01*
X46820273Y-136151680D01*
X47081426Y-136259853D01*
X47358665Y-136315000D01*
X47641335Y-136315000D01*
X47918574Y-136259853D01*
X48179727Y-136151680D01*
X48414759Y-135994637D01*
X48614637Y-135794759D01*
X48667930Y-135715000D01*
X51332070Y-135715000D01*
X51385363Y-135794759D01*
X51585241Y-135994637D01*
X51820273Y-136151680D01*
X52081426Y-136259853D01*
X52358665Y-136315000D01*
X52641335Y-136315000D01*
X52918574Y-136259853D01*
X53179727Y-136151680D01*
X53414759Y-135994637D01*
X53614637Y-135794759D01*
X53667930Y-135715000D01*
X56332070Y-135715000D01*
X56385363Y-135794759D01*
X56585241Y-135994637D01*
X56820273Y-136151680D01*
X57081426Y-136259853D01*
X57358665Y-136315000D01*
X57641335Y-136315000D01*
X57918574Y-136259853D01*
X58179727Y-136151680D01*
X58414759Y-135994637D01*
X58614637Y-135794759D01*
X58667930Y-135715000D01*
X61332070Y-135715000D01*
X61385363Y-135794759D01*
X61585241Y-135994637D01*
X61820273Y-136151680D01*
X62081426Y-136259853D01*
X62358665Y-136315000D01*
X62641335Y-136315000D01*
X62918574Y-136259853D01*
X63179727Y-136151680D01*
X63414759Y-135994637D01*
X63614637Y-135794759D01*
X63667930Y-135715000D01*
X66332070Y-135715000D01*
X66385363Y-135794759D01*
X66585241Y-135994637D01*
X66820273Y-136151680D01*
X67081426Y-136259853D01*
X67358665Y-136315000D01*
X67641335Y-136315000D01*
X67865001Y-136270509D01*
X67865002Y-141109491D01*
X67641335Y-141065000D01*
X67358665Y-141065000D01*
X67081426Y-141120147D01*
X66820273Y-141228320D01*
X66585241Y-141385363D01*
X66385363Y-141585241D01*
X66332070Y-141665000D01*
X66041018Y-141665000D01*
X66000000Y-141660960D01*
X65836311Y-141677082D01*
X65678913Y-141724828D01*
X65533854Y-141802364D01*
X65440758Y-141878766D01*
X65406709Y-141906709D01*
X65380563Y-141938568D01*
X62817940Y-144501193D01*
X62686260Y-144475000D01*
X62393740Y-144475000D01*
X62106842Y-144532068D01*
X61836589Y-144644010D01*
X61593368Y-144806525D01*
X61386525Y-145013368D01*
X61270000Y-145187760D01*
X61159092Y-145021775D01*
X62264583Y-143916286D01*
X62358665Y-143935000D01*
X62641335Y-143935000D01*
X62918574Y-143879853D01*
X63179727Y-143771680D01*
X63414759Y-143614637D01*
X63614637Y-143414759D01*
X63771680Y-143179727D01*
X63879853Y-142918574D01*
X63935000Y-142641335D01*
X63935000Y-142358665D01*
X63879853Y-142081426D01*
X63771680Y-141820273D01*
X63614637Y-141585241D01*
X63414759Y-141385363D01*
X63179727Y-141228320D01*
X62918574Y-141120147D01*
X62641335Y-141065000D01*
X62358665Y-141065000D01*
X62081426Y-141120147D01*
X61820273Y-141228320D01*
X61585241Y-141385363D01*
X61385363Y-141585241D01*
X61228320Y-141820273D01*
X61120147Y-142081426D01*
X61065000Y-142358665D01*
X61065000Y-142641335D01*
X61083714Y-142735417D01*
X59438579Y-144380554D01*
X59406709Y-144406709D01*
X59317821Y-144515021D01*
X59302364Y-144533855D01*
X59224828Y-144678914D01*
X59219865Y-144695275D01*
X59053368Y-144806525D01*
X58846525Y-145013368D01*
X58730000Y-145187760D01*
X58613475Y-145013368D01*
X58406632Y-144806525D01*
X58335000Y-144758662D01*
X58335000Y-143667930D01*
X58414759Y-143614637D01*
X58614637Y-143414759D01*
X58771680Y-143179727D01*
X58879853Y-142918574D01*
X58935000Y-142641335D01*
X58935000Y-142358665D01*
X58879853Y-142081426D01*
X58771680Y-141820273D01*
X58614637Y-141585241D01*
X58414759Y-141385363D01*
X58179727Y-141228320D01*
X57918574Y-141120147D01*
X57641335Y-141065000D01*
X57358665Y-141065000D01*
X57081426Y-141120147D01*
X56820273Y-141228320D01*
X56585241Y-141385363D01*
X56385363Y-141585241D01*
X56228320Y-141820273D01*
X56120147Y-142081426D01*
X56065000Y-142358665D01*
X56065000Y-142641335D01*
X56120147Y-142918574D01*
X56228320Y-143179727D01*
X56385363Y-143414759D01*
X56585241Y-143614637D01*
X56665000Y-143667930D01*
X56665001Y-144705207D01*
X56513368Y-144806525D01*
X56306525Y-145013368D01*
X56190000Y-145187760D01*
X56073475Y-145013368D01*
X55866632Y-144806525D01*
X55730572Y-144715613D01*
X55695172Y-144598913D01*
X55617636Y-144453854D01*
X55539439Y-144358570D01*
X55539437Y-144358568D01*
X55513291Y-144326709D01*
X55481433Y-144300564D01*
X53916286Y-142735418D01*
X53935000Y-142641335D01*
X53935000Y-142358665D01*
X53879853Y-142081426D01*
X53771680Y-141820273D01*
X53614637Y-141585241D01*
X53414759Y-141385363D01*
X53179727Y-141228320D01*
X52918574Y-141120147D01*
X52641335Y-141065000D01*
X52358665Y-141065000D01*
X52081426Y-141120147D01*
X51820273Y-141228320D01*
X51585241Y-141385363D01*
X51385363Y-141585241D01*
X51228320Y-141820273D01*
X51120147Y-142081426D01*
X51065000Y-142358665D01*
X51065000Y-142641335D01*
X51120147Y-142918574D01*
X51228320Y-143179727D01*
X51385363Y-143414759D01*
X51585241Y-143614637D01*
X51820273Y-143771680D01*
X52081426Y-143879853D01*
X52358665Y-143935000D01*
X52641335Y-143935000D01*
X52735418Y-143916286D01*
X53799512Y-144980381D01*
X53766525Y-145013368D01*
X53650000Y-145187760D01*
X53533475Y-145013368D01*
X53326632Y-144806525D01*
X53083411Y-144644010D01*
X52813158Y-144532068D01*
X52526260Y-144475000D01*
X52233740Y-144475000D01*
X52102061Y-144501193D01*
X49539446Y-141938579D01*
X49513291Y-141906709D01*
X49386146Y-141802364D01*
X49241087Y-141724828D01*
X49083689Y-141677082D01*
X48961019Y-141665000D01*
X48961018Y-141665000D01*
X48920000Y-141660960D01*
X48878982Y-141665000D01*
X48667930Y-141665000D01*
X48614637Y-141585241D01*
X48414759Y-141385363D01*
X48179727Y-141228320D01*
X47918574Y-141120147D01*
X47641335Y-141065000D01*
X47358665Y-141065000D01*
X47081426Y-141120147D01*
X46820273Y-141228320D01*
X46585241Y-141385363D01*
X46385363Y-141585241D01*
X46228320Y-141820273D01*
X46120147Y-142081426D01*
X46065000Y-142358665D01*
X46065000Y-142641335D01*
X46120147Y-142918574D01*
X46228320Y-143179727D01*
X46385363Y-143414759D01*
X46585241Y-143614637D01*
X46820273Y-143771680D01*
X47081426Y-143879853D01*
X47358665Y-143935000D01*
X47641335Y-143935000D01*
X47918574Y-143879853D01*
X48179727Y-143771680D01*
X48414759Y-143614637D01*
X48614637Y-143414759D01*
X48630360Y-143391227D01*
X50921193Y-145682061D01*
X50895000Y-145813740D01*
X50895000Y-146106260D01*
X50952068Y-146393158D01*
X51064010Y-146663411D01*
X51226525Y-146906632D01*
X51358380Y-147038487D01*
X51285820Y-147060498D01*
X51175506Y-147119463D01*
X51078815Y-147198815D01*
X50999463Y-147295506D01*
X50940498Y-147405820D01*
X50904188Y-147525518D01*
X50891928Y-147650000D01*
X50895000Y-148214250D01*
X51053750Y-148373000D01*
X52253000Y-148373000D01*
X52253000Y-148353000D01*
X52507000Y-148353000D01*
X52507000Y-148373000D01*
X54793000Y-148373000D01*
X54793000Y-148353000D01*
X55047000Y-148353000D01*
X55047000Y-148373000D01*
X57333000Y-148373000D01*
X57333000Y-148353000D01*
X57587000Y-148353000D01*
X57587000Y-148373000D01*
X59873000Y-148373000D01*
X59873000Y-148353000D01*
X60127000Y-148353000D01*
X60127000Y-148373000D01*
X62413000Y-148373000D01*
X62413000Y-148353000D01*
X62667000Y-148353000D01*
X62667000Y-148373000D01*
X63860814Y-148373000D01*
X63981481Y-148143109D01*
X63884157Y-147868748D01*
X63735178Y-147618645D01*
X63540269Y-147402412D01*
X63310594Y-147231100D01*
X63486632Y-147113475D01*
X63693475Y-146906632D01*
X63855990Y-146663411D01*
X63967932Y-146393158D01*
X64025000Y-146106260D01*
X64025000Y-145813740D01*
X63998807Y-145682060D01*
X66337597Y-143343272D01*
X66385363Y-143414759D01*
X66585241Y-143614637D01*
X66820273Y-143771680D01*
X67081426Y-143879853D01*
X67358665Y-143935000D01*
X67641335Y-143935000D01*
X67865002Y-143890509D01*
X67865002Y-146139104D01*
X67756589Y-146184010D01*
X67513368Y-146346525D01*
X67306525Y-146553368D01*
X67144010Y-146796589D01*
X67032068Y-147066842D01*
X66975000Y-147353740D01*
X66975000Y-147646260D01*
X67032068Y-147933158D01*
X67144010Y-148203411D01*
X67306525Y-148446632D01*
X67513368Y-148653475D01*
X67756589Y-148815990D01*
X68026842Y-148927932D01*
X68313740Y-148985000D01*
X68606260Y-148985000D01*
X68893158Y-148927932D01*
X69163411Y-148815990D01*
X69406632Y-148653475D01*
X69538487Y-148521620D01*
X69560498Y-148594180D01*
X69619463Y-148704494D01*
X69698815Y-148801185D01*
X69795506Y-148880537D01*
X69905820Y-148939502D01*
X70025518Y-148975812D01*
X70150000Y-148988072D01*
X70714250Y-148985000D01*
X70873000Y-148826250D01*
X70873000Y-147627000D01*
X71127000Y-147627000D01*
X71127000Y-148826250D01*
X71285750Y-148985000D01*
X71850000Y-148988072D01*
X71974482Y-148975812D01*
X72094180Y-148939502D01*
X72204494Y-148880537D01*
X72301185Y-148801185D01*
X72380537Y-148704494D01*
X72439502Y-148594180D01*
X72475812Y-148474482D01*
X72488072Y-148350000D01*
X72485000Y-147785750D01*
X72326250Y-147627000D01*
X71127000Y-147627000D01*
X70873000Y-147627000D01*
X70853000Y-147627000D01*
X70853000Y-147373000D01*
X70873000Y-147373000D01*
X70873000Y-146173750D01*
X71127000Y-146173750D01*
X71127000Y-147373000D01*
X72326250Y-147373000D01*
X72485000Y-147214250D01*
X72488072Y-146650000D01*
X72475812Y-146525518D01*
X72439502Y-146405820D01*
X72380537Y-146295506D01*
X72301185Y-146198815D01*
X72204494Y-146119463D01*
X72094180Y-146060498D01*
X71974482Y-146024188D01*
X71850000Y-146011928D01*
X71285750Y-146015000D01*
X71127000Y-146173750D01*
X70873000Y-146173750D01*
X70714250Y-146015000D01*
X70150000Y-146011928D01*
X70025518Y-146024188D01*
X69905820Y-146060498D01*
X69795506Y-146119463D01*
X69698815Y-146198815D01*
X69619463Y-146295506D01*
X69560498Y-146405820D01*
X69538487Y-146478380D01*
X69535001Y-146474894D01*
X69535001Y-141691229D01*
X72865000Y-141691229D01*
X72865000Y-142308771D01*
X72985476Y-142914446D01*
X73221799Y-143484979D01*
X73564886Y-143998446D01*
X74001554Y-144435114D01*
X74515021Y-144778201D01*
X75085554Y-145014524D01*
X75691229Y-145135000D01*
X76308771Y-145135000D01*
X76914446Y-145014524D01*
X77484979Y-144778201D01*
X77998446Y-144435114D01*
X78435114Y-143998446D01*
X78778201Y-143484979D01*
X79014524Y-142914446D01*
X79135000Y-142308771D01*
X79135000Y-141691229D01*
X79014524Y-141085554D01*
X78778201Y-140515021D01*
X78435114Y-140001554D01*
X77998446Y-139564886D01*
X77484979Y-139221799D01*
X76914446Y-138985476D01*
X76308771Y-138865000D01*
X75691229Y-138865000D01*
X75085554Y-138985476D01*
X74515021Y-139221799D01*
X74001554Y-139564886D01*
X73564886Y-140001554D01*
X73221799Y-140515021D01*
X72985476Y-141085554D01*
X72865000Y-141691229D01*
X69535001Y-141691229D01*
X69535001Y-136715868D01*
X70380558Y-137561426D01*
X70406709Y-137593291D01*
X70490786Y-137662291D01*
X70533854Y-137697636D01*
X70678913Y-137775172D01*
X70836311Y-137822918D01*
X70999999Y-137839040D01*
X71041018Y-137835000D01*
X72565375Y-137835000D01*
X72574188Y-137924482D01*
X72610498Y-138044180D01*
X72669463Y-138154494D01*
X72748815Y-138251185D01*
X72845506Y-138330537D01*
X72955820Y-138389502D01*
X73075518Y-138425812D01*
X73200000Y-138438072D01*
X74800000Y-138438072D01*
X74924482Y-138425812D01*
X75044180Y-138389502D01*
X75154494Y-138330537D01*
X75251185Y-138251185D01*
X75330537Y-138154494D01*
X75389502Y-138044180D01*
X75425812Y-137924482D01*
X75434625Y-137835000D01*
X77458982Y-137835000D01*
X77477187Y-137836793D01*
X77465000Y-137898061D01*
X77465000Y-138101939D01*
X77504774Y-138301898D01*
X77582795Y-138490256D01*
X77696063Y-138659774D01*
X77840226Y-138803937D01*
X78009744Y-138917205D01*
X78198102Y-138995226D01*
X78398061Y-139035000D01*
X78601939Y-139035000D01*
X78801898Y-138995226D01*
X78990256Y-138917205D01*
X79159774Y-138803937D01*
X79223711Y-138740000D01*
X79317814Y-138740000D01*
X79398418Y-138783084D01*
X79546255Y-138827929D01*
X79690001Y-138842087D01*
X79690000Y-140783981D01*
X79685960Y-140825000D01*
X79690000Y-140866018D01*
X79702082Y-140988688D01*
X79749828Y-141146086D01*
X79827364Y-141291145D01*
X79931709Y-141418291D01*
X79963579Y-141444446D01*
X86461928Y-147942797D01*
X86461928Y-148900000D01*
X86474188Y-149024482D01*
X86510498Y-149144180D01*
X86569463Y-149254494D01*
X86648815Y-149351185D01*
X86745506Y-149430537D01*
X86855820Y-149489502D01*
X86975518Y-149525812D01*
X87100000Y-149538072D01*
X88900000Y-149538072D01*
X89024482Y-149525812D01*
X89144180Y-149489502D01*
X89254494Y-149430537D01*
X89351185Y-149351185D01*
X89430537Y-149254494D01*
X89489502Y-149144180D01*
X89495056Y-149125873D01*
X89561495Y-149192312D01*
X89812905Y-149360299D01*
X90092257Y-149476011D01*
X90388816Y-149535000D01*
X90691184Y-149535000D01*
X90987743Y-149476011D01*
X91267095Y-149360299D01*
X91518505Y-149192312D01*
X91732312Y-148978505D01*
X91828199Y-148835000D01*
X93034133Y-148835000D01*
X93083715Y-148884582D01*
X93065000Y-148978665D01*
X93065000Y-149261335D01*
X93120147Y-149538574D01*
X93228320Y-149799727D01*
X93385363Y-150034759D01*
X93585241Y-150234637D01*
X93742928Y-150340000D01*
X83757072Y-150340000D01*
X83914759Y-150234637D01*
X84114637Y-150034759D01*
X84271680Y-149799727D01*
X84379853Y-149538574D01*
X84435000Y-149261335D01*
X84435000Y-148978665D01*
X84379853Y-148701426D01*
X84271680Y-148440273D01*
X84114637Y-148205241D01*
X83914759Y-148005363D01*
X83679727Y-147848320D01*
X83418574Y-147740147D01*
X83141335Y-147685000D01*
X82858665Y-147685000D01*
X82764582Y-147703715D01*
X82499446Y-147438579D01*
X82473291Y-147406709D01*
X82346146Y-147302364D01*
X82201087Y-147224828D01*
X82043689Y-147177082D01*
X81921019Y-147165000D01*
X81921018Y-147165000D01*
X81880000Y-147160960D01*
X81838982Y-147165000D01*
X80328199Y-147165000D01*
X80232312Y-147021495D01*
X80018505Y-146807688D01*
X79767095Y-146639701D01*
X79487743Y-146523989D01*
X79191184Y-146465000D01*
X78888816Y-146465000D01*
X78592257Y-146523989D01*
X78312905Y-146639701D01*
X78061495Y-146807688D01*
X77995056Y-146874127D01*
X77989502Y-146855820D01*
X77930537Y-146745506D01*
X77851185Y-146648815D01*
X77754494Y-146569463D01*
X77644180Y-146510498D01*
X77524482Y-146474188D01*
X77400000Y-146461928D01*
X75600000Y-146461928D01*
X75475518Y-146474188D01*
X75355820Y-146510498D01*
X75245506Y-146569463D01*
X75148815Y-146648815D01*
X75069463Y-146745506D01*
X75010498Y-146855820D01*
X74974188Y-146975518D01*
X74961928Y-147100000D01*
X74961928Y-148900000D01*
X74974188Y-149024482D01*
X75010498Y-149144180D01*
X75069463Y-149254494D01*
X75148815Y-149351185D01*
X75245506Y-149430537D01*
X75355820Y-149489502D01*
X75475518Y-149525812D01*
X75600000Y-149538072D01*
X77400000Y-149538072D01*
X77524482Y-149525812D01*
X77644180Y-149489502D01*
X77754494Y-149430537D01*
X77851185Y-149351185D01*
X77930537Y-149254494D01*
X77989502Y-149144180D01*
X77995056Y-149125873D01*
X78061495Y-149192312D01*
X78312905Y-149360299D01*
X78592257Y-149476011D01*
X78888816Y-149535000D01*
X79191184Y-149535000D01*
X79487743Y-149476011D01*
X79767095Y-149360299D01*
X80018505Y-149192312D01*
X80232312Y-148978505D01*
X80328199Y-148835000D01*
X81534133Y-148835000D01*
X81583715Y-148884582D01*
X81565000Y-148978665D01*
X81565000Y-149261335D01*
X81620147Y-149538574D01*
X81728320Y-149799727D01*
X81885363Y-150034759D01*
X82085241Y-150234637D01*
X82242928Y-150340000D01*
X40029392Y-150340000D01*
X39231917Y-150268827D01*
X38488110Y-150065344D01*
X37792096Y-149733363D01*
X37258590Y-149350000D01*
X50891928Y-149350000D01*
X50904188Y-149474482D01*
X50940498Y-149594180D01*
X50999463Y-149704494D01*
X51078815Y-149801185D01*
X51175506Y-149880537D01*
X51285820Y-149939502D01*
X51405518Y-149975812D01*
X51530000Y-149988072D01*
X52094250Y-149985000D01*
X52253000Y-149826250D01*
X52253000Y-148627000D01*
X52507000Y-148627000D01*
X52507000Y-149826250D01*
X52665750Y-149985000D01*
X53230000Y-149988072D01*
X53354482Y-149975812D01*
X53474180Y-149939502D01*
X53584494Y-149880537D01*
X53681185Y-149801185D01*
X53760537Y-149704494D01*
X53819502Y-149594180D01*
X53843966Y-149513534D01*
X53919731Y-149597588D01*
X54153080Y-149771641D01*
X54415901Y-149896825D01*
X54563110Y-149941476D01*
X54793000Y-149820155D01*
X54793000Y-148627000D01*
X55047000Y-148627000D01*
X55047000Y-149820155D01*
X55276890Y-149941476D01*
X55424099Y-149896825D01*
X55686920Y-149771641D01*
X55920269Y-149597588D01*
X56115178Y-149381355D01*
X56190000Y-149255745D01*
X56264822Y-149381355D01*
X56459731Y-149597588D01*
X56693080Y-149771641D01*
X56955901Y-149896825D01*
X57103110Y-149941476D01*
X57333000Y-149820155D01*
X57333000Y-148627000D01*
X57587000Y-148627000D01*
X57587000Y-149820155D01*
X57816890Y-149941476D01*
X57964099Y-149896825D01*
X58226920Y-149771641D01*
X58460269Y-149597588D01*
X58655178Y-149381355D01*
X58730000Y-149255745D01*
X58804822Y-149381355D01*
X58999731Y-149597588D01*
X59233080Y-149771641D01*
X59495901Y-149896825D01*
X59643110Y-149941476D01*
X59873000Y-149820155D01*
X59873000Y-148627000D01*
X60127000Y-148627000D01*
X60127000Y-149820155D01*
X60356890Y-149941476D01*
X60504099Y-149896825D01*
X60766920Y-149771641D01*
X61000269Y-149597588D01*
X61195178Y-149381355D01*
X61270000Y-149255745D01*
X61344822Y-149381355D01*
X61539731Y-149597588D01*
X61773080Y-149771641D01*
X62035901Y-149896825D01*
X62183110Y-149941476D01*
X62413000Y-149820155D01*
X62413000Y-148627000D01*
X62667000Y-148627000D01*
X62667000Y-149820155D01*
X62896890Y-149941476D01*
X63044099Y-149896825D01*
X63306920Y-149771641D01*
X63540269Y-149597588D01*
X63735178Y-149381355D01*
X63884157Y-149131252D01*
X63981481Y-148856891D01*
X63860814Y-148627000D01*
X62667000Y-148627000D01*
X62413000Y-148627000D01*
X60127000Y-148627000D01*
X59873000Y-148627000D01*
X57587000Y-148627000D01*
X57333000Y-148627000D01*
X55047000Y-148627000D01*
X54793000Y-148627000D01*
X52507000Y-148627000D01*
X52253000Y-148627000D01*
X51053750Y-148627000D01*
X50895000Y-148785750D01*
X50891928Y-149350000D01*
X37258590Y-149350000D01*
X37165870Y-149283374D01*
X36629223Y-148729597D01*
X36199129Y-148089549D01*
X35889171Y-147383447D01*
X35707935Y-146628543D01*
X35660000Y-145975793D01*
X35660000Y-145691229D01*
X36865000Y-145691229D01*
X36865000Y-146308771D01*
X36985476Y-146914446D01*
X37221799Y-147484979D01*
X37564886Y-147998446D01*
X38001554Y-148435114D01*
X38515021Y-148778201D01*
X39085554Y-149014524D01*
X39691229Y-149135000D01*
X40308771Y-149135000D01*
X40914446Y-149014524D01*
X41484979Y-148778201D01*
X41998446Y-148435114D01*
X42435114Y-147998446D01*
X42778201Y-147484979D01*
X43014524Y-146914446D01*
X43135000Y-146308771D01*
X43135000Y-145691229D01*
X43014524Y-145085554D01*
X42778201Y-144515021D01*
X42435114Y-144001554D01*
X41998446Y-143564886D01*
X41484979Y-143221799D01*
X40914446Y-142985476D01*
X40308771Y-142865000D01*
X39691229Y-142865000D01*
X39085554Y-142985476D01*
X38515021Y-143221799D01*
X38001554Y-143564886D01*
X37564886Y-144001554D01*
X37221799Y-144515021D01*
X36985476Y-145085554D01*
X36865000Y-145691229D01*
X35660000Y-145691229D01*
X35660000Y-140826000D01*
X37309089Y-140826000D01*
X37340657Y-141146516D01*
X37434148Y-141454715D01*
X37585969Y-141738752D01*
X37790286Y-141987714D01*
X38039248Y-142192031D01*
X38323285Y-142343852D01*
X38631484Y-142437343D01*
X38871678Y-142461000D01*
X41032322Y-142461000D01*
X41272516Y-142437343D01*
X41580715Y-142343852D01*
X41864752Y-142192031D01*
X42113714Y-141987714D01*
X42318031Y-141738752D01*
X42469852Y-141454715D01*
X42563343Y-141146516D01*
X42594911Y-140826000D01*
X42563343Y-140505484D01*
X42469852Y-140197285D01*
X42318031Y-139913248D01*
X42113714Y-139664286D01*
X41864752Y-139459969D01*
X41580715Y-139308148D01*
X41272516Y-139214657D01*
X41032322Y-139191000D01*
X38871678Y-139191000D01*
X38631484Y-139214657D01*
X38323285Y-139308148D01*
X38039248Y-139459969D01*
X37790286Y-139664286D01*
X37585969Y-139913248D01*
X37434148Y-140197285D01*
X37340657Y-140505484D01*
X37309089Y-140826000D01*
X35660000Y-140826000D01*
X35660000Y-138060743D01*
X35837683Y-138245922D01*
X36101239Y-138430010D01*
X36395645Y-138559144D01*
X36523566Y-138590124D01*
X36777000Y-138470777D01*
X36777000Y-136127000D01*
X37031000Y-136127000D01*
X37031000Y-138470777D01*
X37284434Y-138590124D01*
X37412355Y-138559144D01*
X37706761Y-138430010D01*
X37970317Y-138245922D01*
X38192895Y-138013954D01*
X38365942Y-137743020D01*
X38482807Y-137443532D01*
X38539000Y-137127000D01*
X38539000Y-136127000D01*
X37031000Y-136127000D01*
X36777000Y-136127000D01*
X36757000Y-136127000D01*
X36757000Y-135873000D01*
X36777000Y-135873000D01*
X36777000Y-133529223D01*
X37031000Y-133529223D01*
X37031000Y-135873000D01*
X38539000Y-135873000D01*
X38539000Y-134873000D01*
X38482807Y-134556468D01*
X38365942Y-134256980D01*
X38192895Y-133986046D01*
X37970317Y-133754078D01*
X37706761Y-133569990D01*
X37412355Y-133440856D01*
X37284434Y-133409876D01*
X37031000Y-133529223D01*
X36777000Y-133529223D01*
X36523566Y-133409876D01*
X36395645Y-133440856D01*
X36101239Y-133569990D01*
X35837683Y-133754078D01*
X35660000Y-133939257D01*
X35660000Y-126029392D01*
X35690180Y-125691229D01*
X36865000Y-125691229D01*
X36865000Y-126308771D01*
X36985476Y-126914446D01*
X37221799Y-127484979D01*
X37564886Y-127998446D01*
X38001554Y-128435114D01*
X38515021Y-128778201D01*
X39085554Y-129014524D01*
X39691229Y-129135000D01*
X40308771Y-129135000D01*
X40914446Y-129014524D01*
X41484979Y-128778201D01*
X41998446Y-128435114D01*
X42435114Y-127998446D01*
X42778201Y-127484979D01*
X43014524Y-126914446D01*
X43135000Y-126308771D01*
X43135000Y-126007298D01*
X46186903Y-126007298D01*
X47000000Y-126820395D01*
X47813097Y-126007298D01*
X47741514Y-125763329D01*
X47486004Y-125642429D01*
X47211816Y-125573700D01*
X46929488Y-125559783D01*
X46649870Y-125601213D01*
X46383708Y-125696397D01*
X46258486Y-125763329D01*
X46186903Y-126007298D01*
X43135000Y-126007298D01*
X43135000Y-125691229D01*
X43014524Y-125085554D01*
X42778201Y-124515021D01*
X42435114Y-124001554D01*
X41998446Y-123564886D01*
X41484979Y-123221799D01*
X40914446Y-122985476D01*
X40308771Y-122865000D01*
X39691229Y-122865000D01*
X39085554Y-122985476D01*
X38515021Y-123221799D01*
X38001554Y-123564886D01*
X37564886Y-124001554D01*
X37221799Y-124515021D01*
X36985476Y-125085554D01*
X36865000Y-125691229D01*
X35690180Y-125691229D01*
X35731173Y-125231917D01*
X35934656Y-124488109D01*
X36266638Y-123792095D01*
X36716626Y-123165870D01*
X37270403Y-122629223D01*
X37910451Y-122199129D01*
X38616553Y-121889171D01*
X39371457Y-121707935D01*
X40024207Y-121660000D01*
X81755229Y-121660000D01*
X81728320Y-121700273D01*
G37*
G04 #@! TD.AperFunction*
D30*
X76917178Y-128688180D02*
X76820273Y-128728320D01*
X76585241Y-128885363D01*
X76385363Y-129085241D01*
X76228320Y-129320273D01*
X76120147Y-129581426D01*
X76065000Y-129858665D01*
X76065000Y-130141335D01*
X76120147Y-130418574D01*
X76228320Y-130679727D01*
X76385363Y-130914759D01*
X76585241Y-131114637D01*
X76820273Y-131271680D01*
X77081426Y-131379853D01*
X77358665Y-131435000D01*
X77641335Y-131435000D01*
X77734863Y-131416396D01*
X77833853Y-131497635D01*
X77978912Y-131575171D01*
X78136310Y-131622917D01*
X78258980Y-131634999D01*
X78258990Y-131634999D01*
X78299998Y-131639038D01*
X78341006Y-131634999D01*
X79659840Y-131634999D01*
X81183181Y-133158340D01*
X80810750Y-133160000D01*
X80652000Y-133318750D01*
X80652000Y-133968000D01*
X80672000Y-133968000D01*
X80672000Y-134222000D01*
X80652000Y-134222000D01*
X80652000Y-134242000D01*
X80398000Y-134242000D01*
X80398000Y-134222000D01*
X79073750Y-134222000D01*
X78915000Y-134380750D01*
X78911928Y-134395000D01*
X78924188Y-134519482D01*
X78934437Y-134553268D01*
X78813913Y-134589828D01*
X78668854Y-134667364D01*
X78541709Y-134771709D01*
X78515559Y-134803574D01*
X77154133Y-136165000D01*
X75434625Y-136165000D01*
X75425812Y-136075518D01*
X75389502Y-135955820D01*
X75330537Y-135845506D01*
X75251185Y-135748815D01*
X75238242Y-135738193D01*
X75357571Y-135486004D01*
X75426300Y-135211816D01*
X75440217Y-134929488D01*
X75398787Y-134649870D01*
X75303603Y-134383708D01*
X75236671Y-134258486D01*
X74992702Y-134186903D01*
X74179605Y-135000000D01*
X74193748Y-135014143D01*
X74014143Y-135193748D01*
X74000000Y-135179605D01*
X73985858Y-135193748D01*
X73806253Y-135014143D01*
X73820395Y-135000000D01*
X73007298Y-134186903D01*
X72763329Y-134258486D01*
X72642429Y-134513996D01*
X72573700Y-134788184D01*
X72559783Y-135070512D01*
X72601213Y-135350130D01*
X72696397Y-135616292D01*
X72761616Y-135738309D01*
X72748815Y-135748815D01*
X72669463Y-135845506D01*
X72610498Y-135955820D01*
X72574188Y-136075518D01*
X72565375Y-136165000D01*
X71345868Y-136165000D01*
X70715000Y-135534133D01*
X70715000Y-134998587D01*
X70898061Y-135035000D01*
X71101939Y-135035000D01*
X71301898Y-134995226D01*
X71490256Y-134917205D01*
X71659774Y-134803937D01*
X71803937Y-134659774D01*
X71917205Y-134490256D01*
X71995226Y-134301898D01*
X72035000Y-134101939D01*
X72035000Y-134007298D01*
X73186903Y-134007298D01*
X74000000Y-134820395D01*
X74813097Y-134007298D01*
X74750807Y-133795000D01*
X78911928Y-133795000D01*
X78915000Y-133809250D01*
X79073750Y-133968000D01*
X80398000Y-133968000D01*
X80398000Y-133318750D01*
X80239250Y-133160000D01*
X79550000Y-133156928D01*
X79425518Y-133169188D01*
X79305820Y-133205498D01*
X79195506Y-133264463D01*
X79098815Y-133343815D01*
X79019463Y-133440506D01*
X78960498Y-133550820D01*
X78924188Y-133670518D01*
X78911928Y-133795000D01*
X74750807Y-133795000D01*
X74741514Y-133763329D01*
X74486004Y-133642429D01*
X74211816Y-133573700D01*
X73929488Y-133559783D01*
X73649870Y-133601213D01*
X73383708Y-133696397D01*
X73258486Y-133763329D01*
X73186903Y-134007298D01*
X72035000Y-134007298D01*
X72035000Y-133898061D01*
X71995226Y-133698102D01*
X71917205Y-133509744D01*
X71915001Y-133506445D01*
X71915001Y-129465017D01*
X71919041Y-129423998D01*
X71902919Y-129260310D01*
X71855173Y-129102912D01*
X71777637Y-128957853D01*
X71738506Y-128910172D01*
X71673292Y-128830708D01*
X71641429Y-128804559D01*
X70250212Y-127413343D01*
X70418574Y-127379853D01*
X70679727Y-127271680D01*
X70914759Y-127114637D01*
X71044396Y-126985000D01*
X75213998Y-126985000D01*
X76917178Y-128688180D01*
G04 #@! TA.AperFunction,Conductor*
D31*
G36*
X76917178Y-128688180D02*
G01*
X76820273Y-128728320D01*
X76585241Y-128885363D01*
X76385363Y-129085241D01*
X76228320Y-129320273D01*
X76120147Y-129581426D01*
X76065000Y-129858665D01*
X76065000Y-130141335D01*
X76120147Y-130418574D01*
X76228320Y-130679727D01*
X76385363Y-130914759D01*
X76585241Y-131114637D01*
X76820273Y-131271680D01*
X77081426Y-131379853D01*
X77358665Y-131435000D01*
X77641335Y-131435000D01*
X77734863Y-131416396D01*
X77833853Y-131497635D01*
X77978912Y-131575171D01*
X78136310Y-131622917D01*
X78258980Y-131634999D01*
X78258990Y-131634999D01*
X78299998Y-131639038D01*
X78341006Y-131634999D01*
X79659840Y-131634999D01*
X81183181Y-133158340D01*
X80810750Y-133160000D01*
X80652000Y-133318750D01*
X80652000Y-133968000D01*
X80672000Y-133968000D01*
X80672000Y-134222000D01*
X80652000Y-134222000D01*
X80652000Y-134242000D01*
X80398000Y-134242000D01*
X80398000Y-134222000D01*
X79073750Y-134222000D01*
X78915000Y-134380750D01*
X78911928Y-134395000D01*
X78924188Y-134519482D01*
X78934437Y-134553268D01*
X78813913Y-134589828D01*
X78668854Y-134667364D01*
X78541709Y-134771709D01*
X78515559Y-134803574D01*
X77154133Y-136165000D01*
X75434625Y-136165000D01*
X75425812Y-136075518D01*
X75389502Y-135955820D01*
X75330537Y-135845506D01*
X75251185Y-135748815D01*
X75238242Y-135738193D01*
X75357571Y-135486004D01*
X75426300Y-135211816D01*
X75440217Y-134929488D01*
X75398787Y-134649870D01*
X75303603Y-134383708D01*
X75236671Y-134258486D01*
X74992702Y-134186903D01*
X74179605Y-135000000D01*
X74193748Y-135014143D01*
X74014143Y-135193748D01*
X74000000Y-135179605D01*
X73985858Y-135193748D01*
X73806253Y-135014143D01*
X73820395Y-135000000D01*
X73007298Y-134186903D01*
X72763329Y-134258486D01*
X72642429Y-134513996D01*
X72573700Y-134788184D01*
X72559783Y-135070512D01*
X72601213Y-135350130D01*
X72696397Y-135616292D01*
X72761616Y-135738309D01*
X72748815Y-135748815D01*
X72669463Y-135845506D01*
X72610498Y-135955820D01*
X72574188Y-136075518D01*
X72565375Y-136165000D01*
X71345868Y-136165000D01*
X70715000Y-135534133D01*
X70715000Y-134998587D01*
X70898061Y-135035000D01*
X71101939Y-135035000D01*
X71301898Y-134995226D01*
X71490256Y-134917205D01*
X71659774Y-134803937D01*
X71803937Y-134659774D01*
X71917205Y-134490256D01*
X71995226Y-134301898D01*
X72035000Y-134101939D01*
X72035000Y-134007298D01*
X73186903Y-134007298D01*
X74000000Y-134820395D01*
X74813097Y-134007298D01*
X74750807Y-133795000D01*
X78911928Y-133795000D01*
X78915000Y-133809250D01*
X79073750Y-133968000D01*
X80398000Y-133968000D01*
X80398000Y-133318750D01*
X80239250Y-133160000D01*
X79550000Y-133156928D01*
X79425518Y-133169188D01*
X79305820Y-133205498D01*
X79195506Y-133264463D01*
X79098815Y-133343815D01*
X79019463Y-133440506D01*
X78960498Y-133550820D01*
X78924188Y-133670518D01*
X78911928Y-133795000D01*
X74750807Y-133795000D01*
X74741514Y-133763329D01*
X74486004Y-133642429D01*
X74211816Y-133573700D01*
X73929488Y-133559783D01*
X73649870Y-133601213D01*
X73383708Y-133696397D01*
X73258486Y-133763329D01*
X73186903Y-134007298D01*
X72035000Y-134007298D01*
X72035000Y-133898061D01*
X71995226Y-133698102D01*
X71917205Y-133509744D01*
X71915001Y-133506445D01*
X71915001Y-129465017D01*
X71919041Y-129423998D01*
X71902919Y-129260310D01*
X71855173Y-129102912D01*
X71777637Y-128957853D01*
X71738506Y-128910172D01*
X71673292Y-128830708D01*
X71641429Y-128804559D01*
X70250212Y-127413343D01*
X70418574Y-127379853D01*
X70679727Y-127271680D01*
X70914759Y-127114637D01*
X71044396Y-126985000D01*
X75213998Y-126985000D01*
X76917178Y-128688180D01*
G37*
G04 #@! TD.AperFunction*
D30*
X62152000Y-129278000D02*
X62172000Y-129278000D01*
X62172000Y-129532000D01*
X62152000Y-129532000D01*
X62152000Y-130181250D01*
X62310750Y-130340000D01*
X63000000Y-130343072D01*
X63124482Y-130330812D01*
X63244180Y-130294502D01*
X63354494Y-130235537D01*
X63451185Y-130156185D01*
X63530537Y-130059494D01*
X63576137Y-129974183D01*
X63582795Y-129990256D01*
X63696063Y-130159774D01*
X63840226Y-130303937D01*
X64009744Y-130417205D01*
X64198102Y-130495226D01*
X64398061Y-130535000D01*
X64601939Y-130535000D01*
X64801898Y-130495226D01*
X64990256Y-130417205D01*
X65159774Y-130303937D01*
X65223711Y-130240000D01*
X65767814Y-130240000D01*
X65848418Y-130283084D01*
X65996255Y-130327929D01*
X66150000Y-130343072D01*
X66732205Y-130343072D01*
X67865001Y-131475870D01*
X67865001Y-133489491D01*
X67641335Y-133445000D01*
X67358665Y-133445000D01*
X67081426Y-133500147D01*
X66820273Y-133608320D01*
X66585241Y-133765363D01*
X66385363Y-133965241D01*
X66332070Y-134045000D01*
X63667930Y-134045000D01*
X63614637Y-133965241D01*
X63414759Y-133765363D01*
X63179727Y-133608320D01*
X62918574Y-133500147D01*
X62641335Y-133445000D01*
X62358665Y-133445000D01*
X62081426Y-133500147D01*
X61820273Y-133608320D01*
X61585241Y-133765363D01*
X61385363Y-133965241D01*
X61332070Y-134045000D01*
X58667930Y-134045000D01*
X58614637Y-133965241D01*
X58414759Y-133765363D01*
X58335000Y-133712070D01*
X58335000Y-132287930D01*
X58414759Y-132234637D01*
X58614637Y-132034759D01*
X58771680Y-131799727D01*
X58879853Y-131538574D01*
X58892904Y-131472963D01*
X60450301Y-129915566D01*
X60460498Y-129949180D01*
X60519463Y-130059494D01*
X60598815Y-130156185D01*
X60695506Y-130235537D01*
X60805820Y-130294502D01*
X60925518Y-130330812D01*
X61050000Y-130343072D01*
X61739250Y-130340000D01*
X61898000Y-130181250D01*
X61898000Y-129532000D01*
X61878000Y-129532000D01*
X61878000Y-129278000D01*
X61898000Y-129278000D01*
X61898000Y-129258000D01*
X62152000Y-129258000D01*
X62152000Y-129278000D01*
G04 #@! TA.AperFunction,Conductor*
D31*
G36*
X62152000Y-129278000D02*
G01*
X62172000Y-129278000D01*
X62172000Y-129532000D01*
X62152000Y-129532000D01*
X62152000Y-130181250D01*
X62310750Y-130340000D01*
X63000000Y-130343072D01*
X63124482Y-130330812D01*
X63244180Y-130294502D01*
X63354494Y-130235537D01*
X63451185Y-130156185D01*
X63530537Y-130059494D01*
X63576137Y-129974183D01*
X63582795Y-129990256D01*
X63696063Y-130159774D01*
X63840226Y-130303937D01*
X64009744Y-130417205D01*
X64198102Y-130495226D01*
X64398061Y-130535000D01*
X64601939Y-130535000D01*
X64801898Y-130495226D01*
X64990256Y-130417205D01*
X65159774Y-130303937D01*
X65223711Y-130240000D01*
X65767814Y-130240000D01*
X65848418Y-130283084D01*
X65996255Y-130327929D01*
X66150000Y-130343072D01*
X66732205Y-130343072D01*
X67865001Y-131475870D01*
X67865001Y-133489491D01*
X67641335Y-133445000D01*
X67358665Y-133445000D01*
X67081426Y-133500147D01*
X66820273Y-133608320D01*
X66585241Y-133765363D01*
X66385363Y-133965241D01*
X66332070Y-134045000D01*
X63667930Y-134045000D01*
X63614637Y-133965241D01*
X63414759Y-133765363D01*
X63179727Y-133608320D01*
X62918574Y-133500147D01*
X62641335Y-133445000D01*
X62358665Y-133445000D01*
X62081426Y-133500147D01*
X61820273Y-133608320D01*
X61585241Y-133765363D01*
X61385363Y-133965241D01*
X61332070Y-134045000D01*
X58667930Y-134045000D01*
X58614637Y-133965241D01*
X58414759Y-133765363D01*
X58335000Y-133712070D01*
X58335000Y-132287930D01*
X58414759Y-132234637D01*
X58614637Y-132034759D01*
X58771680Y-131799727D01*
X58879853Y-131538574D01*
X58892904Y-131472963D01*
X60450301Y-129915566D01*
X60460498Y-129949180D01*
X60519463Y-130059494D01*
X60598815Y-130156185D01*
X60695506Y-130235537D01*
X60805820Y-130294502D01*
X60925518Y-130330812D01*
X61050000Y-130343072D01*
X61739250Y-130340000D01*
X61898000Y-130181250D01*
X61898000Y-129532000D01*
X61878000Y-129532000D01*
X61878000Y-129278000D01*
X61898000Y-129278000D01*
X61898000Y-129258000D01*
X62152000Y-129258000D01*
X62152000Y-129278000D01*
G37*
G04 #@! TD.AperFunction*
M02*
