G04 #@! TF.GenerationSoftware,KiCad,Pcbnew,(5.1.10)-1*
G04 #@! TF.CreationDate,2021-08-27T01:26:18-04:00*
G04 #@! TF.ProjectId,Water_Valve_Sensor,57617465-725f-4566-916c-76655f53656e,rev?*
G04 #@! TF.SameCoordinates,Original*
G04 #@! TF.FileFunction,Legend,Top*
G04 #@! TF.FilePolarity,Positive*
%FSLAX46Y46*%
G04 Gerber Fmt 4.6, Leading zero omitted, Abs format (unit mm)*
G04 Created by KiCad (PCBNEW (5.1.10)-1) date 2021-08-27 01:26:18*
%MOMM*%
%LPD*%
G01*
G04 APERTURE LIST*
%ADD10C,0.200000*%
%ADD11C,0.120000*%
%ADD12C,0.127000*%
%ADD13C,0.150000*%
%ADD14O,1.600000X1.600000*%
%ADD15C,1.600000*%
%ADD16C,2.500000*%
%ADD17C,5.000000*%
%ADD18C,2.900000*%
%ADD19O,2.000000X4.500000*%
%ADD20O,4.000000X2.000000*%
%ADD21O,2.000000X4.000000*%
%ADD22O,1.700000X1.700000*%
%ADD23R,1.700000X1.700000*%
%ADD24R,1.600000X1.600000*%
%ADD25R,1.300000X1.300000*%
%ADD26C,1.300000*%
%ADD27C,1.800000*%
%ADD28R,1.800000X1.800000*%
%ADD29O,2.400000X2.400000*%
%ADD30R,2.400000X2.400000*%
G04 APERTURE END LIST*
D10*
X87619047Y-145452380D02*
X87619047Y-144452380D01*
X88190476Y-145452380D01*
X88190476Y-144452380D01*
X88857142Y-144452380D02*
X89047619Y-144452380D01*
X89142857Y-144500000D01*
X89238095Y-144595238D01*
X89285714Y-144785714D01*
X89285714Y-145119047D01*
X89238095Y-145309523D01*
X89142857Y-145404761D01*
X89047619Y-145452380D01*
X88857142Y-145452380D01*
X88761904Y-145404761D01*
X88666666Y-145309523D01*
X88619047Y-145119047D01*
X88619047Y-144785714D01*
X88666666Y-144595238D01*
X88761904Y-144500000D01*
X88857142Y-144452380D01*
X90285714Y-145452380D02*
X89952380Y-144976190D01*
X89714285Y-145452380D02*
X89714285Y-144452380D01*
X90095238Y-144452380D01*
X90190476Y-144500000D01*
X90238095Y-144547619D01*
X90285714Y-144642857D01*
X90285714Y-144785714D01*
X90238095Y-144880952D01*
X90190476Y-144928571D01*
X90095238Y-144976190D01*
X89714285Y-144976190D01*
X90714285Y-145452380D02*
X90714285Y-144452380D01*
X91047619Y-145166666D01*
X91380952Y-144452380D01*
X91380952Y-145452380D01*
X80166666Y-146142857D02*
X80166666Y-145666666D01*
X80452380Y-146238095D02*
X79452380Y-145904761D01*
X80452380Y-145571428D01*
X80452380Y-144761904D02*
X80452380Y-145238095D01*
X79452380Y-145238095D01*
X80166666Y-144476190D02*
X80166666Y-144000000D01*
X80452380Y-144571428D02*
X79452380Y-144238095D01*
X80452380Y-143904761D01*
X80452380Y-143000000D02*
X79976190Y-143333333D01*
X80452380Y-143571428D02*
X79452380Y-143571428D01*
X79452380Y-143190476D01*
X79500000Y-143095238D01*
X79547619Y-143047619D01*
X79642857Y-143000000D01*
X79785714Y-143000000D01*
X79880952Y-143047619D01*
X79928571Y-143095238D01*
X79976190Y-143190476D01*
X79976190Y-143571428D01*
X80452380Y-142571428D02*
X79452380Y-142571428D01*
X80166666Y-142238095D01*
X79452380Y-141904761D01*
X80452380Y-141904761D01*
D11*
X99540000Y-142460000D02*
X99540000Y-142130000D01*
X99540000Y-142130000D02*
X106080000Y-142130000D01*
X106080000Y-142130000D02*
X106080000Y-142460000D01*
X99540000Y-144540000D02*
X99540000Y-144870000D01*
X99540000Y-144870000D02*
X106080000Y-144870000D01*
X106080000Y-144870000D02*
X106080000Y-144540000D01*
D12*
X107400000Y-134500000D02*
G75*
G03*
X107400000Y-134500000I-6900000J0D01*
G01*
D11*
X43381000Y-130793000D02*
G75*
G03*
X43381000Y-130793000I-381000J0D01*
G01*
X40753454Y-140572000D02*
X43889000Y-140572000D01*
X43889000Y-131428000D02*
X29157000Y-131428000D01*
X43889000Y-140572000D02*
X43889000Y-131428000D01*
X29157000Y-140572000D02*
X39150546Y-140572000D01*
X29157000Y-131428000D02*
X29157000Y-140572000D01*
X72330000Y-148940000D02*
X67130000Y-148940000D01*
X67130000Y-148940000D02*
X67130000Y-151600000D01*
X67130000Y-151600000D02*
X72330000Y-151600000D01*
X72330000Y-151600000D02*
X72330000Y-148940000D01*
X71380000Y-151600000D02*
X71380000Y-157600000D01*
X71380000Y-157600000D02*
X70620000Y-157600000D01*
X70620000Y-157600000D02*
X70620000Y-151600000D01*
X71320000Y-151600000D02*
X71320000Y-157600000D01*
X71200000Y-151600000D02*
X71200000Y-157600000D01*
X71080000Y-151600000D02*
X71080000Y-157600000D01*
X70960000Y-151600000D02*
X70960000Y-157600000D01*
X70840000Y-151600000D02*
X70840000Y-157600000D01*
X70720000Y-151600000D02*
X70720000Y-157600000D01*
X71380000Y-148610000D02*
X71380000Y-148940000D01*
X70620000Y-148610000D02*
X70620000Y-148940000D01*
X69730000Y-148940000D02*
X69730000Y-151600000D01*
X68840000Y-151600000D02*
X68840000Y-157600000D01*
X68840000Y-157600000D02*
X68080000Y-157600000D01*
X68080000Y-157600000D02*
X68080000Y-151600000D01*
X68840000Y-148542929D02*
X68840000Y-148940000D01*
X68080000Y-148542929D02*
X68080000Y-148940000D01*
X71000000Y-146230000D02*
X72270000Y-146230000D01*
X72270000Y-146230000D02*
X72270000Y-147500000D01*
X103330000Y-148940000D02*
X98130000Y-148940000D01*
X98130000Y-148940000D02*
X98130000Y-151600000D01*
X98130000Y-151600000D02*
X103330000Y-151600000D01*
X103330000Y-151600000D02*
X103330000Y-148940000D01*
X102380000Y-151600000D02*
X102380000Y-157600000D01*
X102380000Y-157600000D02*
X101620000Y-157600000D01*
X101620000Y-157600000D02*
X101620000Y-151600000D01*
X102320000Y-151600000D02*
X102320000Y-157600000D01*
X102200000Y-151600000D02*
X102200000Y-157600000D01*
X102080000Y-151600000D02*
X102080000Y-157600000D01*
X101960000Y-151600000D02*
X101960000Y-157600000D01*
X101840000Y-151600000D02*
X101840000Y-157600000D01*
X101720000Y-151600000D02*
X101720000Y-157600000D01*
X102380000Y-148610000D02*
X102380000Y-148940000D01*
X101620000Y-148610000D02*
X101620000Y-148940000D01*
X100730000Y-148940000D02*
X100730000Y-151600000D01*
X99840000Y-151600000D02*
X99840000Y-157600000D01*
X99840000Y-157600000D02*
X99080000Y-157600000D01*
X99080000Y-157600000D02*
X99080000Y-151600000D01*
X99840000Y-148542929D02*
X99840000Y-148940000D01*
X99080000Y-148542929D02*
X99080000Y-148940000D01*
X102000000Y-146230000D02*
X103270000Y-146230000D01*
X103270000Y-146230000D02*
X103270000Y-147500000D01*
X63870000Y-149830000D02*
X63870000Y-144630000D01*
X53650000Y-149830000D02*
X63870000Y-149830000D01*
X51050000Y-144630000D02*
X63870000Y-144630000D01*
X53650000Y-149830000D02*
X53650000Y-147230000D01*
X53650000Y-147230000D02*
X51050000Y-147230000D01*
X51050000Y-147230000D02*
X51050000Y-144630000D01*
X52380000Y-149830000D02*
X51050000Y-149830000D01*
X51050000Y-149830000D02*
X51050000Y-148500000D01*
X76620000Y-136000000D02*
G75*
G03*
X76620000Y-136000000I-2620000J0D01*
G01*
X75040000Y-136000000D02*
X76580000Y-136000000D01*
X71420000Y-136000000D02*
X72960000Y-136000000D01*
X75040000Y-135960000D02*
X76580000Y-135960000D01*
X71420000Y-135960000D02*
X72960000Y-135960000D01*
X71421000Y-135920000D02*
X72960000Y-135920000D01*
X75040000Y-135920000D02*
X76579000Y-135920000D01*
X71422000Y-135880000D02*
X72960000Y-135880000D01*
X75040000Y-135880000D02*
X76578000Y-135880000D01*
X71424000Y-135840000D02*
X72960000Y-135840000D01*
X75040000Y-135840000D02*
X76576000Y-135840000D01*
X71427000Y-135800000D02*
X72960000Y-135800000D01*
X75040000Y-135800000D02*
X76573000Y-135800000D01*
X71431000Y-135760000D02*
X72960000Y-135760000D01*
X75040000Y-135760000D02*
X76569000Y-135760000D01*
X71435000Y-135720000D02*
X72960000Y-135720000D01*
X75040000Y-135720000D02*
X76565000Y-135720000D01*
X71439000Y-135680000D02*
X72960000Y-135680000D01*
X75040000Y-135680000D02*
X76561000Y-135680000D01*
X71444000Y-135640000D02*
X72960000Y-135640000D01*
X75040000Y-135640000D02*
X76556000Y-135640000D01*
X71450000Y-135600000D02*
X72960000Y-135600000D01*
X75040000Y-135600000D02*
X76550000Y-135600000D01*
X71457000Y-135560000D02*
X72960000Y-135560000D01*
X75040000Y-135560000D02*
X76543000Y-135560000D01*
X71464000Y-135520000D02*
X72960000Y-135520000D01*
X75040000Y-135520000D02*
X76536000Y-135520000D01*
X71472000Y-135480000D02*
X72960000Y-135480000D01*
X75040000Y-135480000D02*
X76528000Y-135480000D01*
X71480000Y-135440000D02*
X72960000Y-135440000D01*
X75040000Y-135440000D02*
X76520000Y-135440000D01*
X71489000Y-135400000D02*
X72960000Y-135400000D01*
X75040000Y-135400000D02*
X76511000Y-135400000D01*
X71499000Y-135360000D02*
X72960000Y-135360000D01*
X75040000Y-135360000D02*
X76501000Y-135360000D01*
X71509000Y-135320000D02*
X72960000Y-135320000D01*
X75040000Y-135320000D02*
X76491000Y-135320000D01*
X71520000Y-135279000D02*
X72960000Y-135279000D01*
X75040000Y-135279000D02*
X76480000Y-135279000D01*
X71532000Y-135239000D02*
X72960000Y-135239000D01*
X75040000Y-135239000D02*
X76468000Y-135239000D01*
X71545000Y-135199000D02*
X72960000Y-135199000D01*
X75040000Y-135199000D02*
X76455000Y-135199000D01*
X71558000Y-135159000D02*
X72960000Y-135159000D01*
X75040000Y-135159000D02*
X76442000Y-135159000D01*
X71572000Y-135119000D02*
X72960000Y-135119000D01*
X75040000Y-135119000D02*
X76428000Y-135119000D01*
X71586000Y-135079000D02*
X72960000Y-135079000D01*
X75040000Y-135079000D02*
X76414000Y-135079000D01*
X71602000Y-135039000D02*
X72960000Y-135039000D01*
X75040000Y-135039000D02*
X76398000Y-135039000D01*
X71618000Y-134999000D02*
X72960000Y-134999000D01*
X75040000Y-134999000D02*
X76382000Y-134999000D01*
X71635000Y-134959000D02*
X72960000Y-134959000D01*
X75040000Y-134959000D02*
X76365000Y-134959000D01*
X71652000Y-134919000D02*
X72960000Y-134919000D01*
X75040000Y-134919000D02*
X76348000Y-134919000D01*
X71671000Y-134879000D02*
X72960000Y-134879000D01*
X75040000Y-134879000D02*
X76329000Y-134879000D01*
X71690000Y-134839000D02*
X72960000Y-134839000D01*
X75040000Y-134839000D02*
X76310000Y-134839000D01*
X71710000Y-134799000D02*
X72960000Y-134799000D01*
X75040000Y-134799000D02*
X76290000Y-134799000D01*
X71732000Y-134759000D02*
X72960000Y-134759000D01*
X75040000Y-134759000D02*
X76268000Y-134759000D01*
X71753000Y-134719000D02*
X72960000Y-134719000D01*
X75040000Y-134719000D02*
X76247000Y-134719000D01*
X71776000Y-134679000D02*
X72960000Y-134679000D01*
X75040000Y-134679000D02*
X76224000Y-134679000D01*
X71800000Y-134639000D02*
X72960000Y-134639000D01*
X75040000Y-134639000D02*
X76200000Y-134639000D01*
X71825000Y-134599000D02*
X72960000Y-134599000D01*
X75040000Y-134599000D02*
X76175000Y-134599000D01*
X71851000Y-134559000D02*
X72960000Y-134559000D01*
X75040000Y-134559000D02*
X76149000Y-134559000D01*
X71878000Y-134519000D02*
X72960000Y-134519000D01*
X75040000Y-134519000D02*
X76122000Y-134519000D01*
X71905000Y-134479000D02*
X72960000Y-134479000D01*
X75040000Y-134479000D02*
X76095000Y-134479000D01*
X71935000Y-134439000D02*
X72960000Y-134439000D01*
X75040000Y-134439000D02*
X76065000Y-134439000D01*
X71965000Y-134399000D02*
X72960000Y-134399000D01*
X75040000Y-134399000D02*
X76035000Y-134399000D01*
X71996000Y-134359000D02*
X72960000Y-134359000D01*
X75040000Y-134359000D02*
X76004000Y-134359000D01*
X72029000Y-134319000D02*
X72960000Y-134319000D01*
X75040000Y-134319000D02*
X75971000Y-134319000D01*
X72063000Y-134279000D02*
X72960000Y-134279000D01*
X75040000Y-134279000D02*
X75937000Y-134279000D01*
X72099000Y-134239000D02*
X72960000Y-134239000D01*
X75040000Y-134239000D02*
X75901000Y-134239000D01*
X72136000Y-134199000D02*
X72960000Y-134199000D01*
X75040000Y-134199000D02*
X75864000Y-134199000D01*
X72174000Y-134159000D02*
X72960000Y-134159000D01*
X75040000Y-134159000D02*
X75826000Y-134159000D01*
X72215000Y-134119000D02*
X72960000Y-134119000D01*
X75040000Y-134119000D02*
X75785000Y-134119000D01*
X72257000Y-134079000D02*
X72960000Y-134079000D01*
X75040000Y-134079000D02*
X75743000Y-134079000D01*
X72301000Y-134039000D02*
X72960000Y-134039000D01*
X75040000Y-134039000D02*
X75699000Y-134039000D01*
X72347000Y-133999000D02*
X72960000Y-133999000D01*
X75040000Y-133999000D02*
X75653000Y-133999000D01*
X72395000Y-133959000D02*
X75605000Y-133959000D01*
X72446000Y-133919000D02*
X75554000Y-133919000D01*
X72500000Y-133879000D02*
X75500000Y-133879000D01*
X72557000Y-133839000D02*
X75443000Y-133839000D01*
X72617000Y-133799000D02*
X75383000Y-133799000D01*
X72681000Y-133759000D02*
X75319000Y-133759000D01*
X72749000Y-133719000D02*
X75251000Y-133719000D01*
X72822000Y-133679000D02*
X75178000Y-133679000D01*
X72902000Y-133639000D02*
X75098000Y-133639000D01*
X72989000Y-133599000D02*
X75011000Y-133599000D01*
X73085000Y-133559000D02*
X74915000Y-133559000D01*
X73195000Y-133519000D02*
X74805000Y-133519000D01*
X73323000Y-133479000D02*
X74677000Y-133479000D01*
X73482000Y-133439000D02*
X74518000Y-133439000D01*
X73716000Y-133399000D02*
X74284000Y-133399000D01*
X72525000Y-138804775D02*
X72525000Y-138304775D01*
X72275000Y-138554775D02*
X72775000Y-138554775D01*
X64500000Y-130060000D02*
X66450000Y-130060000D01*
X64500000Y-130060000D02*
X62550000Y-130060000D01*
X64500000Y-124940000D02*
X66450000Y-124940000D01*
X64500000Y-124940000D02*
X61050000Y-124940000D01*
X83000000Y-138560000D02*
X84950000Y-138560000D01*
X83000000Y-138560000D02*
X81050000Y-138560000D01*
X83000000Y-133440000D02*
X84950000Y-133440000D01*
X83000000Y-133440000D02*
X79550000Y-133440000D01*
X84040000Y-142040000D02*
X84370000Y-142040000D01*
X84370000Y-142040000D02*
X84370000Y-148580000D01*
X84370000Y-148580000D02*
X84040000Y-148580000D01*
X81960000Y-142040000D02*
X81630000Y-142040000D01*
X81630000Y-142040000D02*
X81630000Y-148580000D01*
X81630000Y-148580000D02*
X81960000Y-148580000D01*
X81960000Y-129460000D02*
X81630000Y-129460000D01*
X81630000Y-129460000D02*
X81630000Y-122920000D01*
X81630000Y-122920000D02*
X81960000Y-122920000D01*
X84040000Y-129460000D02*
X84370000Y-129460000D01*
X84370000Y-129460000D02*
X84370000Y-122920000D01*
X84370000Y-122920000D02*
X84040000Y-122920000D01*
X76960000Y-131040000D02*
X76960000Y-131370000D01*
X76960000Y-131370000D02*
X70420000Y-131370000D01*
X70420000Y-131370000D02*
X70420000Y-131040000D01*
X76960000Y-128960000D02*
X76960000Y-128630000D01*
X76960000Y-128630000D02*
X70420000Y-128630000D01*
X70420000Y-128630000D02*
X70420000Y-128960000D01*
X70540000Y-124960000D02*
X70540000Y-124630000D01*
X70540000Y-124630000D02*
X77080000Y-124630000D01*
X77080000Y-124630000D02*
X77080000Y-124960000D01*
X70540000Y-127040000D02*
X70540000Y-127370000D01*
X70540000Y-127370000D02*
X77080000Y-127370000D01*
X77080000Y-127370000D02*
X77080000Y-127040000D01*
X95540000Y-142040000D02*
X95870000Y-142040000D01*
X95870000Y-142040000D02*
X95870000Y-148580000D01*
X95870000Y-148580000D02*
X95540000Y-148580000D01*
X93460000Y-142040000D02*
X93130000Y-142040000D01*
X93130000Y-142040000D02*
X93130000Y-148580000D01*
X93130000Y-148580000D02*
X93460000Y-148580000D01*
X66460000Y-141960000D02*
X66130000Y-141960000D01*
X66130000Y-141960000D02*
X66130000Y-135420000D01*
X66130000Y-135420000D02*
X66460000Y-135420000D01*
X68540000Y-141960000D02*
X68870000Y-141960000D01*
X68870000Y-141960000D02*
X68870000Y-135420000D01*
X68870000Y-135420000D02*
X68540000Y-135420000D01*
X61460000Y-141960000D02*
X61130000Y-141960000D01*
X61130000Y-141960000D02*
X61130000Y-135420000D01*
X61130000Y-135420000D02*
X61460000Y-135420000D01*
X63540000Y-141960000D02*
X63870000Y-141960000D01*
X63870000Y-141960000D02*
X63870000Y-135420000D01*
X63870000Y-135420000D02*
X63540000Y-135420000D01*
X56460000Y-141960000D02*
X56130000Y-141960000D01*
X56130000Y-141960000D02*
X56130000Y-135420000D01*
X56130000Y-135420000D02*
X56460000Y-135420000D01*
X58540000Y-141960000D02*
X58870000Y-141960000D01*
X58870000Y-141960000D02*
X58870000Y-135420000D01*
X58870000Y-135420000D02*
X58540000Y-135420000D01*
X51460000Y-141960000D02*
X51130000Y-141960000D01*
X51130000Y-141960000D02*
X51130000Y-135420000D01*
X51130000Y-135420000D02*
X51460000Y-135420000D01*
X53540000Y-141960000D02*
X53870000Y-141960000D01*
X53870000Y-141960000D02*
X53870000Y-135420000D01*
X53870000Y-135420000D02*
X53540000Y-135420000D01*
X46460000Y-141960000D02*
X46130000Y-141960000D01*
X46130000Y-141960000D02*
X46130000Y-135420000D01*
X46130000Y-135420000D02*
X46460000Y-135420000D01*
X48540000Y-141960000D02*
X48870000Y-141960000D01*
X48870000Y-141960000D02*
X48870000Y-135420000D01*
X48870000Y-135420000D02*
X48540000Y-135420000D01*
X53540000Y-124040000D02*
X53870000Y-124040000D01*
X53870000Y-124040000D02*
X53870000Y-130580000D01*
X53870000Y-130580000D02*
X53540000Y-130580000D01*
X51460000Y-124040000D02*
X51130000Y-124040000D01*
X51130000Y-124040000D02*
X51130000Y-130580000D01*
X51130000Y-130580000D02*
X51460000Y-130580000D01*
X58540000Y-124040000D02*
X58870000Y-124040000D01*
X58870000Y-124040000D02*
X58870000Y-130580000D01*
X58870000Y-130580000D02*
X58540000Y-130580000D01*
X56460000Y-124040000D02*
X56130000Y-124040000D01*
X56130000Y-124040000D02*
X56130000Y-130580000D01*
X56130000Y-130580000D02*
X56460000Y-130580000D01*
X91338478Y-123891522D02*
G75*
G03*
X86900000Y-125730000I-1838478J-1838478D01*
G01*
X91338478Y-127568478D02*
G75*
G02*
X86900000Y-125730000I-1838478J1838478D01*
G01*
X91350000Y-127530000D02*
X91350000Y-123930000D01*
X78811130Y-149079837D02*
G75*
G02*
X76729039Y-149080000I-1041130J1079837D01*
G01*
X78811130Y-146920163D02*
G75*
G03*
X76729039Y-146920000I-1041130J-1079837D01*
G01*
X79442335Y-149078608D02*
G75*
G02*
X76210000Y-149235516I-1672335J1078608D01*
G01*
X79442335Y-146921392D02*
G75*
G03*
X76210000Y-146764484I-1672335J-1078608D01*
G01*
X76210000Y-146764000D02*
X76210000Y-146920000D01*
X76210000Y-149080000D02*
X76210000Y-149236000D01*
X91440000Y-132660000D02*
X91920000Y-132660000D01*
X91920000Y-132660000D02*
X91920000Y-140500000D01*
X91920000Y-140500000D02*
X91440000Y-140500000D01*
X88560000Y-132660000D02*
X88080000Y-132660000D01*
X88080000Y-132660000D02*
X88080000Y-140500000D01*
X88080000Y-140500000D02*
X88560000Y-140500000D01*
X91920000Y-133920000D02*
X88080000Y-133920000D01*
X91920000Y-134040000D02*
X88080000Y-134040000D01*
X91920000Y-133800000D02*
X88080000Y-133800000D01*
X90311130Y-149079837D02*
G75*
G02*
X88229039Y-149080000I-1041130J1079837D01*
G01*
X90311130Y-146920163D02*
G75*
G03*
X88229039Y-146920000I-1041130J-1079837D01*
G01*
X90942335Y-149078608D02*
G75*
G02*
X87710000Y-149235516I-1672335J1078608D01*
G01*
X90942335Y-146921392D02*
G75*
G03*
X87710000Y-146764484I-1672335J-1078608D01*
G01*
X87710000Y-146764000D02*
X87710000Y-146920000D01*
X87710000Y-149080000D02*
X87710000Y-149236000D01*
X49620000Y-128000000D02*
G75*
G03*
X49620000Y-128000000I-2620000J0D01*
G01*
X48040000Y-128000000D02*
X49580000Y-128000000D01*
X44420000Y-128000000D02*
X45960000Y-128000000D01*
X48040000Y-127960000D02*
X49580000Y-127960000D01*
X44420000Y-127960000D02*
X45960000Y-127960000D01*
X44421000Y-127920000D02*
X45960000Y-127920000D01*
X48040000Y-127920000D02*
X49579000Y-127920000D01*
X44422000Y-127880000D02*
X45960000Y-127880000D01*
X48040000Y-127880000D02*
X49578000Y-127880000D01*
X44424000Y-127840000D02*
X45960000Y-127840000D01*
X48040000Y-127840000D02*
X49576000Y-127840000D01*
X44427000Y-127800000D02*
X45960000Y-127800000D01*
X48040000Y-127800000D02*
X49573000Y-127800000D01*
X44431000Y-127760000D02*
X45960000Y-127760000D01*
X48040000Y-127760000D02*
X49569000Y-127760000D01*
X44435000Y-127720000D02*
X45960000Y-127720000D01*
X48040000Y-127720000D02*
X49565000Y-127720000D01*
X44439000Y-127680000D02*
X45960000Y-127680000D01*
X48040000Y-127680000D02*
X49561000Y-127680000D01*
X44444000Y-127640000D02*
X45960000Y-127640000D01*
X48040000Y-127640000D02*
X49556000Y-127640000D01*
X44450000Y-127600000D02*
X45960000Y-127600000D01*
X48040000Y-127600000D02*
X49550000Y-127600000D01*
X44457000Y-127560000D02*
X45960000Y-127560000D01*
X48040000Y-127560000D02*
X49543000Y-127560000D01*
X44464000Y-127520000D02*
X45960000Y-127520000D01*
X48040000Y-127520000D02*
X49536000Y-127520000D01*
X44472000Y-127480000D02*
X45960000Y-127480000D01*
X48040000Y-127480000D02*
X49528000Y-127480000D01*
X44480000Y-127440000D02*
X45960000Y-127440000D01*
X48040000Y-127440000D02*
X49520000Y-127440000D01*
X44489000Y-127400000D02*
X45960000Y-127400000D01*
X48040000Y-127400000D02*
X49511000Y-127400000D01*
X44499000Y-127360000D02*
X45960000Y-127360000D01*
X48040000Y-127360000D02*
X49501000Y-127360000D01*
X44509000Y-127320000D02*
X45960000Y-127320000D01*
X48040000Y-127320000D02*
X49491000Y-127320000D01*
X44520000Y-127279000D02*
X45960000Y-127279000D01*
X48040000Y-127279000D02*
X49480000Y-127279000D01*
X44532000Y-127239000D02*
X45960000Y-127239000D01*
X48040000Y-127239000D02*
X49468000Y-127239000D01*
X44545000Y-127199000D02*
X45960000Y-127199000D01*
X48040000Y-127199000D02*
X49455000Y-127199000D01*
X44558000Y-127159000D02*
X45960000Y-127159000D01*
X48040000Y-127159000D02*
X49442000Y-127159000D01*
X44572000Y-127119000D02*
X45960000Y-127119000D01*
X48040000Y-127119000D02*
X49428000Y-127119000D01*
X44586000Y-127079000D02*
X45960000Y-127079000D01*
X48040000Y-127079000D02*
X49414000Y-127079000D01*
X44602000Y-127039000D02*
X45960000Y-127039000D01*
X48040000Y-127039000D02*
X49398000Y-127039000D01*
X44618000Y-126999000D02*
X45960000Y-126999000D01*
X48040000Y-126999000D02*
X49382000Y-126999000D01*
X44635000Y-126959000D02*
X45960000Y-126959000D01*
X48040000Y-126959000D02*
X49365000Y-126959000D01*
X44652000Y-126919000D02*
X45960000Y-126919000D01*
X48040000Y-126919000D02*
X49348000Y-126919000D01*
X44671000Y-126879000D02*
X45960000Y-126879000D01*
X48040000Y-126879000D02*
X49329000Y-126879000D01*
X44690000Y-126839000D02*
X45960000Y-126839000D01*
X48040000Y-126839000D02*
X49310000Y-126839000D01*
X44710000Y-126799000D02*
X45960000Y-126799000D01*
X48040000Y-126799000D02*
X49290000Y-126799000D01*
X44732000Y-126759000D02*
X45960000Y-126759000D01*
X48040000Y-126759000D02*
X49268000Y-126759000D01*
X44753000Y-126719000D02*
X45960000Y-126719000D01*
X48040000Y-126719000D02*
X49247000Y-126719000D01*
X44776000Y-126679000D02*
X45960000Y-126679000D01*
X48040000Y-126679000D02*
X49224000Y-126679000D01*
X44800000Y-126639000D02*
X45960000Y-126639000D01*
X48040000Y-126639000D02*
X49200000Y-126639000D01*
X44825000Y-126599000D02*
X45960000Y-126599000D01*
X48040000Y-126599000D02*
X49175000Y-126599000D01*
X44851000Y-126559000D02*
X45960000Y-126559000D01*
X48040000Y-126559000D02*
X49149000Y-126559000D01*
X44878000Y-126519000D02*
X45960000Y-126519000D01*
X48040000Y-126519000D02*
X49122000Y-126519000D01*
X44905000Y-126479000D02*
X45960000Y-126479000D01*
X48040000Y-126479000D02*
X49095000Y-126479000D01*
X44935000Y-126439000D02*
X45960000Y-126439000D01*
X48040000Y-126439000D02*
X49065000Y-126439000D01*
X44965000Y-126399000D02*
X45960000Y-126399000D01*
X48040000Y-126399000D02*
X49035000Y-126399000D01*
X44996000Y-126359000D02*
X45960000Y-126359000D01*
X48040000Y-126359000D02*
X49004000Y-126359000D01*
X45029000Y-126319000D02*
X45960000Y-126319000D01*
X48040000Y-126319000D02*
X48971000Y-126319000D01*
X45063000Y-126279000D02*
X45960000Y-126279000D01*
X48040000Y-126279000D02*
X48937000Y-126279000D01*
X45099000Y-126239000D02*
X45960000Y-126239000D01*
X48040000Y-126239000D02*
X48901000Y-126239000D01*
X45136000Y-126199000D02*
X45960000Y-126199000D01*
X48040000Y-126199000D02*
X48864000Y-126199000D01*
X45174000Y-126159000D02*
X45960000Y-126159000D01*
X48040000Y-126159000D02*
X48826000Y-126159000D01*
X45215000Y-126119000D02*
X45960000Y-126119000D01*
X48040000Y-126119000D02*
X48785000Y-126119000D01*
X45257000Y-126079000D02*
X45960000Y-126079000D01*
X48040000Y-126079000D02*
X48743000Y-126079000D01*
X45301000Y-126039000D02*
X45960000Y-126039000D01*
X48040000Y-126039000D02*
X48699000Y-126039000D01*
X45347000Y-125999000D02*
X45960000Y-125999000D01*
X48040000Y-125999000D02*
X48653000Y-125999000D01*
X45395000Y-125959000D02*
X48605000Y-125959000D01*
X45446000Y-125919000D02*
X48554000Y-125919000D01*
X45500000Y-125879000D02*
X48500000Y-125879000D01*
X45557000Y-125839000D02*
X48443000Y-125839000D01*
X45617000Y-125799000D02*
X48383000Y-125799000D01*
X45681000Y-125759000D02*
X48319000Y-125759000D01*
X45749000Y-125719000D02*
X48251000Y-125719000D01*
X45822000Y-125679000D02*
X48178000Y-125679000D01*
X45902000Y-125639000D02*
X48098000Y-125639000D01*
X45989000Y-125599000D02*
X48011000Y-125599000D01*
X46085000Y-125559000D02*
X47915000Y-125559000D01*
X46195000Y-125519000D02*
X47805000Y-125519000D01*
X46323000Y-125479000D02*
X47677000Y-125479000D01*
X46482000Y-125439000D02*
X47518000Y-125439000D01*
X46716000Y-125399000D02*
X47284000Y-125399000D01*
X45525000Y-130804775D02*
X45525000Y-130304775D01*
X45275000Y-130554775D02*
X45775000Y-130554775D01*
D13*
X105357142Y-146452380D02*
X105023809Y-145976190D01*
X104785714Y-146452380D02*
X104785714Y-145452380D01*
X105166666Y-145452380D01*
X105261904Y-145500000D01*
X105309523Y-145547619D01*
X105357142Y-145642857D01*
X105357142Y-145785714D01*
X105309523Y-145880952D01*
X105261904Y-145928571D01*
X105166666Y-145976190D01*
X104785714Y-145976190D01*
X106309523Y-146452380D02*
X105738095Y-146452380D01*
X106023809Y-146452380D02*
X106023809Y-145452380D01*
X105928571Y-145595238D01*
X105833333Y-145690476D01*
X105738095Y-145738095D01*
X106642857Y-145452380D02*
X107261904Y-145452380D01*
X106928571Y-145833333D01*
X107071428Y-145833333D01*
X107166666Y-145880952D01*
X107214285Y-145928571D01*
X107261904Y-146023809D01*
X107261904Y-146261904D01*
X107214285Y-146357142D01*
X107166666Y-146404761D01*
X107071428Y-146452380D01*
X106785714Y-146452380D01*
X106690476Y-146404761D01*
X106642857Y-146357142D01*
X96357142Y-126952380D02*
X95880952Y-126952380D01*
X95880952Y-125952380D01*
X96642857Y-126904761D02*
X96785714Y-126952380D01*
X97023809Y-126952380D01*
X97119047Y-126904761D01*
X97166666Y-126857142D01*
X97214285Y-126761904D01*
X97214285Y-126666666D01*
X97166666Y-126571428D01*
X97119047Y-126523809D01*
X97023809Y-126476190D01*
X96833333Y-126428571D01*
X96738095Y-126380952D01*
X96690476Y-126333333D01*
X96642857Y-126238095D01*
X96642857Y-126142857D01*
X96690476Y-126047619D01*
X96738095Y-126000000D01*
X96833333Y-125952380D01*
X97071428Y-125952380D01*
X97214285Y-126000000D01*
X98166666Y-126952380D02*
X97595238Y-126952380D01*
X97880952Y-126952380D02*
X97880952Y-125952380D01*
X97785714Y-126095238D01*
X97690476Y-126190476D01*
X97595238Y-126238095D01*
X104836428Y-128040952D02*
X104836428Y-127279047D01*
X105217380Y-127660000D02*
X104455476Y-127660000D01*
X104976428Y-141255952D02*
X104976428Y-140494047D01*
X101452380Y-125761904D02*
X100452380Y-125761904D01*
X100928571Y-125761904D02*
X100928571Y-125190476D01*
X101452380Y-125190476D02*
X100452380Y-125190476D01*
X100785714Y-124285714D02*
X101452380Y-124285714D01*
X100404761Y-124523809D02*
X101119047Y-124761904D01*
X101119047Y-124142857D01*
X42952380Y-143333333D02*
X43666666Y-143333333D01*
X43809523Y-143380952D01*
X43904761Y-143476190D01*
X43952380Y-143619047D01*
X43952380Y-143714285D01*
X43952380Y-142333333D02*
X43952380Y-142904761D01*
X43952380Y-142619047D02*
X42952380Y-142619047D01*
X43095238Y-142714285D01*
X43190476Y-142809523D01*
X43238095Y-142904761D01*
X42452380Y-136000000D02*
X42690476Y-136000000D01*
X42595238Y-136238095D02*
X42690476Y-136000000D01*
X42595238Y-135761904D01*
X42880952Y-136142857D02*
X42690476Y-136000000D01*
X42880952Y-135857142D01*
X65452380Y-149833333D02*
X66166666Y-149833333D01*
X66309523Y-149880952D01*
X66404761Y-149976190D01*
X66452380Y-150119047D01*
X66452380Y-150214285D01*
X65547619Y-149404761D02*
X65500000Y-149357142D01*
X65452380Y-149261904D01*
X65452380Y-149023809D01*
X65500000Y-148928571D01*
X65547619Y-148880952D01*
X65642857Y-148833333D01*
X65738095Y-148833333D01*
X65880952Y-148880952D01*
X66452380Y-149452380D01*
X66452380Y-148833333D01*
X72452380Y-142761904D02*
X71452380Y-142761904D01*
X71928571Y-142761904D02*
X71928571Y-142190476D01*
X72452380Y-142190476D02*
X71452380Y-142190476D01*
X71452380Y-141809523D02*
X71452380Y-141190476D01*
X71833333Y-141523809D01*
X71833333Y-141380952D01*
X71880952Y-141285714D01*
X71928571Y-141238095D01*
X72023809Y-141190476D01*
X72261904Y-141190476D01*
X72357142Y-141238095D01*
X72404761Y-141285714D01*
X72452380Y-141380952D01*
X72452380Y-141666666D01*
X72404761Y-141761904D01*
X72357142Y-141809523D01*
X44452380Y-146761904D02*
X43452380Y-146761904D01*
X43928571Y-146761904D02*
X43928571Y-146190476D01*
X44452380Y-146190476D02*
X43452380Y-146190476D01*
X43547619Y-145761904D02*
X43500000Y-145714285D01*
X43452380Y-145619047D01*
X43452380Y-145380952D01*
X43500000Y-145285714D01*
X43547619Y-145238095D01*
X43642857Y-145190476D01*
X43738095Y-145190476D01*
X43880952Y-145238095D01*
X44452380Y-145809523D01*
X44452380Y-145190476D01*
X39238095Y-122952380D02*
X39238095Y-121952380D01*
X39238095Y-122428571D02*
X39809523Y-122428571D01*
X39809523Y-122952380D02*
X39809523Y-121952380D01*
X40809523Y-122952380D02*
X40238095Y-122952380D01*
X40523809Y-122952380D02*
X40523809Y-121952380D01*
X40428571Y-122095238D01*
X40333333Y-122190476D01*
X40238095Y-122238095D01*
X103952380Y-149833333D02*
X104666666Y-149833333D01*
X104809523Y-149880952D01*
X104904761Y-149976190D01*
X104952380Y-150119047D01*
X104952380Y-150214285D01*
X103952380Y-148880952D02*
X103952380Y-149357142D01*
X104428571Y-149404761D01*
X104380952Y-149357142D01*
X104333333Y-149261904D01*
X104333333Y-149023809D01*
X104380952Y-148928571D01*
X104428571Y-148880952D01*
X104523809Y-148833333D01*
X104761904Y-148833333D01*
X104857142Y-148880952D01*
X104904761Y-148928571D01*
X104952380Y-149023809D01*
X104952380Y-149261904D01*
X104904761Y-149357142D01*
X104857142Y-149404761D01*
X49502380Y-147563333D02*
X50216666Y-147563333D01*
X50359523Y-147610952D01*
X50454761Y-147706190D01*
X50502380Y-147849047D01*
X50502380Y-147944285D01*
X49502380Y-147182380D02*
X49502380Y-146563333D01*
X49883333Y-146896666D01*
X49883333Y-146753809D01*
X49930952Y-146658571D01*
X49978571Y-146610952D01*
X50073809Y-146563333D01*
X50311904Y-146563333D01*
X50407142Y-146610952D01*
X50454761Y-146658571D01*
X50502380Y-146753809D01*
X50502380Y-147039523D01*
X50454761Y-147134761D01*
X50407142Y-147182380D01*
X69702380Y-136761904D02*
X70511904Y-136761904D01*
X70607142Y-136714285D01*
X70654761Y-136666666D01*
X70702380Y-136571428D01*
X70702380Y-136380952D01*
X70654761Y-136285714D01*
X70607142Y-136238095D01*
X70511904Y-136190476D01*
X69702380Y-136190476D01*
X69702380Y-135809523D02*
X69702380Y-135190476D01*
X70083333Y-135523809D01*
X70083333Y-135380952D01*
X70130952Y-135285714D01*
X70178571Y-135238095D01*
X70273809Y-135190476D01*
X70511904Y-135190476D01*
X70607142Y-135238095D01*
X70654761Y-135285714D01*
X70702380Y-135380952D01*
X70702380Y-135666666D01*
X70654761Y-135761904D01*
X70607142Y-135809523D01*
X63738095Y-123552380D02*
X63738095Y-124361904D01*
X63785714Y-124457142D01*
X63833333Y-124504761D01*
X63928571Y-124552380D01*
X64119047Y-124552380D01*
X64214285Y-124504761D01*
X64261904Y-124457142D01*
X64309523Y-124361904D01*
X64309523Y-123552380D01*
X64738095Y-123647619D02*
X64785714Y-123600000D01*
X64880952Y-123552380D01*
X65119047Y-123552380D01*
X65214285Y-123600000D01*
X65261904Y-123647619D01*
X65309523Y-123742857D01*
X65309523Y-123838095D01*
X65261904Y-123980952D01*
X64690476Y-124552380D01*
X65309523Y-124552380D01*
X82238095Y-132052380D02*
X82238095Y-132861904D01*
X82285714Y-132957142D01*
X82333333Y-133004761D01*
X82428571Y-133052380D01*
X82619047Y-133052380D01*
X82714285Y-133004761D01*
X82761904Y-132957142D01*
X82809523Y-132861904D01*
X82809523Y-132052380D01*
X83809523Y-133052380D02*
X83238095Y-133052380D01*
X83523809Y-133052380D02*
X83523809Y-132052380D01*
X83428571Y-132195238D01*
X83333333Y-132290476D01*
X83238095Y-132338095D01*
X85822380Y-145952857D02*
X85346190Y-146286190D01*
X85822380Y-146524285D02*
X84822380Y-146524285D01*
X84822380Y-146143333D01*
X84870000Y-146048095D01*
X84917619Y-146000476D01*
X85012857Y-145952857D01*
X85155714Y-145952857D01*
X85250952Y-146000476D01*
X85298571Y-146048095D01*
X85346190Y-146143333D01*
X85346190Y-146524285D01*
X85822380Y-145000476D02*
X85822380Y-145571904D01*
X85822380Y-145286190D02*
X84822380Y-145286190D01*
X84965238Y-145381428D01*
X85060476Y-145476666D01*
X85108095Y-145571904D01*
X84917619Y-144619523D02*
X84870000Y-144571904D01*
X84822380Y-144476666D01*
X84822380Y-144238571D01*
X84870000Y-144143333D01*
X84917619Y-144095714D01*
X85012857Y-144048095D01*
X85108095Y-144048095D01*
X85250952Y-144095714D01*
X85822380Y-144667142D01*
X85822380Y-144048095D01*
X81082380Y-126832857D02*
X80606190Y-127166190D01*
X81082380Y-127404285D02*
X80082380Y-127404285D01*
X80082380Y-127023333D01*
X80130000Y-126928095D01*
X80177619Y-126880476D01*
X80272857Y-126832857D01*
X80415714Y-126832857D01*
X80510952Y-126880476D01*
X80558571Y-126928095D01*
X80606190Y-127023333D01*
X80606190Y-127404285D01*
X81082380Y-125880476D02*
X81082380Y-126451904D01*
X81082380Y-126166190D02*
X80082380Y-126166190D01*
X80225238Y-126261428D01*
X80320476Y-126356666D01*
X80368095Y-126451904D01*
X81082380Y-124928095D02*
X81082380Y-125499523D01*
X81082380Y-125213809D02*
X80082380Y-125213809D01*
X80225238Y-125309047D01*
X80320476Y-125404285D01*
X80368095Y-125499523D01*
X73047142Y-132822380D02*
X72713809Y-132346190D01*
X72475714Y-132822380D02*
X72475714Y-131822380D01*
X72856666Y-131822380D01*
X72951904Y-131870000D01*
X72999523Y-131917619D01*
X73047142Y-132012857D01*
X73047142Y-132155714D01*
X72999523Y-132250952D01*
X72951904Y-132298571D01*
X72856666Y-132346190D01*
X72475714Y-132346190D01*
X73999523Y-132822380D02*
X73428095Y-132822380D01*
X73713809Y-132822380D02*
X73713809Y-131822380D01*
X73618571Y-131965238D01*
X73523333Y-132060476D01*
X73428095Y-132108095D01*
X74618571Y-131822380D02*
X74713809Y-131822380D01*
X74809047Y-131870000D01*
X74856666Y-131917619D01*
X74904285Y-132012857D01*
X74951904Y-132203333D01*
X74951904Y-132441428D01*
X74904285Y-132631904D01*
X74856666Y-132727142D01*
X74809047Y-132774761D01*
X74713809Y-132822380D01*
X74618571Y-132822380D01*
X74523333Y-132774761D01*
X74475714Y-132727142D01*
X74428095Y-132631904D01*
X74380476Y-132441428D01*
X74380476Y-132203333D01*
X74428095Y-132012857D01*
X74475714Y-131917619D01*
X74523333Y-131870000D01*
X74618571Y-131822380D01*
X73643333Y-124082380D02*
X73310000Y-123606190D01*
X73071904Y-124082380D02*
X73071904Y-123082380D01*
X73452857Y-123082380D01*
X73548095Y-123130000D01*
X73595714Y-123177619D01*
X73643333Y-123272857D01*
X73643333Y-123415714D01*
X73595714Y-123510952D01*
X73548095Y-123558571D01*
X73452857Y-123606190D01*
X73071904Y-123606190D01*
X74119523Y-124082380D02*
X74310000Y-124082380D01*
X74405238Y-124034761D01*
X74452857Y-123987142D01*
X74548095Y-123844285D01*
X74595714Y-123653809D01*
X74595714Y-123272857D01*
X74548095Y-123177619D01*
X74500476Y-123130000D01*
X74405238Y-123082380D01*
X74214761Y-123082380D01*
X74119523Y-123130000D01*
X74071904Y-123177619D01*
X74024285Y-123272857D01*
X74024285Y-123510952D01*
X74071904Y-123606190D01*
X74119523Y-123653809D01*
X74214761Y-123701428D01*
X74405238Y-123701428D01*
X74500476Y-123653809D01*
X74548095Y-123606190D01*
X74595714Y-123510952D01*
X97322380Y-145476666D02*
X96846190Y-145810000D01*
X97322380Y-146048095D02*
X96322380Y-146048095D01*
X96322380Y-145667142D01*
X96370000Y-145571904D01*
X96417619Y-145524285D01*
X96512857Y-145476666D01*
X96655714Y-145476666D01*
X96750952Y-145524285D01*
X96798571Y-145571904D01*
X96846190Y-145667142D01*
X96846190Y-146048095D01*
X96750952Y-144905238D02*
X96703333Y-145000476D01*
X96655714Y-145048095D01*
X96560476Y-145095714D01*
X96512857Y-145095714D01*
X96417619Y-145048095D01*
X96370000Y-145000476D01*
X96322380Y-144905238D01*
X96322380Y-144714761D01*
X96370000Y-144619523D01*
X96417619Y-144571904D01*
X96512857Y-144524285D01*
X96560476Y-144524285D01*
X96655714Y-144571904D01*
X96703333Y-144619523D01*
X96750952Y-144714761D01*
X96750952Y-144905238D01*
X96798571Y-145000476D01*
X96846190Y-145048095D01*
X96941428Y-145095714D01*
X97131904Y-145095714D01*
X97227142Y-145048095D01*
X97274761Y-145000476D01*
X97322380Y-144905238D01*
X97322380Y-144714761D01*
X97274761Y-144619523D01*
X97227142Y-144571904D01*
X97131904Y-144524285D01*
X96941428Y-144524285D01*
X96846190Y-144571904D01*
X96798571Y-144619523D01*
X96750952Y-144714761D01*
X65582380Y-138856666D02*
X65106190Y-139190000D01*
X65582380Y-139428095D02*
X64582380Y-139428095D01*
X64582380Y-139047142D01*
X64630000Y-138951904D01*
X64677619Y-138904285D01*
X64772857Y-138856666D01*
X64915714Y-138856666D01*
X65010952Y-138904285D01*
X65058571Y-138951904D01*
X65106190Y-139047142D01*
X65106190Y-139428095D01*
X64582380Y-138523333D02*
X64582380Y-137856666D01*
X65582380Y-138285238D01*
X60582380Y-138856666D02*
X60106190Y-139190000D01*
X60582380Y-139428095D02*
X59582380Y-139428095D01*
X59582380Y-139047142D01*
X59630000Y-138951904D01*
X59677619Y-138904285D01*
X59772857Y-138856666D01*
X59915714Y-138856666D01*
X60010952Y-138904285D01*
X60058571Y-138951904D01*
X60106190Y-139047142D01*
X60106190Y-139428095D01*
X59582380Y-137999523D02*
X59582380Y-138190000D01*
X59630000Y-138285238D01*
X59677619Y-138332857D01*
X59820476Y-138428095D01*
X60010952Y-138475714D01*
X60391904Y-138475714D01*
X60487142Y-138428095D01*
X60534761Y-138380476D01*
X60582380Y-138285238D01*
X60582380Y-138094761D01*
X60534761Y-137999523D01*
X60487142Y-137951904D01*
X60391904Y-137904285D01*
X60153809Y-137904285D01*
X60058571Y-137951904D01*
X60010952Y-137999523D01*
X59963333Y-138094761D01*
X59963333Y-138285238D01*
X60010952Y-138380476D01*
X60058571Y-138428095D01*
X60153809Y-138475714D01*
X55582380Y-138856666D02*
X55106190Y-139190000D01*
X55582380Y-139428095D02*
X54582380Y-139428095D01*
X54582380Y-139047142D01*
X54630000Y-138951904D01*
X54677619Y-138904285D01*
X54772857Y-138856666D01*
X54915714Y-138856666D01*
X55010952Y-138904285D01*
X55058571Y-138951904D01*
X55106190Y-139047142D01*
X55106190Y-139428095D01*
X54582380Y-137951904D02*
X54582380Y-138428095D01*
X55058571Y-138475714D01*
X55010952Y-138428095D01*
X54963333Y-138332857D01*
X54963333Y-138094761D01*
X55010952Y-137999523D01*
X55058571Y-137951904D01*
X55153809Y-137904285D01*
X55391904Y-137904285D01*
X55487142Y-137951904D01*
X55534761Y-137999523D01*
X55582380Y-138094761D01*
X55582380Y-138332857D01*
X55534761Y-138428095D01*
X55487142Y-138475714D01*
X50582380Y-138856666D02*
X50106190Y-139190000D01*
X50582380Y-139428095D02*
X49582380Y-139428095D01*
X49582380Y-139047142D01*
X49630000Y-138951904D01*
X49677619Y-138904285D01*
X49772857Y-138856666D01*
X49915714Y-138856666D01*
X50010952Y-138904285D01*
X50058571Y-138951904D01*
X50106190Y-139047142D01*
X50106190Y-139428095D01*
X49915714Y-137999523D02*
X50582380Y-137999523D01*
X49534761Y-138237619D02*
X50249047Y-138475714D01*
X50249047Y-137856666D01*
X45582380Y-138856666D02*
X45106190Y-139190000D01*
X45582380Y-139428095D02*
X44582380Y-139428095D01*
X44582380Y-139047142D01*
X44630000Y-138951904D01*
X44677619Y-138904285D01*
X44772857Y-138856666D01*
X44915714Y-138856666D01*
X45010952Y-138904285D01*
X45058571Y-138951904D01*
X45106190Y-139047142D01*
X45106190Y-139428095D01*
X44582380Y-138523333D02*
X44582380Y-137904285D01*
X44963333Y-138237619D01*
X44963333Y-138094761D01*
X45010952Y-137999523D01*
X45058571Y-137951904D01*
X45153809Y-137904285D01*
X45391904Y-137904285D01*
X45487142Y-137951904D01*
X45534761Y-137999523D01*
X45582380Y-138094761D01*
X45582380Y-138380476D01*
X45534761Y-138475714D01*
X45487142Y-138523333D01*
X55322380Y-127476666D02*
X54846190Y-127810000D01*
X55322380Y-128048095D02*
X54322380Y-128048095D01*
X54322380Y-127667142D01*
X54370000Y-127571904D01*
X54417619Y-127524285D01*
X54512857Y-127476666D01*
X54655714Y-127476666D01*
X54750952Y-127524285D01*
X54798571Y-127571904D01*
X54846190Y-127667142D01*
X54846190Y-128048095D01*
X54417619Y-127095714D02*
X54370000Y-127048095D01*
X54322380Y-126952857D01*
X54322380Y-126714761D01*
X54370000Y-126619523D01*
X54417619Y-126571904D01*
X54512857Y-126524285D01*
X54608095Y-126524285D01*
X54750952Y-126571904D01*
X55322380Y-127143333D01*
X55322380Y-126524285D01*
X60322380Y-127476666D02*
X59846190Y-127810000D01*
X60322380Y-128048095D02*
X59322380Y-128048095D01*
X59322380Y-127667142D01*
X59370000Y-127571904D01*
X59417619Y-127524285D01*
X59512857Y-127476666D01*
X59655714Y-127476666D01*
X59750952Y-127524285D01*
X59798571Y-127571904D01*
X59846190Y-127667142D01*
X59846190Y-128048095D01*
X60322380Y-126524285D02*
X60322380Y-127095714D01*
X60322380Y-126810000D02*
X59322380Y-126810000D01*
X59465238Y-126905238D01*
X59560476Y-127000476D01*
X59608095Y-127095714D01*
X86487619Y-125825238D02*
X86440000Y-125920476D01*
X86344761Y-126015714D01*
X86201904Y-126158571D01*
X86154285Y-126253809D01*
X86154285Y-126349047D01*
X86392380Y-126301428D02*
X86344761Y-126396666D01*
X86249523Y-126491904D01*
X86059047Y-126539523D01*
X85725714Y-126539523D01*
X85535238Y-126491904D01*
X85440000Y-126396666D01*
X85392380Y-126301428D01*
X85392380Y-126110952D01*
X85440000Y-126015714D01*
X85535238Y-125920476D01*
X85725714Y-125872857D01*
X86059047Y-125872857D01*
X86249523Y-125920476D01*
X86344761Y-126015714D01*
X86392380Y-126110952D01*
X86392380Y-126301428D01*
X86392380Y-124920476D02*
X86392380Y-125491904D01*
X86392380Y-125206190D02*
X85392380Y-125206190D01*
X85535238Y-125301428D01*
X85630476Y-125396666D01*
X85678095Y-125491904D01*
X93372380Y-137318095D02*
X92372380Y-137318095D01*
X92372380Y-137080000D01*
X92420000Y-136937142D01*
X92515238Y-136841904D01*
X92610476Y-136794285D01*
X92800952Y-136746666D01*
X92943809Y-136746666D01*
X93134285Y-136794285D01*
X93229523Y-136841904D01*
X93324761Y-136937142D01*
X93372380Y-137080000D01*
X93372380Y-137318095D01*
X92467619Y-136365714D02*
X92420000Y-136318095D01*
X92372380Y-136222857D01*
X92372380Y-135984761D01*
X92420000Y-135889523D01*
X92467619Y-135841904D01*
X92562857Y-135794285D01*
X92658095Y-135794285D01*
X92800952Y-135841904D01*
X93372380Y-136413333D01*
X93372380Y-135794285D01*
X92652380Y-131761904D02*
X91652380Y-131761904D01*
X92652380Y-131190476D02*
X92080952Y-131619047D01*
X91652380Y-131190476D02*
X92223809Y-131761904D01*
X43607142Y-128166666D02*
X43654761Y-128214285D01*
X43702380Y-128357142D01*
X43702380Y-128452380D01*
X43654761Y-128595238D01*
X43559523Y-128690476D01*
X43464285Y-128738095D01*
X43273809Y-128785714D01*
X43130952Y-128785714D01*
X42940476Y-128738095D01*
X42845238Y-128690476D01*
X42750000Y-128595238D01*
X42702380Y-128452380D01*
X42702380Y-128357142D01*
X42750000Y-128214285D01*
X42797619Y-128166666D01*
X43702380Y-127214285D02*
X43702380Y-127785714D01*
X43702380Y-127500000D02*
X42702380Y-127500000D01*
X42845238Y-127595238D01*
X42940476Y-127690476D01*
X42988095Y-127785714D01*
%LPC*%
D14*
X106620000Y-143500000D03*
D15*
X99000000Y-143500000D03*
D16*
X100500000Y-130700000D03*
X100500000Y-138300000D03*
D17*
X104500000Y-125000000D03*
D18*
X104500000Y-125000000D03*
D19*
X43000000Y-136000000D03*
D20*
X39952000Y-140826000D03*
D21*
X36904000Y-136000000D03*
D22*
X68460000Y-147500000D03*
D23*
X71000000Y-147500000D03*
D17*
X76000000Y-142000000D03*
D18*
X76000000Y-142000000D03*
D17*
X40000000Y-146000000D03*
D18*
X40000000Y-146000000D03*
D17*
X40000000Y-126000000D03*
D18*
X40000000Y-126000000D03*
D22*
X99460000Y-147500000D03*
D23*
X102000000Y-147500000D03*
D22*
X62540000Y-145960000D03*
X62540000Y-148500000D03*
X60000000Y-145960000D03*
X60000000Y-148500000D03*
X57460000Y-145960000D03*
X57460000Y-148500000D03*
X54920000Y-145960000D03*
X54920000Y-148500000D03*
X52380000Y-145960000D03*
D23*
X52380000Y-148500000D03*
D15*
X74000000Y-135000000D03*
D24*
X74000000Y-137000000D03*
G36*
G01*
X66000000Y-125745000D02*
X66000000Y-125445000D01*
G75*
G02*
X66150000Y-125295000I150000J0D01*
G01*
X67800000Y-125295000D01*
G75*
G02*
X67950000Y-125445000I0J-150000D01*
G01*
X67950000Y-125745000D01*
G75*
G02*
X67800000Y-125895000I-150000J0D01*
G01*
X66150000Y-125895000D01*
G75*
G02*
X66000000Y-125745000I0J150000D01*
G01*
G37*
G36*
G01*
X66000000Y-127015000D02*
X66000000Y-126715000D01*
G75*
G02*
X66150000Y-126565000I150000J0D01*
G01*
X67800000Y-126565000D01*
G75*
G02*
X67950000Y-126715000I0J-150000D01*
G01*
X67950000Y-127015000D01*
G75*
G02*
X67800000Y-127165000I-150000J0D01*
G01*
X66150000Y-127165000D01*
G75*
G02*
X66000000Y-127015000I0J150000D01*
G01*
G37*
G36*
G01*
X66000000Y-128285000D02*
X66000000Y-127985000D01*
G75*
G02*
X66150000Y-127835000I150000J0D01*
G01*
X67800000Y-127835000D01*
G75*
G02*
X67950000Y-127985000I0J-150000D01*
G01*
X67950000Y-128285000D01*
G75*
G02*
X67800000Y-128435000I-150000J0D01*
G01*
X66150000Y-128435000D01*
G75*
G02*
X66000000Y-128285000I0J150000D01*
G01*
G37*
G36*
G01*
X66000000Y-129555000D02*
X66000000Y-129255000D01*
G75*
G02*
X66150000Y-129105000I150000J0D01*
G01*
X67800000Y-129105000D01*
G75*
G02*
X67950000Y-129255000I0J-150000D01*
G01*
X67950000Y-129555000D01*
G75*
G02*
X67800000Y-129705000I-150000J0D01*
G01*
X66150000Y-129705000D01*
G75*
G02*
X66000000Y-129555000I0J150000D01*
G01*
G37*
G36*
G01*
X61050000Y-129555000D02*
X61050000Y-129255000D01*
G75*
G02*
X61200000Y-129105000I150000J0D01*
G01*
X62850000Y-129105000D01*
G75*
G02*
X63000000Y-129255000I0J-150000D01*
G01*
X63000000Y-129555000D01*
G75*
G02*
X62850000Y-129705000I-150000J0D01*
G01*
X61200000Y-129705000D01*
G75*
G02*
X61050000Y-129555000I0J150000D01*
G01*
G37*
G36*
G01*
X61050000Y-128285000D02*
X61050000Y-127985000D01*
G75*
G02*
X61200000Y-127835000I150000J0D01*
G01*
X62850000Y-127835000D01*
G75*
G02*
X63000000Y-127985000I0J-150000D01*
G01*
X63000000Y-128285000D01*
G75*
G02*
X62850000Y-128435000I-150000J0D01*
G01*
X61200000Y-128435000D01*
G75*
G02*
X61050000Y-128285000I0J150000D01*
G01*
G37*
G36*
G01*
X61050000Y-127015000D02*
X61050000Y-126715000D01*
G75*
G02*
X61200000Y-126565000I150000J0D01*
G01*
X62850000Y-126565000D01*
G75*
G02*
X63000000Y-126715000I0J-150000D01*
G01*
X63000000Y-127015000D01*
G75*
G02*
X62850000Y-127165000I-150000J0D01*
G01*
X61200000Y-127165000D01*
G75*
G02*
X61050000Y-127015000I0J150000D01*
G01*
G37*
G36*
G01*
X61050000Y-125745000D02*
X61050000Y-125445000D01*
G75*
G02*
X61200000Y-125295000I150000J0D01*
G01*
X62850000Y-125295000D01*
G75*
G02*
X63000000Y-125445000I0J-150000D01*
G01*
X63000000Y-125745000D01*
G75*
G02*
X62850000Y-125895000I-150000J0D01*
G01*
X61200000Y-125895000D01*
G75*
G02*
X61050000Y-125745000I0J150000D01*
G01*
G37*
G36*
G01*
X84500000Y-134245000D02*
X84500000Y-133945000D01*
G75*
G02*
X84650000Y-133795000I150000J0D01*
G01*
X86300000Y-133795000D01*
G75*
G02*
X86450000Y-133945000I0J-150000D01*
G01*
X86450000Y-134245000D01*
G75*
G02*
X86300000Y-134395000I-150000J0D01*
G01*
X84650000Y-134395000D01*
G75*
G02*
X84500000Y-134245000I0J150000D01*
G01*
G37*
G36*
G01*
X84500000Y-135515000D02*
X84500000Y-135215000D01*
G75*
G02*
X84650000Y-135065000I150000J0D01*
G01*
X86300000Y-135065000D01*
G75*
G02*
X86450000Y-135215000I0J-150000D01*
G01*
X86450000Y-135515000D01*
G75*
G02*
X86300000Y-135665000I-150000J0D01*
G01*
X84650000Y-135665000D01*
G75*
G02*
X84500000Y-135515000I0J150000D01*
G01*
G37*
G36*
G01*
X84500000Y-136785000D02*
X84500000Y-136485000D01*
G75*
G02*
X84650000Y-136335000I150000J0D01*
G01*
X86300000Y-136335000D01*
G75*
G02*
X86450000Y-136485000I0J-150000D01*
G01*
X86450000Y-136785000D01*
G75*
G02*
X86300000Y-136935000I-150000J0D01*
G01*
X84650000Y-136935000D01*
G75*
G02*
X84500000Y-136785000I0J150000D01*
G01*
G37*
G36*
G01*
X84500000Y-138055000D02*
X84500000Y-137755000D01*
G75*
G02*
X84650000Y-137605000I150000J0D01*
G01*
X86300000Y-137605000D01*
G75*
G02*
X86450000Y-137755000I0J-150000D01*
G01*
X86450000Y-138055000D01*
G75*
G02*
X86300000Y-138205000I-150000J0D01*
G01*
X84650000Y-138205000D01*
G75*
G02*
X84500000Y-138055000I0J150000D01*
G01*
G37*
G36*
G01*
X79550000Y-138055000D02*
X79550000Y-137755000D01*
G75*
G02*
X79700000Y-137605000I150000J0D01*
G01*
X81350000Y-137605000D01*
G75*
G02*
X81500000Y-137755000I0J-150000D01*
G01*
X81500000Y-138055000D01*
G75*
G02*
X81350000Y-138205000I-150000J0D01*
G01*
X79700000Y-138205000D01*
G75*
G02*
X79550000Y-138055000I0J150000D01*
G01*
G37*
G36*
G01*
X79550000Y-136785000D02*
X79550000Y-136485000D01*
G75*
G02*
X79700000Y-136335000I150000J0D01*
G01*
X81350000Y-136335000D01*
G75*
G02*
X81500000Y-136485000I0J-150000D01*
G01*
X81500000Y-136785000D01*
G75*
G02*
X81350000Y-136935000I-150000J0D01*
G01*
X79700000Y-136935000D01*
G75*
G02*
X79550000Y-136785000I0J150000D01*
G01*
G37*
G36*
G01*
X79550000Y-135515000D02*
X79550000Y-135215000D01*
G75*
G02*
X79700000Y-135065000I150000J0D01*
G01*
X81350000Y-135065000D01*
G75*
G02*
X81500000Y-135215000I0J-150000D01*
G01*
X81500000Y-135515000D01*
G75*
G02*
X81350000Y-135665000I-150000J0D01*
G01*
X79700000Y-135665000D01*
G75*
G02*
X79550000Y-135515000I0J150000D01*
G01*
G37*
G36*
G01*
X79550000Y-134245000D02*
X79550000Y-133945000D01*
G75*
G02*
X79700000Y-133795000I150000J0D01*
G01*
X81350000Y-133795000D01*
G75*
G02*
X81500000Y-133945000I0J-150000D01*
G01*
X81500000Y-134245000D01*
G75*
G02*
X81350000Y-134395000I-150000J0D01*
G01*
X79700000Y-134395000D01*
G75*
G02*
X79550000Y-134245000I0J150000D01*
G01*
G37*
D14*
X83000000Y-149120000D03*
D15*
X83000000Y-141500000D03*
D14*
X83000000Y-122380000D03*
D15*
X83000000Y-130000000D03*
D14*
X69880000Y-130000000D03*
D15*
X77500000Y-130000000D03*
D14*
X77620000Y-126000000D03*
D15*
X70000000Y-126000000D03*
D14*
X94500000Y-149120000D03*
D15*
X94500000Y-141500000D03*
D14*
X67500000Y-134880000D03*
D15*
X67500000Y-142500000D03*
D14*
X62500000Y-134880000D03*
D15*
X62500000Y-142500000D03*
D14*
X57500000Y-134880000D03*
D15*
X57500000Y-142500000D03*
D14*
X52500000Y-134880000D03*
D15*
X52500000Y-142500000D03*
D14*
X47500000Y-134880000D03*
D15*
X47500000Y-142500000D03*
D14*
X52500000Y-131120000D03*
D15*
X52500000Y-123500000D03*
D14*
X57500000Y-131120000D03*
D15*
X57500000Y-123500000D03*
D25*
X89500000Y-127000000D03*
D26*
X89500000Y-124460000D03*
X88230000Y-125730000D03*
D27*
X79040000Y-148000000D03*
D28*
X76500000Y-148000000D03*
D29*
X90000000Y-141660000D03*
D30*
X90000000Y-131500000D03*
D27*
X90540000Y-148000000D03*
D28*
X88000000Y-148000000D03*
D15*
X47000000Y-127000000D03*
D24*
X47000000Y-129000000D03*
M02*
