G04 #@! TF.GenerationSoftware,KiCad,Pcbnew,(5.1.10)-1*
G04 #@! TF.CreationDate,2021-08-27T01:26:18-04:00*
G04 #@! TF.ProjectId,Water_Valve_Sensor,57617465-725f-4566-916c-76655f53656e,rev?*
G04 #@! TF.SameCoordinates,Original*
G04 #@! TF.FileFunction,Legend,Bot*
G04 #@! TF.FilePolarity,Positive*
%FSLAX46Y46*%
G04 Gerber Fmt 4.6, Leading zero omitted, Abs format (unit mm)*
G04 Created by KiCad (PCBNEW (5.1.10)-1) date 2021-08-27 01:26:18*
%MOMM*%
%LPD*%
G01*
G04 APERTURE LIST*
%ADD10C,0.300000*%
%ADD11C,0.120000*%
%ADD12O,1.600000X1.600000*%
%ADD13C,1.600000*%
%ADD14C,2.500000*%
%ADD15C,5.000000*%
%ADD16C,2.900000*%
%ADD17O,2.000000X4.500000*%
%ADD18O,4.000000X2.000000*%
%ADD19O,2.000000X4.000000*%
%ADD20O,1.700000X1.700000*%
%ADD21R,1.700000X1.700000*%
%ADD22R,1.600000X1.600000*%
%ADD23R,1.300000X1.300000*%
%ADD24C,1.300000*%
%ADD25C,1.800000*%
%ADD26R,1.800000X1.800000*%
%ADD27O,2.400000X2.400000*%
%ADD28R,2.400000X2.400000*%
G04 APERTURE END LIST*
D10*
X80157142Y-122342857D02*
X79871428Y-123542857D01*
X79642857Y-122685714D01*
X79414285Y-123542857D01*
X79128571Y-122342857D01*
X78728571Y-123200000D02*
X78157142Y-123200000D01*
X78842857Y-123542857D02*
X78442857Y-122342857D01*
X78042857Y-123542857D01*
X77814285Y-122342857D02*
X77128571Y-122342857D01*
X77471428Y-123542857D02*
X77471428Y-122342857D01*
X76728571Y-122914285D02*
X76328571Y-122914285D01*
X76157142Y-123542857D02*
X76728571Y-123542857D01*
X76728571Y-122342857D01*
X76157142Y-122342857D01*
X74957142Y-123542857D02*
X75357142Y-122971428D01*
X75642857Y-123542857D02*
X75642857Y-122342857D01*
X75185714Y-122342857D01*
X75071428Y-122400000D01*
X75014285Y-122457142D01*
X74957142Y-122571428D01*
X74957142Y-122742857D01*
X75014285Y-122857142D01*
X75071428Y-122914285D01*
X75185714Y-122971428D01*
X75642857Y-122971428D01*
X73585714Y-123485714D02*
X73414285Y-123542857D01*
X73128571Y-123542857D01*
X73014285Y-123485714D01*
X72957142Y-123428571D01*
X72900000Y-123314285D01*
X72900000Y-123200000D01*
X72957142Y-123085714D01*
X73014285Y-123028571D01*
X73128571Y-122971428D01*
X73357142Y-122914285D01*
X73471428Y-122857142D01*
X73528571Y-122800000D01*
X73585714Y-122685714D01*
X73585714Y-122571428D01*
X73528571Y-122457142D01*
X73471428Y-122400000D01*
X73357142Y-122342857D01*
X73071428Y-122342857D01*
X72900000Y-122400000D01*
X72385714Y-122914285D02*
X71985714Y-122914285D01*
X71814285Y-123542857D02*
X72385714Y-123542857D01*
X72385714Y-122342857D01*
X71814285Y-122342857D01*
X71300000Y-123542857D02*
X71300000Y-122342857D01*
X70614285Y-123542857D01*
X70614285Y-122342857D01*
X70100000Y-123485714D02*
X69928571Y-123542857D01*
X69642857Y-123542857D01*
X69528571Y-123485714D01*
X69471428Y-123428571D01*
X69414285Y-123314285D01*
X69414285Y-123200000D01*
X69471428Y-123085714D01*
X69528571Y-123028571D01*
X69642857Y-122971428D01*
X69871428Y-122914285D01*
X69985714Y-122857142D01*
X70042857Y-122800000D01*
X70100000Y-122685714D01*
X70100000Y-122571428D01*
X70042857Y-122457142D01*
X69985714Y-122400000D01*
X69871428Y-122342857D01*
X69585714Y-122342857D01*
X69414285Y-122400000D01*
X68671428Y-122342857D02*
X68442857Y-122342857D01*
X68328571Y-122400000D01*
X68214285Y-122514285D01*
X68157142Y-122742857D01*
X68157142Y-123142857D01*
X68214285Y-123371428D01*
X68328571Y-123485714D01*
X68442857Y-123542857D01*
X68671428Y-123542857D01*
X68785714Y-123485714D01*
X68900000Y-123371428D01*
X68957142Y-123142857D01*
X68957142Y-122742857D01*
X68900000Y-122514285D01*
X68785714Y-122400000D01*
X68671428Y-122342857D01*
X66957142Y-123542857D02*
X67357142Y-122971428D01*
X67642857Y-123542857D02*
X67642857Y-122342857D01*
X67185714Y-122342857D01*
X67071428Y-122400000D01*
X67014285Y-122457142D01*
X66957142Y-122571428D01*
X66957142Y-122742857D01*
X67014285Y-122857142D01*
X67071428Y-122914285D01*
X67185714Y-122971428D01*
X67642857Y-122971428D01*
X65700000Y-122342857D02*
X65300000Y-123542857D01*
X64900000Y-122342857D01*
X64557142Y-123200000D02*
X63985714Y-123200000D01*
X64671428Y-123542857D02*
X64271428Y-122342857D01*
X63871428Y-123542857D01*
X62900000Y-123542857D02*
X63471428Y-123542857D01*
X63471428Y-122342857D01*
X62671428Y-122342857D02*
X62271428Y-123542857D01*
X61871428Y-122342857D01*
X61471428Y-122914285D02*
X61071428Y-122914285D01*
X60900000Y-123542857D02*
X61471428Y-123542857D01*
X61471428Y-122342857D01*
X60900000Y-122342857D01*
X64428571Y-137678571D02*
X64428571Y-138750000D01*
X64500000Y-138964285D01*
X64642857Y-139107142D01*
X64857142Y-139178571D01*
X65000000Y-139178571D01*
X63000000Y-139178571D02*
X63714285Y-139178571D01*
X63714285Y-137678571D01*
X61642857Y-139035714D02*
X61714285Y-139107142D01*
X61928571Y-139178571D01*
X62071428Y-139178571D01*
X62285714Y-139107142D01*
X62428571Y-138964285D01*
X62500000Y-138821428D01*
X62571428Y-138535714D01*
X62571428Y-138321428D01*
X62500000Y-138035714D01*
X62428571Y-137892857D01*
X62285714Y-137750000D01*
X62071428Y-137678571D01*
X61928571Y-137678571D01*
X61714285Y-137750000D01*
X61642857Y-137821428D01*
X60571428Y-137678571D02*
X60571428Y-138750000D01*
X60642857Y-138964285D01*
X60785714Y-139107142D01*
X61000000Y-139178571D01*
X61142857Y-139178571D01*
X59142857Y-139178571D02*
X59857142Y-139178571D01*
X59857142Y-137678571D01*
X57785714Y-139035714D02*
X57857142Y-139107142D01*
X58071428Y-139178571D01*
X58214285Y-139178571D01*
X58428571Y-139107142D01*
X58571428Y-138964285D01*
X58642857Y-138821428D01*
X58714285Y-138535714D01*
X58714285Y-138321428D01*
X58642857Y-138035714D01*
X58571428Y-137892857D01*
X58428571Y-137750000D01*
X58214285Y-137678571D01*
X58071428Y-137678571D01*
X57857142Y-137750000D01*
X57785714Y-137821428D01*
X56714285Y-137678571D02*
X56714285Y-138750000D01*
X56785714Y-138964285D01*
X56928571Y-139107142D01*
X57142857Y-139178571D01*
X57285714Y-139178571D01*
X55285714Y-139178571D02*
X55999999Y-139178571D01*
X55999999Y-137678571D01*
X53928571Y-139035714D02*
X53999999Y-139107142D01*
X54214285Y-139178571D01*
X54357142Y-139178571D01*
X54571428Y-139107142D01*
X54714285Y-138964285D01*
X54785714Y-138821428D01*
X54857142Y-138535714D01*
X54857142Y-138321428D01*
X54785714Y-138035714D01*
X54714285Y-137892857D01*
X54571428Y-137750000D01*
X54357142Y-137678571D01*
X54214285Y-137678571D01*
X53999999Y-137750000D01*
X53928571Y-137821428D01*
X52857142Y-137678571D02*
X52857142Y-138750000D01*
X52928571Y-138964285D01*
X53071428Y-139107142D01*
X53285714Y-139178571D01*
X53428571Y-139178571D01*
X51428571Y-139178571D02*
X52142857Y-139178571D01*
X52142857Y-137678571D01*
X50071428Y-139035714D02*
X50142857Y-139107142D01*
X50357142Y-139178571D01*
X50499999Y-139178571D01*
X50714285Y-139107142D01*
X50857142Y-138964285D01*
X50928571Y-138821428D01*
X50999999Y-138535714D01*
X50999999Y-138321428D01*
X50928571Y-138035714D01*
X50857142Y-137892857D01*
X50714285Y-137750000D01*
X50499999Y-137678571D01*
X50357142Y-137678571D01*
X50142857Y-137750000D01*
X50071428Y-137821428D01*
D11*
X43381000Y-130793000D02*
G75*
G03*
X43381000Y-130793000I-381000J0D01*
G01*
%LPC*%
D12*
X106620000Y-143500000D03*
D13*
X99000000Y-143500000D03*
D14*
X100500000Y-130700000D03*
X100500000Y-138300000D03*
D15*
X104500000Y-125000000D03*
D16*
X104500000Y-125000000D03*
D17*
X43000000Y-136000000D03*
D18*
X39952000Y-140826000D03*
D19*
X36904000Y-136000000D03*
D20*
X68460000Y-147500000D03*
D21*
X71000000Y-147500000D03*
D15*
X76000000Y-142000000D03*
D16*
X76000000Y-142000000D03*
D15*
X40000000Y-146000000D03*
D16*
X40000000Y-146000000D03*
D15*
X40000000Y-126000000D03*
D16*
X40000000Y-126000000D03*
D20*
X99460000Y-147500000D03*
D21*
X102000000Y-147500000D03*
D20*
X62540000Y-145960000D03*
X62540000Y-148500000D03*
X60000000Y-145960000D03*
X60000000Y-148500000D03*
X57460000Y-145960000D03*
X57460000Y-148500000D03*
X54920000Y-145960000D03*
X54920000Y-148500000D03*
X52380000Y-145960000D03*
D21*
X52380000Y-148500000D03*
D13*
X74000000Y-135000000D03*
D22*
X74000000Y-137000000D03*
D12*
X83000000Y-149120000D03*
D13*
X83000000Y-141500000D03*
D12*
X83000000Y-122380000D03*
D13*
X83000000Y-130000000D03*
D12*
X69880000Y-130000000D03*
D13*
X77500000Y-130000000D03*
D12*
X77620000Y-126000000D03*
D13*
X70000000Y-126000000D03*
D12*
X94500000Y-149120000D03*
D13*
X94500000Y-141500000D03*
D12*
X67500000Y-134880000D03*
D13*
X67500000Y-142500000D03*
D12*
X62500000Y-134880000D03*
D13*
X62500000Y-142500000D03*
D12*
X57500000Y-134880000D03*
D13*
X57500000Y-142500000D03*
D12*
X52500000Y-134880000D03*
D13*
X52500000Y-142500000D03*
D12*
X47500000Y-134880000D03*
D13*
X47500000Y-142500000D03*
D12*
X52500000Y-131120000D03*
D13*
X52500000Y-123500000D03*
D12*
X57500000Y-131120000D03*
D13*
X57500000Y-123500000D03*
D23*
X89500000Y-127000000D03*
D24*
X89500000Y-124460000D03*
X88230000Y-125730000D03*
D25*
X79040000Y-148000000D03*
D26*
X76500000Y-148000000D03*
D27*
X90000000Y-141660000D03*
D28*
X90000000Y-131500000D03*
D25*
X90540000Y-148000000D03*
D26*
X88000000Y-148000000D03*
D13*
X47000000Y-127000000D03*
D22*
X47000000Y-129000000D03*
M02*
