G04 #@! TF.GenerationSoftware,KiCad,Pcbnew,(5.1.10)-1*
G04 #@! TF.CreationDate,2021-08-27T01:26:18-04:00*
G04 #@! TF.ProjectId,Water_Valve_Sensor,57617465-725f-4566-916c-76655f53656e,rev?*
G04 #@! TF.SameCoordinates,Original*
G04 #@! TF.FileFunction,Soldermask,Top*
G04 #@! TF.FilePolarity,Negative*
%FSLAX46Y46*%
G04 Gerber Fmt 4.6, Leading zero omitted, Abs format (unit mm)*
G04 Created by KiCad (PCBNEW (5.1.10)-1) date 2021-08-27 01:26:18*
%MOMM*%
%LPD*%
G01*
G04 APERTURE LIST*
%ADD10O,1.600000X1.600000*%
%ADD11C,1.600000*%
%ADD12C,2.500000*%
%ADD13C,5.000000*%
%ADD14C,2.900000*%
%ADD15O,2.000000X4.500000*%
%ADD16O,4.000000X2.000000*%
%ADD17O,2.000000X4.000000*%
%ADD18O,1.700000X1.700000*%
%ADD19R,1.700000X1.700000*%
%ADD20R,1.600000X1.600000*%
%ADD21R,1.300000X1.300000*%
%ADD22C,1.300000*%
%ADD23C,1.800000*%
%ADD24R,1.800000X1.800000*%
%ADD25O,2.400000X2.400000*%
%ADD26R,2.400000X2.400000*%
G04 APERTURE END LIST*
D10*
X106620000Y-143500000D03*
D11*
X99000000Y-143500000D03*
D12*
X100500000Y-130700000D03*
X100500000Y-138300000D03*
D13*
X104500000Y-125000000D03*
D14*
X104500000Y-125000000D03*
D15*
X43000000Y-136000000D03*
D16*
X39952000Y-140826000D03*
D17*
X36904000Y-136000000D03*
D18*
X68460000Y-147500000D03*
D19*
X71000000Y-147500000D03*
D13*
X76000000Y-142000000D03*
D14*
X76000000Y-142000000D03*
D13*
X40000000Y-146000000D03*
D14*
X40000000Y-146000000D03*
D13*
X40000000Y-126000000D03*
D14*
X40000000Y-126000000D03*
D18*
X99460000Y-147500000D03*
D19*
X102000000Y-147500000D03*
D18*
X62540000Y-145960000D03*
X62540000Y-148500000D03*
X60000000Y-145960000D03*
X60000000Y-148500000D03*
X57460000Y-145960000D03*
X57460000Y-148500000D03*
X54920000Y-145960000D03*
X54920000Y-148500000D03*
X52380000Y-145960000D03*
D19*
X52380000Y-148500000D03*
D11*
X74000000Y-135000000D03*
D20*
X74000000Y-137000000D03*
G36*
G01*
X66000000Y-125745000D02*
X66000000Y-125445000D01*
G75*
G02*
X66150000Y-125295000I150000J0D01*
G01*
X67800000Y-125295000D01*
G75*
G02*
X67950000Y-125445000I0J-150000D01*
G01*
X67950000Y-125745000D01*
G75*
G02*
X67800000Y-125895000I-150000J0D01*
G01*
X66150000Y-125895000D01*
G75*
G02*
X66000000Y-125745000I0J150000D01*
G01*
G37*
G36*
G01*
X66000000Y-127015000D02*
X66000000Y-126715000D01*
G75*
G02*
X66150000Y-126565000I150000J0D01*
G01*
X67800000Y-126565000D01*
G75*
G02*
X67950000Y-126715000I0J-150000D01*
G01*
X67950000Y-127015000D01*
G75*
G02*
X67800000Y-127165000I-150000J0D01*
G01*
X66150000Y-127165000D01*
G75*
G02*
X66000000Y-127015000I0J150000D01*
G01*
G37*
G36*
G01*
X66000000Y-128285000D02*
X66000000Y-127985000D01*
G75*
G02*
X66150000Y-127835000I150000J0D01*
G01*
X67800000Y-127835000D01*
G75*
G02*
X67950000Y-127985000I0J-150000D01*
G01*
X67950000Y-128285000D01*
G75*
G02*
X67800000Y-128435000I-150000J0D01*
G01*
X66150000Y-128435000D01*
G75*
G02*
X66000000Y-128285000I0J150000D01*
G01*
G37*
G36*
G01*
X66000000Y-129555000D02*
X66000000Y-129255000D01*
G75*
G02*
X66150000Y-129105000I150000J0D01*
G01*
X67800000Y-129105000D01*
G75*
G02*
X67950000Y-129255000I0J-150000D01*
G01*
X67950000Y-129555000D01*
G75*
G02*
X67800000Y-129705000I-150000J0D01*
G01*
X66150000Y-129705000D01*
G75*
G02*
X66000000Y-129555000I0J150000D01*
G01*
G37*
G36*
G01*
X61050000Y-129555000D02*
X61050000Y-129255000D01*
G75*
G02*
X61200000Y-129105000I150000J0D01*
G01*
X62850000Y-129105000D01*
G75*
G02*
X63000000Y-129255000I0J-150000D01*
G01*
X63000000Y-129555000D01*
G75*
G02*
X62850000Y-129705000I-150000J0D01*
G01*
X61200000Y-129705000D01*
G75*
G02*
X61050000Y-129555000I0J150000D01*
G01*
G37*
G36*
G01*
X61050000Y-128285000D02*
X61050000Y-127985000D01*
G75*
G02*
X61200000Y-127835000I150000J0D01*
G01*
X62850000Y-127835000D01*
G75*
G02*
X63000000Y-127985000I0J-150000D01*
G01*
X63000000Y-128285000D01*
G75*
G02*
X62850000Y-128435000I-150000J0D01*
G01*
X61200000Y-128435000D01*
G75*
G02*
X61050000Y-128285000I0J150000D01*
G01*
G37*
G36*
G01*
X61050000Y-127015000D02*
X61050000Y-126715000D01*
G75*
G02*
X61200000Y-126565000I150000J0D01*
G01*
X62850000Y-126565000D01*
G75*
G02*
X63000000Y-126715000I0J-150000D01*
G01*
X63000000Y-127015000D01*
G75*
G02*
X62850000Y-127165000I-150000J0D01*
G01*
X61200000Y-127165000D01*
G75*
G02*
X61050000Y-127015000I0J150000D01*
G01*
G37*
G36*
G01*
X61050000Y-125745000D02*
X61050000Y-125445000D01*
G75*
G02*
X61200000Y-125295000I150000J0D01*
G01*
X62850000Y-125295000D01*
G75*
G02*
X63000000Y-125445000I0J-150000D01*
G01*
X63000000Y-125745000D01*
G75*
G02*
X62850000Y-125895000I-150000J0D01*
G01*
X61200000Y-125895000D01*
G75*
G02*
X61050000Y-125745000I0J150000D01*
G01*
G37*
G36*
G01*
X84500000Y-134245000D02*
X84500000Y-133945000D01*
G75*
G02*
X84650000Y-133795000I150000J0D01*
G01*
X86300000Y-133795000D01*
G75*
G02*
X86450000Y-133945000I0J-150000D01*
G01*
X86450000Y-134245000D01*
G75*
G02*
X86300000Y-134395000I-150000J0D01*
G01*
X84650000Y-134395000D01*
G75*
G02*
X84500000Y-134245000I0J150000D01*
G01*
G37*
G36*
G01*
X84500000Y-135515000D02*
X84500000Y-135215000D01*
G75*
G02*
X84650000Y-135065000I150000J0D01*
G01*
X86300000Y-135065000D01*
G75*
G02*
X86450000Y-135215000I0J-150000D01*
G01*
X86450000Y-135515000D01*
G75*
G02*
X86300000Y-135665000I-150000J0D01*
G01*
X84650000Y-135665000D01*
G75*
G02*
X84500000Y-135515000I0J150000D01*
G01*
G37*
G36*
G01*
X84500000Y-136785000D02*
X84500000Y-136485000D01*
G75*
G02*
X84650000Y-136335000I150000J0D01*
G01*
X86300000Y-136335000D01*
G75*
G02*
X86450000Y-136485000I0J-150000D01*
G01*
X86450000Y-136785000D01*
G75*
G02*
X86300000Y-136935000I-150000J0D01*
G01*
X84650000Y-136935000D01*
G75*
G02*
X84500000Y-136785000I0J150000D01*
G01*
G37*
G36*
G01*
X84500000Y-138055000D02*
X84500000Y-137755000D01*
G75*
G02*
X84650000Y-137605000I150000J0D01*
G01*
X86300000Y-137605000D01*
G75*
G02*
X86450000Y-137755000I0J-150000D01*
G01*
X86450000Y-138055000D01*
G75*
G02*
X86300000Y-138205000I-150000J0D01*
G01*
X84650000Y-138205000D01*
G75*
G02*
X84500000Y-138055000I0J150000D01*
G01*
G37*
G36*
G01*
X79550000Y-138055000D02*
X79550000Y-137755000D01*
G75*
G02*
X79700000Y-137605000I150000J0D01*
G01*
X81350000Y-137605000D01*
G75*
G02*
X81500000Y-137755000I0J-150000D01*
G01*
X81500000Y-138055000D01*
G75*
G02*
X81350000Y-138205000I-150000J0D01*
G01*
X79700000Y-138205000D01*
G75*
G02*
X79550000Y-138055000I0J150000D01*
G01*
G37*
G36*
G01*
X79550000Y-136785000D02*
X79550000Y-136485000D01*
G75*
G02*
X79700000Y-136335000I150000J0D01*
G01*
X81350000Y-136335000D01*
G75*
G02*
X81500000Y-136485000I0J-150000D01*
G01*
X81500000Y-136785000D01*
G75*
G02*
X81350000Y-136935000I-150000J0D01*
G01*
X79700000Y-136935000D01*
G75*
G02*
X79550000Y-136785000I0J150000D01*
G01*
G37*
G36*
G01*
X79550000Y-135515000D02*
X79550000Y-135215000D01*
G75*
G02*
X79700000Y-135065000I150000J0D01*
G01*
X81350000Y-135065000D01*
G75*
G02*
X81500000Y-135215000I0J-150000D01*
G01*
X81500000Y-135515000D01*
G75*
G02*
X81350000Y-135665000I-150000J0D01*
G01*
X79700000Y-135665000D01*
G75*
G02*
X79550000Y-135515000I0J150000D01*
G01*
G37*
G36*
G01*
X79550000Y-134245000D02*
X79550000Y-133945000D01*
G75*
G02*
X79700000Y-133795000I150000J0D01*
G01*
X81350000Y-133795000D01*
G75*
G02*
X81500000Y-133945000I0J-150000D01*
G01*
X81500000Y-134245000D01*
G75*
G02*
X81350000Y-134395000I-150000J0D01*
G01*
X79700000Y-134395000D01*
G75*
G02*
X79550000Y-134245000I0J150000D01*
G01*
G37*
D10*
X83000000Y-149120000D03*
D11*
X83000000Y-141500000D03*
D10*
X83000000Y-122380000D03*
D11*
X83000000Y-130000000D03*
D10*
X69880000Y-130000000D03*
D11*
X77500000Y-130000000D03*
D10*
X77620000Y-126000000D03*
D11*
X70000000Y-126000000D03*
D10*
X94500000Y-149120000D03*
D11*
X94500000Y-141500000D03*
D10*
X67500000Y-134880000D03*
D11*
X67500000Y-142500000D03*
D10*
X62500000Y-134880000D03*
D11*
X62500000Y-142500000D03*
D10*
X57500000Y-134880000D03*
D11*
X57500000Y-142500000D03*
D10*
X52500000Y-134880000D03*
D11*
X52500000Y-142500000D03*
D10*
X47500000Y-134880000D03*
D11*
X47500000Y-142500000D03*
D10*
X52500000Y-131120000D03*
D11*
X52500000Y-123500000D03*
D10*
X57500000Y-131120000D03*
D11*
X57500000Y-123500000D03*
D21*
X89500000Y-127000000D03*
D22*
X89500000Y-124460000D03*
X88230000Y-125730000D03*
D23*
X79040000Y-148000000D03*
D24*
X76500000Y-148000000D03*
D25*
X90000000Y-141660000D03*
D26*
X90000000Y-131500000D03*
D23*
X90540000Y-148000000D03*
D24*
X88000000Y-148000000D03*
D11*
X47000000Y-127000000D03*
D20*
X47000000Y-129000000D03*
M02*
