M48
; DRILL file {KiCad (5.1.10)-1} date 08/27/21 01:26:36
; FORMAT={-:-/ absolute / metric / decimal}
; #@! TF.CreationDate,2021-08-27T01:26:36-04:00
; #@! TF.GenerationSoftware,Kicad,Pcbnew,(5.1.10)-1
; #@! TF.FileFunction,Plated,1,2,PTH
FMAT,2
METRIC
T1C0.400
T2C0.750
T3C0.800
T4C0.900
T5C1.000
T6C1.200
T7C2.500
%
G90
G05
T1
X62.0Y-131.0
X64.184Y-125.5
X64.5Y-127.0
X64.5Y-129.5
X71.0Y-134.0
X78.5Y-138.0
X83.0Y-136.5
T2
X88.23Y-125.73
X89.5Y-124.46
X89.5Y-127.0
T3
X47.0Y-127.0
X47.0Y-129.0
X47.5Y-134.88
X47.5Y-142.5
X52.5Y-123.5
X52.5Y-131.12
X52.5Y-134.88
X52.5Y-142.5
X57.5Y-123.5
X57.5Y-131.12
X57.5Y-134.88
X57.5Y-142.5
X62.5Y-134.88
X62.5Y-142.5
X67.5Y-134.88
X67.5Y-142.5
X69.88Y-130.0
X70.0Y-126.0
X74.0Y-135.0
X74.0Y-137.0
X77.5Y-130.0
X77.62Y-126.0
X83.0Y-122.38
X83.0Y-130.0
X83.0Y-141.5
X83.0Y-149.12
X94.5Y-141.5
X94.5Y-149.12
X99.0Y-143.5
X106.62Y-143.5
T4
X76.5Y-148.0
X79.04Y-148.0
X88.0Y-148.0
X90.54Y-148.0
X100.5Y-130.7
X100.5Y-138.3
T5
X52.38Y-145.96
X52.38Y-148.5
X54.92Y-145.96
X54.92Y-148.5
X57.46Y-145.96
X57.46Y-148.5
X60.0Y-145.96
X60.0Y-148.5
X62.54Y-145.96
X62.54Y-148.5
X68.46Y-147.5
X71.0Y-147.5
X99.46Y-147.5
X102.0Y-147.5
T6
X90.0Y-131.5
X90.0Y-141.66
T7
X40.0Y-126.0
X40.0Y-146.0
X76.0Y-142.0
X104.5Y-125.0
T5
X36.904Y-135.0G85X36.904Y-137.0
G05
X38.952Y-140.826G85X40.952Y-140.826
G05
X43.0Y-134.75G85X43.0Y-137.25
G05
T0
M30
